<?xml version="1.0" encoding="utf-8" standalone="no"?>
<!DOCTYPE svg PUBLIC "-//W3C//DTD SVG 1.1//EN"
  "http://www.w3.org/Graphics/SVG/1.1/DTD/svg11.dtd">
<!-- Created with matplotlib (https://matplotlib.org/) -->
<svg height="172.389844pt" version="1.1" viewBox="0 0 221.85125 172.389844" width="221.85125pt" xmlns="http://www.w3.org/2000/svg" xmlns:xlink="http://www.w3.org/1999/xlink">
 <metadata>
  <rdf:RDF xmlns:cc="http://creativecommons.org/ns#" xmlns:dc="http://purl.org/dc/elements/1.1/" xmlns:rdf="http://www.w3.org/1999/02/22-rdf-syntax-ns#">
   <cc:Work>
    <dc:type rdf:resource="http://purl.org/dc/dcmitype/StillImage"/>
    <dc:date>2024-06-05T15:13:45.169392</dc:date>
    <dc:format>image/svg+xml</dc:format>
    <dc:creator>
     <cc:Agent>
      <dc:title>Matplotlib v3.3.2, https://matplotlib.org/</dc:title>
     </cc:Agent>
    </dc:creator>
   </cc:Work>
  </rdf:RDF>
 </metadata>
 <defs>
  <style type="text/css">*{stroke-linecap:butt;stroke-linejoin:round;}</style>
 </defs>
 <g id="figure_1">
  <g id="patch_1">
   <path d="M 0 172.389844 
L 221.85125 172.389844 
L 221.85125 0 
L 0 0 
z
" style="fill:#ffffff;"/>
  </g>
  <g id="axes_1">
   <g id="patch_2">
    <path d="M 47.25125 130.655625 
L 214.65125 130.655625 
L 214.65125 21.935625 
L 47.25125 21.935625 
z
" style="fill:#ffffff;"/>
   </g>
   <g id="matplotlib.axis_1">
    <g id="xtick_1">
     <g id="text_1">
      <!-- H -->
      <g style="fill:#262626;" transform="translate(71.179219 148.029219)scale(0.11 -0.11)">
       <defs>
        <path d="M 8.015625 0 
L 8.015625 71.578125 
L 17.484375 71.578125 
L 17.484375 42.1875 
L 54.6875 42.1875 
L 54.6875 71.578125 
L 64.15625 71.578125 
L 64.15625 0 
L 54.6875 0 
L 54.6875 33.734375 
L 17.484375 33.734375 
L 17.484375 0 
z
" id="ArialMT-72"/>
       </defs>
       <use xlink:href="#ArialMT-72"/>
      </g>
     </g>
    </g>
    <g id="xtick_2">
     <g id="text_2">
      <!-- M -->
      <g style="fill:#262626;" transform="translate(126.369922 148.029219)scale(0.11 -0.11)">
       <defs>
        <path d="M 7.421875 0 
L 7.421875 71.578125 
L 21.6875 71.578125 
L 38.625 20.90625 
Q 40.96875 13.8125 42.046875 10.296875 
Q 43.265625 14.203125 45.84375 21.78125 
L 62.984375 71.578125 
L 75.734375 71.578125 
L 75.734375 0 
L 66.609375 0 
L 66.609375 59.90625 
L 45.796875 0 
L 37.25 0 
L 16.546875 60.9375 
L 16.546875 0 
z
" id="ArialMT-77"/>
       </defs>
       <use xlink:href="#ArialMT-77"/>
      </g>
     </g>
    </g>
    <g id="xtick_3">
     <g id="text_3">
      <!-- L -->
      <g style="fill:#262626;" transform="translate(183.692734 148.029219)scale(0.11 -0.11)">
       <defs>
        <path d="M 7.328125 0 
L 7.328125 71.578125 
L 16.796875 71.578125 
L 16.796875 8.453125 
L 52.046875 8.453125 
L 52.046875 0 
z
" id="ArialMT-76"/>
       </defs>
       <use xlink:href="#ArialMT-76"/>
      </g>
     </g>
    </g>
    <g id="text_4">
     <!-- NaF Condition -->
     <g style="fill:#262626;" transform="translate(92.600938 162.804844)scale(0.12 -0.12)">
      <defs>
       <path d="M 7.625 0 
L 7.625 71.578125 
L 17.328125 71.578125 
L 54.9375 15.375 
L 54.9375 71.578125 
L 64.015625 71.578125 
L 64.015625 0 
L 54.296875 0 
L 16.703125 56.25 
L 16.703125 0 
z
" id="ArialMT-78"/>
       <path d="M 40.4375 6.390625 
Q 35.546875 2.25 31.03125 0.53125 
Q 26.515625 -1.171875 21.34375 -1.171875 
Q 12.796875 -1.171875 8.203125 3 
Q 3.609375 7.171875 3.609375 13.671875 
Q 3.609375 17.484375 5.34375 20.625 
Q 7.078125 23.78125 9.890625 25.6875 
Q 12.703125 27.59375 16.21875 28.5625 
Q 18.796875 29.25 24.03125 29.890625 
Q 34.671875 31.15625 39.703125 32.90625 
Q 39.75 34.71875 39.75 35.203125 
Q 39.75 40.578125 37.25 42.78125 
Q 33.890625 45.75 27.25 45.75 
Q 21.046875 45.75 18.09375 43.578125 
Q 15.140625 41.40625 13.71875 35.890625 
L 5.125 37.0625 
Q 6.296875 42.578125 8.984375 45.96875 
Q 11.671875 49.359375 16.75 51.1875 
Q 21.828125 53.03125 28.515625 53.03125 
Q 35.15625 53.03125 39.296875 51.46875 
Q 43.453125 49.90625 45.40625 47.53125 
Q 47.359375 45.171875 48.140625 41.546875 
Q 48.578125 39.3125 48.578125 33.453125 
L 48.578125 21.734375 
Q 48.578125 9.46875 49.140625 6.21875 
Q 49.703125 2.984375 51.375 0 
L 42.1875 0 
Q 40.828125 2.734375 40.4375 6.390625 
z
M 39.703125 26.03125 
Q 34.90625 24.078125 25.34375 22.703125 
Q 19.921875 21.921875 17.671875 20.9375 
Q 15.4375 19.96875 14.203125 18.09375 
Q 12.984375 16.21875 12.984375 13.921875 
Q 12.984375 10.40625 15.640625 8.0625 
Q 18.3125 5.71875 23.4375 5.71875 
Q 28.515625 5.71875 32.46875 7.9375 
Q 36.421875 10.15625 38.28125 14.015625 
Q 39.703125 17 39.703125 22.796875 
z
" id="ArialMT-97"/>
       <path d="M 8.203125 0 
L 8.203125 71.578125 
L 56.5 71.578125 
L 56.5 63.140625 
L 17.671875 63.140625 
L 17.671875 40.96875 
L 51.265625 40.96875 
L 51.265625 32.515625 
L 17.671875 32.515625 
L 17.671875 0 
z
" id="ArialMT-70"/>
       <path id="ArialMT-32"/>
       <path d="M 58.796875 25.09375 
L 68.265625 22.703125 
Q 65.28125 11.03125 57.546875 4.90625 
Q 49.8125 -1.21875 38.625 -1.21875 
Q 27.046875 -1.21875 19.796875 3.484375 
Q 12.546875 8.203125 8.765625 17.140625 
Q 4.984375 26.078125 4.984375 36.328125 
Q 4.984375 47.515625 9.25 55.828125 
Q 13.53125 64.15625 21.40625 68.46875 
Q 29.296875 72.796875 38.765625 72.796875 
Q 49.515625 72.796875 56.828125 67.328125 
Q 64.15625 61.859375 67.046875 51.953125 
L 57.71875 49.75 
Q 55.21875 57.5625 50.484375 61.125 
Q 45.75 64.703125 38.578125 64.703125 
Q 30.328125 64.703125 24.78125 60.734375 
Q 19.234375 56.78125 16.984375 50.109375 
Q 14.75 43.453125 14.75 36.375 
Q 14.75 27.25 17.40625 20.4375 
Q 20.0625 13.625 25.671875 10.25 
Q 31.296875 6.890625 37.84375 6.890625 
Q 45.796875 6.890625 51.3125 11.46875 
Q 56.84375 16.0625 58.796875 25.09375 
z
" id="ArialMT-67"/>
       <path d="M 3.328125 25.921875 
Q 3.328125 40.328125 11.328125 47.265625 
Q 18.015625 53.03125 27.640625 53.03125 
Q 38.328125 53.03125 45.109375 46.015625 
Q 51.90625 39.015625 51.90625 26.65625 
Q 51.90625 16.65625 48.90625 10.90625 
Q 45.90625 5.171875 40.15625 2 
Q 34.421875 -1.171875 27.640625 -1.171875 
Q 16.75 -1.171875 10.03125 5.8125 
Q 3.328125 12.796875 3.328125 25.921875 
z
M 12.359375 25.921875 
Q 12.359375 15.96875 16.703125 11.015625 
Q 21.046875 6.0625 27.640625 6.0625 
Q 34.1875 6.0625 38.53125 11.03125 
Q 42.875 16.015625 42.875 26.21875 
Q 42.875 35.84375 38.5 40.796875 
Q 34.125 45.75 27.640625 45.75 
Q 21.046875 45.75 16.703125 40.8125 
Q 12.359375 35.890625 12.359375 25.921875 
z
" id="ArialMT-111"/>
       <path d="M 6.59375 0 
L 6.59375 51.859375 
L 14.5 51.859375 
L 14.5 44.484375 
Q 20.21875 53.03125 31 53.03125 
Q 35.6875 53.03125 39.625 51.34375 
Q 43.5625 49.65625 45.515625 46.921875 
Q 47.46875 44.1875 48.25 40.4375 
Q 48.734375 37.984375 48.734375 31.890625 
L 48.734375 0 
L 39.9375 0 
L 39.9375 31.546875 
Q 39.9375 36.921875 38.90625 39.578125 
Q 37.890625 42.234375 35.28125 43.8125 
Q 32.671875 45.40625 29.15625 45.40625 
Q 23.53125 45.40625 19.453125 41.84375 
Q 15.375 38.28125 15.375 28.328125 
L 15.375 0 
z
" id="ArialMT-110"/>
       <path d="M 40.234375 0 
L 40.234375 6.546875 
Q 35.296875 -1.171875 25.734375 -1.171875 
Q 19.53125 -1.171875 14.328125 2.25 
Q 9.125 5.671875 6.265625 11.796875 
Q 3.421875 17.921875 3.421875 25.875 
Q 3.421875 33.640625 6 39.96875 
Q 8.59375 46.296875 13.765625 49.65625 
Q 18.953125 53.03125 25.34375 53.03125 
Q 30.03125 53.03125 33.6875 51.046875 
Q 37.359375 49.078125 39.65625 45.90625 
L 39.65625 71.578125 
L 48.390625 71.578125 
L 48.390625 0 
z
M 12.453125 25.875 
Q 12.453125 15.921875 16.640625 10.984375 
Q 20.84375 6.0625 26.5625 6.0625 
Q 32.328125 6.0625 36.34375 10.765625 
Q 40.375 15.484375 40.375 25.140625 
Q 40.375 35.796875 36.265625 40.765625 
Q 32.171875 45.75 26.171875 45.75 
Q 20.3125 45.75 16.375 40.96875 
Q 12.453125 36.1875 12.453125 25.875 
z
" id="ArialMT-100"/>
       <path d="M 6.640625 61.46875 
L 6.640625 71.578125 
L 15.4375 71.578125 
L 15.4375 61.46875 
z
M 6.640625 0 
L 6.640625 51.859375 
L 15.4375 51.859375 
L 15.4375 0 
z
" id="ArialMT-105"/>
       <path d="M 25.78125 7.859375 
L 27.046875 0.09375 
Q 23.34375 -0.6875 20.40625 -0.6875 
Q 15.625 -0.6875 12.984375 0.828125 
Q 10.359375 2.34375 9.28125 4.8125 
Q 8.203125 7.28125 8.203125 15.1875 
L 8.203125 45.015625 
L 1.765625 45.015625 
L 1.765625 51.859375 
L 8.203125 51.859375 
L 8.203125 64.703125 
L 16.9375 69.96875 
L 16.9375 51.859375 
L 25.78125 51.859375 
L 25.78125 45.015625 
L 16.9375 45.015625 
L 16.9375 14.703125 
Q 16.9375 10.9375 17.40625 9.859375 
Q 17.875 8.796875 18.921875 8.15625 
Q 19.96875 7.515625 21.921875 7.515625 
Q 23.390625 7.515625 25.78125 7.859375 
z
" id="ArialMT-116"/>
      </defs>
      <use xlink:href="#ArialMT-78"/>
      <use x="72.216797" xlink:href="#ArialMT-97"/>
      <use x="127.832031" xlink:href="#ArialMT-70"/>
      <use x="188.916016" xlink:href="#ArialMT-32"/>
      <use x="216.699219" xlink:href="#ArialMT-67"/>
      <use x="288.916016" xlink:href="#ArialMT-111"/>
      <use x="344.53125" xlink:href="#ArialMT-110"/>
      <use x="400.146484" xlink:href="#ArialMT-100"/>
      <use x="455.761719" xlink:href="#ArialMT-105"/>
      <use x="477.978516" xlink:href="#ArialMT-116"/>
      <use x="505.761719" xlink:href="#ArialMT-105"/>
      <use x="527.978516" xlink:href="#ArialMT-111"/>
      <use x="583.59375" xlink:href="#ArialMT-110"/>
     </g>
    </g>
   </g>
   <g id="matplotlib.axis_2">
    <g id="ytick_1">
     <g id="line2d_1">
      <path clip-path="url(#pff1b7bf0e6)" d="M 47.25125 121.601251 
L 214.65125 121.601251 
" style="fill:none;stroke:#cccccc;stroke-linecap:round;"/>
     </g>
     <g id="text_5">
      <!-- 0.0 -->
      <g style="fill:#262626;" transform="translate(22.46125 125.538048)scale(0.11 -0.11)">
       <defs>
        <path d="M 4.15625 35.296875 
Q 4.15625 48 6.765625 55.734375 
Q 9.375 63.484375 14.515625 67.671875 
Q 19.671875 71.875 27.484375 71.875 
Q 33.25 71.875 37.59375 69.546875 
Q 41.9375 67.234375 44.765625 62.859375 
Q 47.609375 58.5 49.21875 52.21875 
Q 50.828125 45.953125 50.828125 35.296875 
Q 50.828125 22.703125 48.234375 14.96875 
Q 45.65625 7.234375 40.5 3 
Q 35.359375 -1.21875 27.484375 -1.21875 
Q 17.140625 -1.21875 11.234375 6.203125 
Q 4.15625 15.140625 4.15625 35.296875 
z
M 13.1875 35.296875 
Q 13.1875 17.671875 17.3125 11.828125 
Q 21.4375 6 27.484375 6 
Q 33.546875 6 37.671875 11.859375 
Q 41.796875 17.71875 41.796875 35.296875 
Q 41.796875 52.984375 37.671875 58.78125 
Q 33.546875 64.59375 27.390625 64.59375 
Q 21.34375 64.59375 17.71875 59.46875 
Q 13.1875 52.9375 13.1875 35.296875 
z
" id="ArialMT-48"/>
        <path d="M 9.078125 0 
L 9.078125 10.015625 
L 19.09375 10.015625 
L 19.09375 0 
z
" id="ArialMT-46"/>
       </defs>
       <use xlink:href="#ArialMT-48"/>
       <use x="55.615234" xlink:href="#ArialMT-46"/>
       <use x="83.398438" xlink:href="#ArialMT-48"/>
      </g>
     </g>
    </g>
    <g id="ytick_2">
     <g id="line2d_2">
      <path clip-path="url(#pff1b7bf0e6)" d="M 47.25125 94.026668 
L 214.65125 94.026668 
" style="fill:none;stroke:#cccccc;stroke-linecap:round;"/>
     </g>
     <g id="text_6">
      <!-- 0.5 -->
      <g style="fill:#262626;" transform="translate(22.46125 97.963465)scale(0.11 -0.11)">
       <defs>
        <path d="M 4.15625 18.75 
L 13.375 19.53125 
Q 14.40625 12.796875 18.140625 9.390625 
Q 21.875 6 27.15625 6 
Q 33.5 6 37.890625 10.78125 
Q 42.28125 15.578125 42.28125 23.484375 
Q 42.28125 31 38.0625 35.34375 
Q 33.84375 39.703125 27 39.703125 
Q 22.75 39.703125 19.328125 37.765625 
Q 15.921875 35.84375 13.96875 32.765625 
L 5.71875 33.84375 
L 12.640625 70.609375 
L 48.25 70.609375 
L 48.25 62.203125 
L 19.671875 62.203125 
L 15.828125 42.96875 
Q 22.265625 47.46875 29.34375 47.46875 
Q 38.71875 47.46875 45.15625 40.96875 
Q 51.609375 34.46875 51.609375 24.265625 
Q 51.609375 14.546875 45.953125 7.46875 
Q 39.0625 -1.21875 27.15625 -1.21875 
Q 17.390625 -1.21875 11.203125 4.25 
Q 5.03125 9.71875 4.15625 18.75 
z
" id="ArialMT-53"/>
       </defs>
       <use xlink:href="#ArialMT-48"/>
       <use x="55.615234" xlink:href="#ArialMT-46"/>
       <use x="83.398438" xlink:href="#ArialMT-53"/>
      </g>
     </g>
    </g>
    <g id="ytick_3">
     <g id="line2d_3">
      <path clip-path="url(#pff1b7bf0e6)" d="M 47.25125 66.452085 
L 214.65125 66.452085 
" style="fill:none;stroke:#cccccc;stroke-linecap:round;"/>
     </g>
     <g id="text_7">
      <!-- 1.0 -->
      <g style="fill:#262626;" transform="translate(22.46125 70.388882)scale(0.11 -0.11)">
       <defs>
        <path d="M 37.25 0 
L 28.46875 0 
L 28.46875 56 
Q 25.296875 52.984375 20.140625 49.953125 
Q 14.984375 46.921875 10.890625 45.40625 
L 10.890625 53.90625 
Q 18.265625 57.375 23.78125 62.296875 
Q 29.296875 67.234375 31.59375 71.875 
L 37.25 71.875 
z
" id="ArialMT-49"/>
       </defs>
       <use xlink:href="#ArialMT-49"/>
       <use x="55.615234" xlink:href="#ArialMT-46"/>
       <use x="83.398438" xlink:href="#ArialMT-48"/>
      </g>
     </g>
    </g>
    <g id="ytick_4">
     <g id="line2d_4">
      <path clip-path="url(#pff1b7bf0e6)" d="M 47.25125 38.877501 
L 214.65125 38.877501 
" style="fill:none;stroke:#cccccc;stroke-linecap:round;"/>
     </g>
     <g id="text_8">
      <!-- 1.5 -->
      <g style="fill:#262626;" transform="translate(22.46125 42.814298)scale(0.11 -0.11)">
       <use xlink:href="#ArialMT-49"/>
       <use x="55.615234" xlink:href="#ArialMT-46"/>
       <use x="83.398438" xlink:href="#ArialMT-53"/>
      </g>
     </g>
    </g>
    <g id="text_9">
     <!-- MEF (uM FITC) -->
     <g style="fill:#262626;" transform="translate(15.935625 117.953437)rotate(-90)scale(0.12 -0.12)">
      <defs>
       <path d="M 7.90625 0 
L 7.90625 71.578125 
L 59.671875 71.578125 
L 59.671875 63.140625 
L 17.390625 63.140625 
L 17.390625 41.21875 
L 56.984375 41.21875 
L 56.984375 32.8125 
L 17.390625 32.8125 
L 17.390625 8.453125 
L 61.328125 8.453125 
L 61.328125 0 
z
" id="ArialMT-69"/>
       <path d="M 23.390625 -21.046875 
Q 16.109375 -11.859375 11.078125 0.4375 
Q 6.0625 12.75 6.0625 25.921875 
Q 6.0625 37.546875 9.8125 48.1875 
Q 14.203125 60.546875 23.390625 72.796875 
L 29.6875 72.796875 
Q 23.78125 62.640625 21.875 58.296875 
Q 18.890625 51.5625 17.1875 44.234375 
Q 15.09375 35.109375 15.09375 25.875 
Q 15.09375 2.390625 29.6875 -21.046875 
z
" id="ArialMT-40"/>
       <path d="M 40.578125 0 
L 40.578125 7.625 
Q 34.515625 -1.171875 24.125 -1.171875 
Q 19.53125 -1.171875 15.546875 0.578125 
Q 11.578125 2.34375 9.640625 5 
Q 7.71875 7.671875 6.9375 11.53125 
Q 6.390625 14.109375 6.390625 19.734375 
L 6.390625 51.859375 
L 15.1875 51.859375 
L 15.1875 23.09375 
Q 15.1875 16.21875 15.71875 13.8125 
Q 16.546875 10.359375 19.234375 8.375 
Q 21.921875 6.390625 25.875 6.390625 
Q 29.828125 6.390625 33.296875 8.421875 
Q 36.765625 10.453125 38.203125 13.9375 
Q 39.65625 17.4375 39.65625 24.078125 
L 39.65625 51.859375 
L 48.4375 51.859375 
L 48.4375 0 
z
" id="ArialMT-117"/>
       <path d="M 9.328125 0 
L 9.328125 71.578125 
L 18.796875 71.578125 
L 18.796875 0 
z
" id="ArialMT-73"/>
       <path d="M 25.921875 0 
L 25.921875 63.140625 
L 2.34375 63.140625 
L 2.34375 71.578125 
L 59.078125 71.578125 
L 59.078125 63.140625 
L 35.40625 63.140625 
L 35.40625 0 
z
" id="ArialMT-84"/>
       <path d="M 12.359375 -21.046875 
L 6.0625 -21.046875 
Q 20.65625 2.390625 20.65625 25.875 
Q 20.65625 35.0625 18.5625 44.09375 
Q 16.890625 51.421875 13.921875 58.15625 
Q 12.015625 62.546875 6.0625 72.796875 
L 12.359375 72.796875 
Q 21.53125 60.546875 25.921875 48.1875 
Q 29.6875 37.546875 29.6875 25.921875 
Q 29.6875 12.75 24.625 0.4375 
Q 19.578125 -11.859375 12.359375 -21.046875 
z
" id="ArialMT-41"/>
      </defs>
      <use xlink:href="#ArialMT-77"/>
      <use x="83.300781" xlink:href="#ArialMT-69"/>
      <use x="150" xlink:href="#ArialMT-70"/>
      <use x="211.083984" xlink:href="#ArialMT-32"/>
      <use x="238.867188" xlink:href="#ArialMT-40"/>
      <use x="272.167969" xlink:href="#ArialMT-117"/>
      <use x="327.783203" xlink:href="#ArialMT-77"/>
      <use x="411.083984" xlink:href="#ArialMT-32"/>
      <use x="438.867188" xlink:href="#ArialMT-70"/>
      <use x="499.951172" xlink:href="#ArialMT-73"/>
      <use x="527.734375" xlink:href="#ArialMT-84"/>
      <use x="588.818359" xlink:href="#ArialMT-67"/>
      <use x="661.035156" xlink:href="#ArialMT-41"/>
     </g>
    </g>
   </g>
   <g id="PolyCollection_1">
    <defs>
     <path d="M 75.20891 -46.676037 
L 75.09359 -46.676037 
L 75.063284 -47.674384 
L 75.022473 -48.672731 
L 74.970237 -49.671078 
L 74.906792 -50.669425 
L 74.833842 -51.667772 
L 74.754737 -52.66612 
L 74.67434 -53.664467 
L 74.598576 -54.662814 
L 74.533691 -55.661161 
L 74.48534 -56.659508 
L 74.457627 -57.657855 
L 74.452267 -58.656202 
L 74.467972 -59.654549 
L 74.500157 -60.652896 
L 74.540995 -61.651244 
L 74.579818 -62.649591 
L 74.603846 -63.647938 
L 74.599224 -64.646285 
L 74.552321 -65.644632 
L 74.451248 -66.642979 
L 74.287491 -67.641326 
L 74.057423 -68.639673 
L 73.763405 -69.63802 
L 73.414031 -70.636368 
L 73.023125 -71.634715 
L 72.607258 -72.633062 
L 72.181898 -73.631409 
L 71.756743 -74.629756 
L 71.331247 -75.628103 
L 70.891585 -76.62645 
L 70.410224 -77.624797 
L 69.848838 -78.623144 
L 69.164475 -79.621491 
L 68.318025 -80.619839 
L 67.283246 -81.618186 
L 66.054245 -82.616533 
L 64.64952 -83.61488 
L 63.111443 -84.613227 
L 61.501158 -85.611574 
L 59.890051 -86.609921 
L 58.349775 -87.608268 
L 56.943079 -88.606615 
L 55.717355 -89.604963 
L 54.701946 -90.60331 
L 53.909249 -91.601657 
L 53.338755 -92.600004 
L 52.982622 -93.598351 
L 52.83125 -94.596698 
L 52.877596 -95.595045 
L 53.119404 -96.593392 
L 53.559056 -97.591739 
L 54.201267 -98.590087 
L 55.049256 -99.588434 
L 56.100299 -100.586781 
L 57.341683 -101.585128 
L 58.747982 -102.583475 
L 60.280339 -103.581822 
L 61.888065 -104.580169 
L 63.512461 -105.578516 
L 65.092347 -106.576863 
L 66.570461 -107.57521 
L 67.899638 -108.573558 
L 69.047657 -109.571905 
L 69.999838 -110.570252 
L 70.758927 -111.568599 
L 71.342422 -112.566946 
L 71.778056 -113.565293 
L 72.098559 -114.56364 
L 72.336797 -115.561987 
L 72.522131 -116.560334 
L 72.678278 -117.558682 
L 72.822488 -118.557029 
L 72.965567 -119.555376 
L 73.11228 -120.553723 
L 73.261915 -121.55207 
L 73.409067 -122.550417 
L 73.54489 -123.548764 
L 73.658982 -124.547111 
L 73.741831 -125.545458 
L 73.787414 -126.543806 
L 73.795297 -127.542153 
L 73.77161 -128.5405 
L 73.728516 -129.538847 
L 73.682188 -130.537194 
L 73.649783 -131.535541 
L 73.646173 -132.533888 
L 73.681233 -133.532235 
L 73.758321 -134.530582 
L 73.874197 -135.528929 
L 74.020242 -136.527277 
L 74.184541 -137.525624 
L 74.354237 -138.523971 
L 74.517632 -139.522318 
L 74.665663 -140.520665 
L 74.792599 -141.519012 
L 74.89603 -142.517359 
L 74.976329 -143.515706 
L 75.035832 -144.514053 
L 75.077965 -145.512401 
L 75.224535 -145.512401 
L 75.224535 -145.512401 
L 75.266668 -144.514053 
L 75.326171 -143.515706 
L 75.40647 -142.517359 
L 75.509901 -141.519012 
L 75.636837 -140.520665 
L 75.784868 -139.522318 
L 75.948263 -138.523971 
L 76.117959 -137.525624 
L 76.282258 -136.527277 
L 76.428303 -135.528929 
L 76.544179 -134.530582 
L 76.621267 -133.532235 
L 76.656327 -132.533888 
L 76.652717 -131.535541 
L 76.620312 -130.537194 
L 76.573984 -129.538847 
L 76.53089 -128.5405 
L 76.507203 -127.542153 
L 76.515086 -126.543806 
L 76.560669 -125.545458 
L 76.643518 -124.547111 
L 76.75761 -123.548764 
L 76.893433 -122.550417 
L 77.040585 -121.55207 
L 77.19022 -120.553723 
L 77.336933 -119.555376 
L 77.480012 -118.557029 
L 77.624222 -117.558682 
L 77.780369 -116.560334 
L 77.965703 -115.561987 
L 78.203941 -114.56364 
L 78.524444 -113.565293 
L 78.960078 -112.566946 
L 79.543573 -111.568599 
L 80.302662 -110.570252 
L 81.254843 -109.571905 
L 82.402862 -108.573558 
L 83.732039 -107.57521 
L 85.210153 -106.576863 
L 86.790039 -105.578516 
L 88.414435 -104.580169 
L 90.022161 -103.581822 
L 91.554518 -102.583475 
L 92.960817 -101.585128 
L 94.202201 -100.586781 
L 95.253244 -99.588434 
L 96.101233 -98.590087 
L 96.743444 -97.591739 
L 97.183096 -96.593392 
L 97.424904 -95.595045 
L 97.47125 -94.596698 
L 97.319878 -93.598351 
L 96.963745 -92.600004 
L 96.393251 -91.601657 
L 95.600554 -90.60331 
L 94.585145 -89.604963 
L 93.359421 -88.606615 
L 91.952725 -87.608268 
L 90.412449 -86.609921 
L 88.801342 -85.611574 
L 87.191057 -84.613227 
L 85.65298 -83.61488 
L 84.248255 -82.616533 
L 83.019254 -81.618186 
L 81.984475 -80.619839 
L 81.138025 -79.621491 
L 80.453662 -78.623144 
L 79.892276 -77.624797 
L 79.410915 -76.62645 
L 78.971253 -75.628103 
L 78.545757 -74.629756 
L 78.120602 -73.631409 
L 77.695242 -72.633062 
L 77.279375 -71.634715 
L 76.888469 -70.636368 
L 76.539095 -69.63802 
L 76.245077 -68.639673 
L 76.015009 -67.641326 
L 75.851252 -66.642979 
L 75.750179 -65.644632 
L 75.703276 -64.646285 
L 75.698654 -63.647938 
L 75.722682 -62.649591 
L 75.761505 -61.651244 
L 75.802343 -60.652896 
L 75.834528 -59.654549 
L 75.850233 -58.656202 
L 75.844873 -57.657855 
L 75.81716 -56.659508 
L 75.768809 -55.661161 
L 75.703924 -54.662814 
L 75.62816 -53.664467 
L 75.547763 -52.66612 
L 75.468658 -51.667772 
L 75.395708 -50.669425 
L 75.332263 -49.671078 
L 75.280027 -48.672731 
L 75.239216 -47.674384 
L 75.20891 -46.676037 
z
" id="m4be55746ef" style="stroke:#757575;stroke-width:1.5;"/>
    </defs>
    <g clip-path="url(#pff1b7bf0e6)">
     <use style="fill:#97f0b4;stroke:#757575;stroke-width:1.5;" x="0" xlink:href="#m4be55746ef" y="172.389844"/>
    </g>
   </g>
   <g id="PolyCollection_2">
    <defs>
     <path d="M 131.048235 -49.779675 
L 130.854265 -49.779675 
L 130.7929 -49.936256 
L 130.706908 -50.092838 
L 130.594738 -50.249419 
L 130.459053 -50.406001 
L 130.307711 -50.562582 
L 130.153477 -50.719163 
L 130.012162 -50.875745 
L 129.899508 -51.032326 
L 129.827732 -51.188908 
L 129.802883 -51.345489 
L 129.823957 -51.50207 
L 129.88398 -51.658652 
L 129.972459 -51.815233 
L 130.078119 -51.971815 
L 130.190876 -52.128396 
L 130.302553 -52.284977 
L 130.406528 -52.441559 
L 130.496949 -52.59814 
L 130.568194 -52.754721 
L 130.614927 -52.911303 
L 130.632646 -53.067884 
L 130.618313 -53.224466 
L 130.570624 -53.381047 
L 130.489646 -53.537628 
L 130.375897 -53.69421 
L 130.229182 -53.850791 
L 130.047615 -54.007373 
L 129.82714 -54.163954 
L 129.561555 -54.320535 
L 129.242805 -54.477117 
L 128.861177 -54.633698 
L 128.405243 -54.79028 
L 127.861765 -54.946861 
L 127.216149 -55.103442 
L 126.454073 -55.260024 
L 125.564556 -55.416605 
L 124.544047 -55.573186 
L 123.400322 -55.729768 
L 122.154576 -55.886349 
L 120.840253 -56.042931 
L 119.498005 -56.199512 
L 118.167499 -56.356093 
L 116.878292 -56.512675 
L 115.64306 -56.669256 
L 114.456695 -56.825838 
L 113.303561 -56.982419 
L 112.17256 -57.139 
L 111.076035 -57.295582 
L 110.065453 -57.452163 
L 109.235932 -57.608745 
L 108.7143 -57.765326 
L 108.63125 -57.921907 
L 109.085011 -58.078489 
L 110.108744 -58.23507 
L 111.653701 -58.391652 
L 113.594813 -58.548233 
L 115.756967 -58.704814 
L 117.952693 -58.861396 
L 120.01879 -59.017977 
L 121.841488 -59.174558 
L 123.365551 -59.33114 
L 124.588905 -59.487721 
L 125.548231 -59.644303 
L 126.301637 -59.800884 
L 126.912774 -59.957465 
L 127.438592 -60.114047 
L 127.921377 -60.270628 
L 128.385128 -60.42721 
L 128.836105 -60.583791 
L 129.26693 -60.740372 
L 129.66294 -60.896954 
L 130.008901 -61.053535 
L 130.294247 -61.210117 
L 130.515686 -61.366698 
L 130.677083 -61.523279 
L 130.78739 -61.679861 
L 130.857825 -61.836442 
L 130.899313 -61.993023 
L 130.92078 -62.149605 
L 130.928399 -62.306186 
L 130.925614 -62.462768 
L 130.913675 -62.619349 
L 130.892468 -62.77593 
L 130.861518 -62.932512 
L 130.821036 -63.089093 
L 130.77282 -63.245675 
L 130.720756 -63.402256 
L 130.670673 -63.558837 
L 130.629438 -63.715419 
L 130.603473 -63.872 
L 130.597136 -64.028582 
L 130.611524 -64.185163 
L 130.644165 -64.341744 
L 130.689714 -64.498326 
L 130.741381 -64.654907 
L 130.792575 -64.811488 
L 130.838215 -64.96807 
L 130.875381 -65.124651 
L 130.903271 -65.281233 
L 130.999229 -65.281233 
L 130.999229 -65.281233 
L 131.027119 -65.124651 
L 131.064285 -64.96807 
L 131.109925 -64.811488 
L 131.161119 -64.654907 
L 131.212786 -64.498326 
L 131.258335 -64.341744 
L 131.290976 -64.185163 
L 131.305364 -64.028582 
L 131.299027 -63.872 
L 131.273062 -63.715419 
L 131.231827 -63.558837 
L 131.181744 -63.402256 
L 131.12968 -63.245675 
L 131.081464 -63.089093 
L 131.040982 -62.932512 
L 131.010032 -62.77593 
L 130.988825 -62.619349 
L 130.976886 -62.462768 
L 130.974101 -62.306186 
L 130.98172 -62.149605 
L 131.003187 -61.993023 
L 131.044675 -61.836442 
L 131.11511 -61.679861 
L 131.225417 -61.523279 
L 131.386814 -61.366698 
L 131.608253 -61.210117 
L 131.893599 -61.053535 
L 132.23956 -60.896954 
L 132.63557 -60.740372 
L 133.066395 -60.583791 
L 133.517372 -60.42721 
L 133.981123 -60.270628 
L 134.463908 -60.114047 
L 134.989726 -59.957465 
L 135.600863 -59.800884 
L 136.354269 -59.644303 
L 137.313595 -59.487721 
L 138.536949 -59.33114 
L 140.061012 -59.174558 
L 141.88371 -59.017977 
L 143.949807 -58.861396 
L 146.145533 -58.704814 
L 148.307687 -58.548233 
L 150.248799 -58.391652 
L 151.793756 -58.23507 
L 152.817489 -58.078489 
L 153.27125 -57.921907 
L 153.1882 -57.765326 
L 152.666568 -57.608745 
L 151.837047 -57.452163 
L 150.826465 -57.295582 
L 149.72994 -57.139 
L 148.598939 -56.982419 
L 147.445805 -56.825838 
L 146.25944 -56.669256 
L 145.024208 -56.512675 
L 143.735001 -56.356093 
L 142.404495 -56.199512 
L 141.062247 -56.042931 
L 139.747924 -55.886349 
L 138.502178 -55.729768 
L 137.358453 -55.573186 
L 136.337944 -55.416605 
L 135.448427 -55.260024 
L 134.686351 -55.103442 
L 134.040735 -54.946861 
L 133.497257 -54.79028 
L 133.041323 -54.633698 
L 132.659695 -54.477117 
L 132.340945 -54.320535 
L 132.07536 -54.163954 
L 131.854885 -54.007373 
L 131.673318 -53.850791 
L 131.526603 -53.69421 
L 131.412854 -53.537628 
L 131.331876 -53.381047 
L 131.284187 -53.224466 
L 131.269854 -53.067884 
L 131.287573 -52.911303 
L 131.334306 -52.754721 
L 131.405551 -52.59814 
L 131.495972 -52.441559 
L 131.599947 -52.284977 
L 131.711624 -52.128396 
L 131.824381 -51.971815 
L 131.930041 -51.815233 
L 132.01852 -51.658652 
L 132.078543 -51.50207 
L 132.099617 -51.345489 
L 132.074768 -51.188908 
L 132.002992 -51.032326 
L 131.890338 -50.875745 
L 131.749023 -50.719163 
L 131.594789 -50.562582 
L 131.443447 -50.406001 
L 131.307762 -50.249419 
L 131.195592 -50.092838 
L 131.1096 -49.936256 
L 131.048235 -49.779675 
z
" id="m75a1b405a5" style="stroke:#757575;stroke-width:1.5;"/>
    </defs>
    <g clip-path="url(#pff1b7bf0e6)">
     <use style="fill:#97f0b4;stroke:#757575;stroke-width:1.5;" x="0" xlink:href="#m75a1b405a5" y="172.389844"/>
    </g>
   </g>
   <g id="PolyCollection_3">
    <defs>
     <path d="M 186.79021 -50.49093 
L 186.71229 -50.49093 
L 186.690607 -50.53278 
L 186.661012 -50.574629 
L 186.622789 -50.616479 
L 186.576151 -50.658329 
L 186.522511 -50.700178 
L 186.464556 -50.742028 
L 186.406036 -50.783878 
L 186.351284 -50.825727 
L 186.304505 -50.867577 
L 186.269038 -50.909427 
L 186.246742 -50.951276 
L 186.237709 -50.993126 
L 186.240383 -51.034976 
L 186.252062 -51.076825 
L 186.269644 -51.118675 
L 186.290365 -51.160525 
L 186.312294 -51.202374 
L 186.334439 -51.244224 
L 186.356429 -51.286074 
L 186.377965 -51.327923 
L 186.398271 -51.369773 
L 186.415809 -51.411623 
L 186.428349 -51.453472 
L 186.433324 -51.495322 
L 186.428216 -51.537172 
L 186.410642 -51.579021 
L 186.377914 -51.620871 
L 186.325966 -51.662721 
L 186.247776 -51.70457 
L 186.13153 -51.74642 
L 185.958839 -51.78827 
L 185.703344 -51.830119 
L 185.330067 -51.871969 
L 184.795989 -51.913819 
L 184.052485 -51.955668 
L 183.050316 -51.997518 
L 181.747639 -52.039368 
L 180.120754 -52.081217 
L 178.176201 -52.123067 
L 175.961528 -52.164917 
L 173.571294 -52.206766 
L 171.145089 -52.248616 
L 168.855853 -52.290466 
L 166.889253 -52.332315 
L 165.417638 -52.374165 
L 164.573927 -52.416015 
L 164.43125 -52.457864 
L 164.992692 -52.499714 
L 166.192973 -52.541564 
L 167.910926 -52.583413 
L 169.98937 -52.625263 
L 172.257896 -52.667113 
L 174.55422 -52.708962 
L 176.740894 -52.750812 
L 178.71564 -52.792662 
L 180.415093 -52.834511 
L 181.81288 -52.876361 
L 182.913679 -52.918211 
L 183.745095 -52.96006 
L 184.349028 -53.00191 
L 184.773723 -53.04376 
L 185.067206 -53.085609 
L 185.272343 -53.127459 
L 185.42354 -53.169309 
L 185.544993 -53.211158 
L 185.65043 -53.253008 
L 185.744223 -53.294858 
L 185.823661 -53.336707 
L 185.881974 -53.378557 
L 185.911538 -53.420407 
L 185.906633 -53.462256 
L 185.865241 -53.504106 
L 185.789645 -53.545956 
L 185.685943 -53.587805 
L 185.562887 -53.629655 
L 185.430576 -53.671505 
L 185.299413 -53.713354 
L 185.179497 -53.755204 
L 185.080265 -53.797054 
L 185.010113 -53.838903 
L 184.975736 -53.880753 
L 184.981245 -53.922603 
L 185.027335 -53.964452 
L 185.110951 -54.006302 
L 185.225714 -54.048152 
L 185.36308 -54.090001 
L 185.513874 -54.131851 
L 185.669705 -54.173701 
L 185.823837 -54.21555 
L 185.9714 -54.2574 
L 186.109075 -54.29925 
L 186.234587 -54.341099 
L 186.346289 -54.382949 
L 186.443013 -54.424799 
L 186.524134 -54.466648 
L 186.589726 -54.508498 
L 186.640652 -54.550348 
L 186.678497 -54.592197 
L 186.705352 -54.634047 
L 186.797148 -54.634047 
L 186.797148 -54.634047 
L 186.824003 -54.592197 
L 186.861848 -54.550348 
L 186.912774 -54.508498 
L 186.978366 -54.466648 
L 187.059487 -54.424799 
L 187.156211 -54.382949 
L 187.267913 -54.341099 
L 187.393425 -54.29925 
L 187.5311 -54.2574 
L 187.678663 -54.21555 
L 187.832795 -54.173701 
L 187.988626 -54.131851 
L 188.13942 -54.090001 
L 188.276786 -54.048152 
L 188.391549 -54.006302 
L 188.475165 -53.964452 
L 188.521255 -53.922603 
L 188.526764 -53.880753 
L 188.492387 -53.838903 
L 188.422235 -53.797054 
L 188.323003 -53.755204 
L 188.203087 -53.713354 
L 188.071924 -53.671505 
L 187.939613 -53.629655 
L 187.816557 -53.587805 
L 187.712855 -53.545956 
L 187.637259 -53.504106 
L 187.595867 -53.462256 
L 187.590962 -53.420407 
L 187.620526 -53.378557 
L 187.678839 -53.336707 
L 187.758277 -53.294858 
L 187.85207 -53.253008 
L 187.957507 -53.211158 
L 188.07896 -53.169309 
L 188.230157 -53.127459 
L 188.435294 -53.085609 
L 188.728777 -53.04376 
L 189.153472 -53.00191 
L 189.757405 -52.96006 
L 190.588821 -52.918211 
L 191.68962 -52.876361 
L 193.087407 -52.834511 
L 194.78686 -52.792662 
L 196.761606 -52.750812 
L 198.94828 -52.708962 
L 201.244604 -52.667113 
L 203.51313 -52.625263 
L 205.591574 -52.583413 
L 207.309527 -52.541564 
L 208.509808 -52.499714 
L 209.07125 -52.457864 
L 208.928573 -52.416015 
L 208.084862 -52.374165 
L 206.613247 -52.332315 
L 204.646647 -52.290466 
L 202.357411 -52.248616 
L 199.931206 -52.206766 
L 197.540972 -52.164917 
L 195.326299 -52.123067 
L 193.381746 -52.081217 
L 191.754861 -52.039368 
L 190.452184 -51.997518 
L 189.450015 -51.955668 
L 188.706511 -51.913819 
L 188.172433 -51.871969 
L 187.799156 -51.830119 
L 187.543661 -51.78827 
L 187.37097 -51.74642 
L 187.254724 -51.70457 
L 187.176534 -51.662721 
L 187.124586 -51.620871 
L 187.091858 -51.579021 
L 187.074284 -51.537172 
L 187.069176 -51.495322 
L 187.074151 -51.453472 
L 187.086691 -51.411623 
L 187.104229 -51.369773 
L 187.124535 -51.327923 
L 187.146071 -51.286074 
L 187.168061 -51.244224 
L 187.190206 -51.202374 
L 187.212135 -51.160525 
L 187.232856 -51.118675 
L 187.250438 -51.076825 
L 187.262117 -51.034976 
L 187.264791 -50.993126 
L 187.255758 -50.951276 
L 187.233462 -50.909427 
L 187.197995 -50.867577 
L 187.151216 -50.825727 
L 187.096464 -50.783878 
L 187.037944 -50.742028 
L 186.979989 -50.700178 
L 186.926349 -50.658329 
L 186.879711 -50.616479 
L 186.841488 -50.574629 
L 186.811893 -50.53278 
L 186.79021 -50.49093 
z
" id="m9827d60fb1" style="stroke:#757575;stroke-width:1.5;"/>
    </defs>
    <g clip-path="url(#pff1b7bf0e6)">
     <use style="fill:#97f0b4;stroke:#757575;stroke-width:1.5;" x="0" xlink:href="#m9827d60fb1" y="172.389844"/>
    </g>
   </g>
   <g id="patch_3">
    <path clip-path="url(#pff1b7bf0e6)" d="M 75.15125 121.601251 
L 75.15125 121.601251 
L 75.15125 121.601251 
L 75.15125 121.601251 
z
" style="fill:#97f0b4;stroke:#757575;stroke-linejoin:miter;stroke-width:0.75;"/>
   </g>
   <g id="patch_4">
    <path clip-path="url(#pff1b7bf0e6)" d="M 75.15125 121.601251 
L 75.15125 121.601251 
L 75.15125 121.601251 
L 75.15125 121.601251 
z
" style="fill:#97f0b4;stroke:#757575;stroke-linejoin:miter;stroke-width:0.75;"/>
   </g>
   <g id="patch_5">
    <path clip-path="url(#pff1b7bf0e6)" d="M 75.15125 121.601251 
L 75.15125 121.601251 
L 75.15125 121.601251 
L 75.15125 121.601251 
z
" style="fill:#97f0b4;stroke:#757575;stroke-linejoin:miter;stroke-width:0.75;"/>
   </g>
   <g id="patch_6">
    <path d="M 47.25125 130.655625 
L 47.25125 21.935625 
" style="fill:none;stroke:#cccccc;stroke-linecap:square;stroke-linejoin:miter;stroke-width:1.25;"/>
   </g>
   <g id="patch_7">
    <path d="M 214.65125 130.655625 
L 214.65125 21.935625 
" style="fill:none;stroke:#cccccc;stroke-linecap:square;stroke-linejoin:miter;stroke-width:1.25;"/>
   </g>
   <g id="patch_8">
    <path d="M 47.25125 130.655625 
L 214.65125 130.655625 
" style="fill:none;stroke:#cccccc;stroke-linecap:square;stroke-linejoin:miter;stroke-width:1.25;"/>
   </g>
   <g id="patch_9">
    <path d="M 47.25125 21.935625 
L 214.65125 21.935625 
" style="fill:none;stroke:#cccccc;stroke-linecap:square;stroke-linejoin:miter;stroke-width:1.25;"/>
   </g>
   <g id="text_10">
    <!-- Violin Plot: Sheet1_Max -->
    <g style="fill:#262626;" transform="translate(67.355938 15.935625)scale(0.12 -0.12)">
     <defs>
      <path d="M 28.171875 0 
L 0.4375 71.578125 
L 10.6875 71.578125 
L 29.296875 19.578125 
Q 31.546875 13.328125 33.0625 7.859375 
Q 34.71875 13.71875 36.921875 19.578125 
L 56.25 71.578125 
L 65.921875 71.578125 
L 37.890625 0 
z
" id="ArialMT-86"/>
      <path d="M 6.390625 0 
L 6.390625 71.578125 
L 15.1875 71.578125 
L 15.1875 0 
z
" id="ArialMT-108"/>
      <path d="M 7.71875 0 
L 7.71875 71.578125 
L 34.71875 71.578125 
Q 41.84375 71.578125 45.609375 70.90625 
Q 50.875 70.015625 54.4375 67.546875 
Q 58.015625 65.09375 60.1875 60.640625 
Q 62.359375 56.203125 62.359375 50.875 
Q 62.359375 41.75 56.546875 35.421875 
Q 50.734375 29.109375 35.546875 29.109375 
L 17.1875 29.109375 
L 17.1875 0 
z
M 17.1875 37.546875 
L 35.6875 37.546875 
Q 44.875 37.546875 48.734375 40.96875 
Q 52.59375 44.390625 52.59375 50.59375 
Q 52.59375 55.078125 50.3125 58.265625 
Q 48.046875 61.46875 44.34375 62.5 
Q 41.9375 63.140625 35.5 63.140625 
L 17.1875 63.140625 
z
" id="ArialMT-80"/>
      <path d="M 9.03125 41.84375 
L 9.03125 51.859375 
L 19.046875 51.859375 
L 19.046875 41.84375 
z
M 9.03125 0 
L 9.03125 10.015625 
L 19.046875 10.015625 
L 19.046875 0 
z
" id="ArialMT-58"/>
      <path d="M 4.5 23 
L 13.421875 23.78125 
Q 14.0625 18.40625 16.375 14.96875 
Q 18.703125 11.53125 23.578125 9.40625 
Q 28.46875 7.28125 34.578125 7.28125 
Q 39.984375 7.28125 44.140625 8.890625 
Q 48.296875 10.5 50.3125 13.296875 
Q 52.34375 16.109375 52.34375 19.4375 
Q 52.34375 22.796875 50.390625 25.3125 
Q 48.4375 27.828125 43.953125 29.546875 
Q 41.0625 30.671875 31.203125 33.03125 
Q 21.34375 35.40625 17.390625 37.5 
Q 12.25 40.1875 9.734375 44.15625 
Q 7.234375 48.140625 7.234375 53.078125 
Q 7.234375 58.5 10.296875 63.203125 
Q 13.375 67.921875 19.28125 70.359375 
Q 25.203125 72.796875 32.421875 72.796875 
Q 40.375 72.796875 46.453125 70.234375 
Q 52.546875 67.671875 55.8125 62.6875 
Q 59.078125 57.71875 59.328125 51.421875 
L 50.25 50.734375 
Q 49.515625 57.515625 45.28125 60.984375 
Q 41.0625 64.453125 32.8125 64.453125 
Q 24.21875 64.453125 20.28125 61.296875 
Q 16.359375 58.15625 16.359375 53.71875 
Q 16.359375 49.859375 19.140625 47.359375 
Q 21.875 44.875 33.421875 42.265625 
Q 44.96875 39.65625 49.265625 37.703125 
Q 55.515625 34.8125 58.484375 30.390625 
Q 61.46875 25.984375 61.46875 20.21875 
Q 61.46875 14.5 58.203125 9.4375 
Q 54.9375 4.390625 48.796875 1.578125 
Q 42.671875 -1.21875 35.015625 -1.21875 
Q 25.296875 -1.21875 18.71875 1.609375 
Q 12.15625 4.4375 8.421875 10.125 
Q 4.6875 15.828125 4.5 23 
z
" id="ArialMT-83"/>
      <path d="M 6.59375 0 
L 6.59375 71.578125 
L 15.375 71.578125 
L 15.375 45.90625 
Q 21.53125 53.03125 30.90625 53.03125 
Q 36.671875 53.03125 40.921875 50.75 
Q 45.171875 48.484375 47 44.484375 
Q 48.828125 40.484375 48.828125 32.859375 
L 48.828125 0 
L 40.046875 0 
L 40.046875 32.859375 
Q 40.046875 39.453125 37.1875 42.453125 
Q 34.328125 45.453125 29.109375 45.453125 
Q 25.203125 45.453125 21.75 43.421875 
Q 18.3125 41.40625 16.84375 37.9375 
Q 15.375 34.46875 15.375 28.375 
L 15.375 0 
z
" id="ArialMT-104"/>
      <path d="M 42.09375 16.703125 
L 51.171875 15.578125 
Q 49.03125 7.625 43.21875 3.21875 
Q 37.40625 -1.171875 28.375 -1.171875 
Q 17 -1.171875 10.328125 5.828125 
Q 3.65625 12.84375 3.65625 25.484375 
Q 3.65625 38.578125 10.390625 45.796875 
Q 17.140625 53.03125 27.875 53.03125 
Q 38.28125 53.03125 44.875 45.953125 
Q 51.46875 38.875 51.46875 26.03125 
Q 51.46875 25.25 51.421875 23.6875 
L 12.75 23.6875 
Q 13.234375 15.140625 17.578125 10.59375 
Q 21.921875 6.0625 28.421875 6.0625 
Q 33.25 6.0625 36.671875 8.59375 
Q 40.09375 11.140625 42.09375 16.703125 
z
M 13.234375 30.90625 
L 42.1875 30.90625 
Q 41.609375 37.453125 38.875 40.71875 
Q 34.671875 45.796875 27.984375 45.796875 
Q 21.921875 45.796875 17.796875 41.75 
Q 13.671875 37.703125 13.234375 30.90625 
z
" id="ArialMT-101"/>
      <path d="M -1.515625 -19.875 
L -1.515625 -13.53125 
L 56.734375 -13.53125 
L 56.734375 -19.875 
z
" id="ArialMT-95"/>
      <path d="M 0.734375 0 
L 19.671875 26.953125 
L 2.15625 51.859375 
L 13.140625 51.859375 
L 21.09375 39.703125 
Q 23.34375 36.234375 24.703125 33.890625 
Q 26.859375 37.109375 28.65625 39.59375 
L 37.40625 51.859375 
L 47.90625 51.859375 
L 29.984375 27.4375 
L 49.265625 0 
L 38.484375 0 
L 27.828125 16.109375 
L 25 20.453125 
L 11.375 0 
z
" id="ArialMT-120"/>
     </defs>
     <use xlink:href="#ArialMT-86"/>
     <use x="64.949219" xlink:href="#ArialMT-105"/>
     <use x="87.166016" xlink:href="#ArialMT-111"/>
     <use x="142.78125" xlink:href="#ArialMT-108"/>
     <use x="164.998047" xlink:href="#ArialMT-105"/>
     <use x="187.214844" xlink:href="#ArialMT-110"/>
     <use x="242.830078" xlink:href="#ArialMT-32"/>
     <use x="270.613281" xlink:href="#ArialMT-80"/>
     <use x="337.3125" xlink:href="#ArialMT-108"/>
     <use x="359.529297" xlink:href="#ArialMT-111"/>
     <use x="415.144531" xlink:href="#ArialMT-116"/>
     <use x="442.927734" xlink:href="#ArialMT-58"/>
     <use x="470.710938" xlink:href="#ArialMT-32"/>
     <use x="498.494141" xlink:href="#ArialMT-83"/>
     <use x="565.193359" xlink:href="#ArialMT-104"/>
     <use x="620.808594" xlink:href="#ArialMT-101"/>
     <use x="676.423828" xlink:href="#ArialMT-101"/>
     <use x="732.039062" xlink:href="#ArialMT-116"/>
     <use x="759.822266" xlink:href="#ArialMT-49"/>
     <use x="815.4375" xlink:href="#ArialMT-95"/>
     <use x="871.052734" xlink:href="#ArialMT-77"/>
     <use x="954.353516" xlink:href="#ArialMT-97"/>
     <use x="1009.96875" xlink:href="#ArialMT-120"/>
    </g>
   </g>
   <g id="legend_1">
    <g id="patch_10">
     <path d="M 162.588594 93.889531 
L 206.95125 93.889531 
Q 209.15125 93.889531 209.15125 91.689531 
L 209.15125 29.635625 
Q 209.15125 27.435625 206.95125 27.435625 
L 162.588594 27.435625 
Q 160.388594 27.435625 160.388594 29.635625 
L 160.388594 91.689531 
Q 160.388594 93.889531 162.588594 93.889531 
z
" style="fill:#ffffff;opacity:0.8;stroke:#cccccc;stroke-linejoin:miter;"/>
    </g>
    <g id="text_11">
     <!-- Labels -->
     <g style="fill:#262626;" transform="translate(167.090547 40.425)scale(0.12 -0.12)">
      <defs>
       <path d="M 14.703125 0 
L 6.546875 0 
L 6.546875 71.578125 
L 15.328125 71.578125 
L 15.328125 46.046875 
Q 20.90625 53.03125 29.546875 53.03125 
Q 34.328125 53.03125 38.59375 51.09375 
Q 42.875 49.171875 45.625 45.671875 
Q 48.390625 42.1875 49.953125 37.25 
Q 51.515625 32.328125 51.515625 26.703125 
Q 51.515625 13.375 44.921875 6.09375 
Q 38.328125 -1.171875 29.109375 -1.171875 
Q 19.921875 -1.171875 14.703125 6.5 
z
M 14.59375 26.3125 
Q 14.59375 17 17.140625 12.84375 
Q 21.296875 6.0625 28.375 6.0625 
Q 34.125 6.0625 38.328125 11.0625 
Q 42.53125 16.0625 42.53125 25.984375 
Q 42.53125 36.140625 38.5 40.96875 
Q 34.46875 45.796875 28.765625 45.796875 
Q 23 45.796875 18.796875 40.796875 
Q 14.59375 35.796875 14.59375 26.3125 
z
" id="ArialMT-98"/>
       <path d="M 3.078125 15.484375 
L 11.765625 16.84375 
Q 12.5 11.625 15.84375 8.84375 
Q 19.1875 6.0625 25.203125 6.0625 
Q 31.25 6.0625 34.171875 8.515625 
Q 37.109375 10.984375 37.109375 14.3125 
Q 37.109375 17.28125 34.515625 19 
Q 32.71875 20.171875 25.53125 21.96875 
Q 15.875 24.421875 12.140625 26.203125 
Q 8.40625 27.984375 6.46875 31.125 
Q 4.546875 34.28125 4.546875 38.09375 
Q 4.546875 41.546875 6.125 44.5 
Q 7.71875 47.46875 10.453125 49.421875 
Q 12.5 50.921875 16.03125 51.96875 
Q 19.578125 53.03125 23.640625 53.03125 
Q 29.734375 53.03125 34.34375 51.265625 
Q 38.96875 49.515625 41.15625 46.5 
Q 43.359375 43.5 44.1875 38.484375 
L 35.59375 37.3125 
Q 35.015625 41.3125 32.203125 43.546875 
Q 29.390625 45.796875 24.265625 45.796875 
Q 18.21875 45.796875 15.625 43.796875 
Q 13.03125 41.796875 13.03125 39.109375 
Q 13.03125 37.40625 14.109375 36.03125 
Q 15.1875 34.625 17.484375 33.6875 
Q 18.796875 33.203125 25.25 31.453125 
Q 34.578125 28.953125 38.25 27.359375 
Q 41.9375 25.78125 44.03125 22.75 
Q 46.140625 19.734375 46.140625 15.234375 
Q 46.140625 10.84375 43.578125 6.953125 
Q 41.015625 3.078125 36.171875 0.953125 
Q 31.34375 -1.171875 25.25 -1.171875 
Q 15.140625 -1.171875 9.84375 3.03125 
Q 4.546875 7.234375 3.078125 15.484375 
z
" id="ArialMT-115"/>
      </defs>
      <use xlink:href="#ArialMT-76"/>
      <use x="55.615234" xlink:href="#ArialMT-97"/>
      <use x="111.230469" xlink:href="#ArialMT-98"/>
      <use x="166.845703" xlink:href="#ArialMT-101"/>
      <use x="222.460938" xlink:href="#ArialMT-108"/>
      <use x="244.677734" xlink:href="#ArialMT-115"/>
     </g>
    </g>
    <g id="patch_11">
     <path d="M 164.788594 56.183594 
L 186.788594 56.183594 
L 186.788594 48.483594 
L 164.788594 48.483594 
z
" style="fill:#97f0b4;stroke:#757575;stroke-linejoin:miter;stroke-width:0.75;"/>
    </g>
    <g id="text_12">
     <!-- L -->
     <g style="fill:#262626;" transform="translate(195.588594 56.183594)scale(0.11 -0.11)">
      <use xlink:href="#ArialMT-76"/>
     </g>
    </g>
    <g id="patch_12">
     <path d="M 164.788594 71.743437 
L 186.788594 71.743437 
L 186.788594 64.043437 
L 164.788594 64.043437 
z
" style="fill:#97f0b4;stroke:#757575;stroke-linejoin:miter;stroke-width:0.75;"/>
    </g>
    <g id="text_13">
     <!-- M -->
     <g style="fill:#262626;" transform="translate(195.588594 71.743437)scale(0.11 -0.11)">
      <use xlink:href="#ArialMT-77"/>
     </g>
    </g>
    <g id="patch_13">
     <path d="M 164.788594 87.303281 
L 186.788594 87.303281 
L 186.788594 79.603281 
L 164.788594 79.603281 
z
" style="fill:#97f0b4;stroke:#757575;stroke-linejoin:miter;stroke-width:0.75;"/>
    </g>
    <g id="text_14">
     <!-- H -->
     <g style="fill:#262626;" transform="translate(195.588594 87.303281)scale(0.11 -0.11)">
      <use xlink:href="#ArialMT-72"/>
     </g>
    </g>
   </g>
  </g>
 </g>
 <defs>
  <clipPath id="pff1b7bf0e6">
   <rect height="108.72" width="167.4" x="47.25125" y="21.935625"/>
  </clipPath>
 </defs>
</svg>
