<?xml version="1.0" encoding="utf-8" standalone="no"?>
<!DOCTYPE svg PUBLIC "-//W3C//DTD SVG 1.1//EN"
  "http://www.w3.org/Graphics/SVG/1.1/DTD/svg11.dtd">
<!-- Created with matplotlib (https://matplotlib.org/) -->
<svg height="172.389844pt" version="1.1" viewBox="0 0 227.968281 172.389844" width="227.968281pt" xmlns="http://www.w3.org/2000/svg" xmlns:xlink="http://www.w3.org/1999/xlink">
 <metadata>
  <rdf:RDF xmlns:cc="http://creativecommons.org/ns#" xmlns:dc="http://purl.org/dc/elements/1.1/" xmlns:rdf="http://www.w3.org/1999/02/22-rdf-syntax-ns#">
   <cc:Work>
    <dc:type rdf:resource="http://purl.org/dc/dcmitype/StillImage"/>
    <dc:date>2024-06-05T15:13:44.848627</dc:date>
    <dc:format>image/svg+xml</dc:format>
    <dc:creator>
     <cc:Agent>
      <dc:title>Matplotlib v3.3.2, https://matplotlib.org/</dc:title>
     </cc:Agent>
    </dc:creator>
   </cc:Work>
  </rdf:RDF>
 </metadata>
 <defs>
  <style type="text/css">*{stroke-linecap:butt;stroke-linejoin:round;}</style>
 </defs>
 <g id="figure_1">
  <g id="patch_1">
   <path d="M 0 172.389844 
L 227.968281 172.389844 
L 227.968281 0 
L 0 0 
z
" style="fill:#ffffff;"/>
  </g>
  <g id="axes_1">
   <g id="patch_2">
    <path d="M 53.368281 130.655625 
L 220.768281 130.655625 
L 220.768281 21.935625 
L 53.368281 21.935625 
z
" style="fill:#ffffff;"/>
   </g>
   <g id="matplotlib.axis_1">
    <g id="xtick_1">
     <g id="text_1">
      <!-- H -->
      <g style="fill:#262626;" transform="translate(77.29625 148.029219)scale(0.11 -0.11)">
       <defs>
        <path d="M 8.015625 0 
L 8.015625 71.578125 
L 17.484375 71.578125 
L 17.484375 42.1875 
L 54.6875 42.1875 
L 54.6875 71.578125 
L 64.15625 71.578125 
L 64.15625 0 
L 54.6875 0 
L 54.6875 33.734375 
L 17.484375 33.734375 
L 17.484375 0 
z
" id="ArialMT-72"/>
       </defs>
       <use xlink:href="#ArialMT-72"/>
      </g>
     </g>
    </g>
    <g id="xtick_2">
     <g id="text_2">
      <!-- M -->
      <g style="fill:#262626;" transform="translate(132.486953 148.029219)scale(0.11 -0.11)">
       <defs>
        <path d="M 7.421875 0 
L 7.421875 71.578125 
L 21.6875 71.578125 
L 38.625 20.90625 
Q 40.96875 13.8125 42.046875 10.296875 
Q 43.265625 14.203125 45.84375 21.78125 
L 62.984375 71.578125 
L 75.734375 71.578125 
L 75.734375 0 
L 66.609375 0 
L 66.609375 59.90625 
L 45.796875 0 
L 37.25 0 
L 16.546875 60.9375 
L 16.546875 0 
z
" id="ArialMT-77"/>
       </defs>
       <use xlink:href="#ArialMT-77"/>
      </g>
     </g>
    </g>
    <g id="xtick_3">
     <g id="text_3">
      <!-- L -->
      <g style="fill:#262626;" transform="translate(189.809766 148.029219)scale(0.11 -0.11)">
       <defs>
        <path d="M 7.328125 0 
L 7.328125 71.578125 
L 16.796875 71.578125 
L 16.796875 8.453125 
L 52.046875 8.453125 
L 52.046875 0 
z
" id="ArialMT-76"/>
       </defs>
       <use xlink:href="#ArialMT-76"/>
      </g>
     </g>
    </g>
    <g id="text_4">
     <!-- NaF Condition -->
     <g style="fill:#262626;" transform="translate(98.717969 162.804844)scale(0.12 -0.12)">
      <defs>
       <path d="M 7.625 0 
L 7.625 71.578125 
L 17.328125 71.578125 
L 54.9375 15.375 
L 54.9375 71.578125 
L 64.015625 71.578125 
L 64.015625 0 
L 54.296875 0 
L 16.703125 56.25 
L 16.703125 0 
z
" id="ArialMT-78"/>
       <path d="M 40.4375 6.390625 
Q 35.546875 2.25 31.03125 0.53125 
Q 26.515625 -1.171875 21.34375 -1.171875 
Q 12.796875 -1.171875 8.203125 3 
Q 3.609375 7.171875 3.609375 13.671875 
Q 3.609375 17.484375 5.34375 20.625 
Q 7.078125 23.78125 9.890625 25.6875 
Q 12.703125 27.59375 16.21875 28.5625 
Q 18.796875 29.25 24.03125 29.890625 
Q 34.671875 31.15625 39.703125 32.90625 
Q 39.75 34.71875 39.75 35.203125 
Q 39.75 40.578125 37.25 42.78125 
Q 33.890625 45.75 27.25 45.75 
Q 21.046875 45.75 18.09375 43.578125 
Q 15.140625 41.40625 13.71875 35.890625 
L 5.125 37.0625 
Q 6.296875 42.578125 8.984375 45.96875 
Q 11.671875 49.359375 16.75 51.1875 
Q 21.828125 53.03125 28.515625 53.03125 
Q 35.15625 53.03125 39.296875 51.46875 
Q 43.453125 49.90625 45.40625 47.53125 
Q 47.359375 45.171875 48.140625 41.546875 
Q 48.578125 39.3125 48.578125 33.453125 
L 48.578125 21.734375 
Q 48.578125 9.46875 49.140625 6.21875 
Q 49.703125 2.984375 51.375 0 
L 42.1875 0 
Q 40.828125 2.734375 40.4375 6.390625 
z
M 39.703125 26.03125 
Q 34.90625 24.078125 25.34375 22.703125 
Q 19.921875 21.921875 17.671875 20.9375 
Q 15.4375 19.96875 14.203125 18.09375 
Q 12.984375 16.21875 12.984375 13.921875 
Q 12.984375 10.40625 15.640625 8.0625 
Q 18.3125 5.71875 23.4375 5.71875 
Q 28.515625 5.71875 32.46875 7.9375 
Q 36.421875 10.15625 38.28125 14.015625 
Q 39.703125 17 39.703125 22.796875 
z
" id="ArialMT-97"/>
       <path d="M 8.203125 0 
L 8.203125 71.578125 
L 56.5 71.578125 
L 56.5 63.140625 
L 17.671875 63.140625 
L 17.671875 40.96875 
L 51.265625 40.96875 
L 51.265625 32.515625 
L 17.671875 32.515625 
L 17.671875 0 
z
" id="ArialMT-70"/>
       <path id="ArialMT-32"/>
       <path d="M 58.796875 25.09375 
L 68.265625 22.703125 
Q 65.28125 11.03125 57.546875 4.90625 
Q 49.8125 -1.21875 38.625 -1.21875 
Q 27.046875 -1.21875 19.796875 3.484375 
Q 12.546875 8.203125 8.765625 17.140625 
Q 4.984375 26.078125 4.984375 36.328125 
Q 4.984375 47.515625 9.25 55.828125 
Q 13.53125 64.15625 21.40625 68.46875 
Q 29.296875 72.796875 38.765625 72.796875 
Q 49.515625 72.796875 56.828125 67.328125 
Q 64.15625 61.859375 67.046875 51.953125 
L 57.71875 49.75 
Q 55.21875 57.5625 50.484375 61.125 
Q 45.75 64.703125 38.578125 64.703125 
Q 30.328125 64.703125 24.78125 60.734375 
Q 19.234375 56.78125 16.984375 50.109375 
Q 14.75 43.453125 14.75 36.375 
Q 14.75 27.25 17.40625 20.4375 
Q 20.0625 13.625 25.671875 10.25 
Q 31.296875 6.890625 37.84375 6.890625 
Q 45.796875 6.890625 51.3125 11.46875 
Q 56.84375 16.0625 58.796875 25.09375 
z
" id="ArialMT-67"/>
       <path d="M 3.328125 25.921875 
Q 3.328125 40.328125 11.328125 47.265625 
Q 18.015625 53.03125 27.640625 53.03125 
Q 38.328125 53.03125 45.109375 46.015625 
Q 51.90625 39.015625 51.90625 26.65625 
Q 51.90625 16.65625 48.90625 10.90625 
Q 45.90625 5.171875 40.15625 2 
Q 34.421875 -1.171875 27.640625 -1.171875 
Q 16.75 -1.171875 10.03125 5.8125 
Q 3.328125 12.796875 3.328125 25.921875 
z
M 12.359375 25.921875 
Q 12.359375 15.96875 16.703125 11.015625 
Q 21.046875 6.0625 27.640625 6.0625 
Q 34.1875 6.0625 38.53125 11.03125 
Q 42.875 16.015625 42.875 26.21875 
Q 42.875 35.84375 38.5 40.796875 
Q 34.125 45.75 27.640625 45.75 
Q 21.046875 45.75 16.703125 40.8125 
Q 12.359375 35.890625 12.359375 25.921875 
z
" id="ArialMT-111"/>
       <path d="M 6.59375 0 
L 6.59375 51.859375 
L 14.5 51.859375 
L 14.5 44.484375 
Q 20.21875 53.03125 31 53.03125 
Q 35.6875 53.03125 39.625 51.34375 
Q 43.5625 49.65625 45.515625 46.921875 
Q 47.46875 44.1875 48.25 40.4375 
Q 48.734375 37.984375 48.734375 31.890625 
L 48.734375 0 
L 39.9375 0 
L 39.9375 31.546875 
Q 39.9375 36.921875 38.90625 39.578125 
Q 37.890625 42.234375 35.28125 43.8125 
Q 32.671875 45.40625 29.15625 45.40625 
Q 23.53125 45.40625 19.453125 41.84375 
Q 15.375 38.28125 15.375 28.328125 
L 15.375 0 
z
" id="ArialMT-110"/>
       <path d="M 40.234375 0 
L 40.234375 6.546875 
Q 35.296875 -1.171875 25.734375 -1.171875 
Q 19.53125 -1.171875 14.328125 2.25 
Q 9.125 5.671875 6.265625 11.796875 
Q 3.421875 17.921875 3.421875 25.875 
Q 3.421875 33.640625 6 39.96875 
Q 8.59375 46.296875 13.765625 49.65625 
Q 18.953125 53.03125 25.34375 53.03125 
Q 30.03125 53.03125 33.6875 51.046875 
Q 37.359375 49.078125 39.65625 45.90625 
L 39.65625 71.578125 
L 48.390625 71.578125 
L 48.390625 0 
z
M 12.453125 25.875 
Q 12.453125 15.921875 16.640625 10.984375 
Q 20.84375 6.0625 26.5625 6.0625 
Q 32.328125 6.0625 36.34375 10.765625 
Q 40.375 15.484375 40.375 25.140625 
Q 40.375 35.796875 36.265625 40.765625 
Q 32.171875 45.75 26.171875 45.75 
Q 20.3125 45.75 16.375 40.96875 
Q 12.453125 36.1875 12.453125 25.875 
z
" id="ArialMT-100"/>
       <path d="M 6.640625 61.46875 
L 6.640625 71.578125 
L 15.4375 71.578125 
L 15.4375 61.46875 
z
M 6.640625 0 
L 6.640625 51.859375 
L 15.4375 51.859375 
L 15.4375 0 
z
" id="ArialMT-105"/>
       <path d="M 25.78125 7.859375 
L 27.046875 0.09375 
Q 23.34375 -0.6875 20.40625 -0.6875 
Q 15.625 -0.6875 12.984375 0.828125 
Q 10.359375 2.34375 9.28125 4.8125 
Q 8.203125 7.28125 8.203125 15.1875 
L 8.203125 45.015625 
L 1.765625 45.015625 
L 1.765625 51.859375 
L 8.203125 51.859375 
L 8.203125 64.703125 
L 16.9375 69.96875 
L 16.9375 51.859375 
L 25.78125 51.859375 
L 25.78125 45.015625 
L 16.9375 45.015625 
L 16.9375 14.703125 
Q 16.9375 10.9375 17.40625 9.859375 
Q 17.875 8.796875 18.921875 8.15625 
Q 19.96875 7.515625 21.921875 7.515625 
Q 23.390625 7.515625 25.78125 7.859375 
z
" id="ArialMT-116"/>
      </defs>
      <use xlink:href="#ArialMT-78"/>
      <use x="72.216797" xlink:href="#ArialMT-97"/>
      <use x="127.832031" xlink:href="#ArialMT-70"/>
      <use x="188.916016" xlink:href="#ArialMT-32"/>
      <use x="216.699219" xlink:href="#ArialMT-67"/>
      <use x="288.916016" xlink:href="#ArialMT-111"/>
      <use x="344.53125" xlink:href="#ArialMT-110"/>
      <use x="400.146484" xlink:href="#ArialMT-100"/>
      <use x="455.761719" xlink:href="#ArialMT-105"/>
      <use x="477.978516" xlink:href="#ArialMT-116"/>
      <use x="505.761719" xlink:href="#ArialMT-105"/>
      <use x="527.978516" xlink:href="#ArialMT-111"/>
      <use x="583.59375" xlink:href="#ArialMT-110"/>
     </g>
    </g>
   </g>
   <g id="matplotlib.axis_2">
    <g id="ytick_1">
     <g id="line2d_1">
      <path clip-path="url(#pa2a07067c5)" d="M 53.368281 121.698764 
L 220.768281 121.698764 
" style="fill:none;stroke:#cccccc;stroke-linecap:round;"/>
     </g>
     <g id="text_5">
      <!-- 0.00 -->
      <g style="fill:#262626;" transform="translate(22.46125 125.63556)scale(0.11 -0.11)">
       <defs>
        <path d="M 4.15625 35.296875 
Q 4.15625 48 6.765625 55.734375 
Q 9.375 63.484375 14.515625 67.671875 
Q 19.671875 71.875 27.484375 71.875 
Q 33.25 71.875 37.59375 69.546875 
Q 41.9375 67.234375 44.765625 62.859375 
Q 47.609375 58.5 49.21875 52.21875 
Q 50.828125 45.953125 50.828125 35.296875 
Q 50.828125 22.703125 48.234375 14.96875 
Q 45.65625 7.234375 40.5 3 
Q 35.359375 -1.21875 27.484375 -1.21875 
Q 17.140625 -1.21875 11.234375 6.203125 
Q 4.15625 15.140625 4.15625 35.296875 
z
M 13.1875 35.296875 
Q 13.1875 17.671875 17.3125 11.828125 
Q 21.4375 6 27.484375 6 
Q 33.546875 6 37.671875 11.859375 
Q 41.796875 17.71875 41.796875 35.296875 
Q 41.796875 52.984375 37.671875 58.78125 
Q 33.546875 64.59375 27.390625 64.59375 
Q 21.34375 64.59375 17.71875 59.46875 
Q 13.1875 52.9375 13.1875 35.296875 
z
" id="ArialMT-48"/>
        <path d="M 9.078125 0 
L 9.078125 10.015625 
L 19.09375 10.015625 
L 19.09375 0 
z
" id="ArialMT-46"/>
       </defs>
       <use xlink:href="#ArialMT-48"/>
       <use x="55.615234" xlink:href="#ArialMT-46"/>
       <use x="83.398438" xlink:href="#ArialMT-48"/>
       <use x="139.013672" xlink:href="#ArialMT-48"/>
      </g>
     </g>
    </g>
    <g id="ytick_2">
     <g id="line2d_2">
      <path clip-path="url(#pa2a07067c5)" d="M 53.368281 94.148303 
L 220.768281 94.148303 
" style="fill:none;stroke:#cccccc;stroke-linecap:round;"/>
     </g>
     <g id="text_6">
      <!-- 0.25 -->
      <g style="fill:#262626;" transform="translate(22.46125 98.085099)scale(0.11 -0.11)">
       <defs>
        <path d="M 50.34375 8.453125 
L 50.34375 0 
L 3.03125 0 
Q 2.9375 3.171875 4.046875 6.109375 
Q 5.859375 10.9375 9.828125 15.625 
Q 13.8125 20.3125 21.34375 26.46875 
Q 33.015625 36.03125 37.109375 41.625 
Q 41.21875 47.21875 41.21875 52.203125 
Q 41.21875 57.421875 37.46875 61 
Q 33.734375 64.59375 27.734375 64.59375 
Q 21.390625 64.59375 17.578125 60.78125 
Q 13.765625 56.984375 13.71875 50.25 
L 4.6875 51.171875 
Q 5.609375 61.28125 11.65625 66.578125 
Q 17.71875 71.875 27.9375 71.875 
Q 38.234375 71.875 44.234375 66.15625 
Q 50.25 60.453125 50.25 52 
Q 50.25 47.703125 48.484375 43.546875 
Q 46.734375 39.40625 42.65625 34.8125 
Q 38.578125 30.21875 29.109375 22.21875 
Q 21.1875 15.578125 18.9375 13.203125 
Q 16.703125 10.84375 15.234375 8.453125 
z
" id="ArialMT-50"/>
        <path d="M 4.15625 18.75 
L 13.375 19.53125 
Q 14.40625 12.796875 18.140625 9.390625 
Q 21.875 6 27.15625 6 
Q 33.5 6 37.890625 10.78125 
Q 42.28125 15.578125 42.28125 23.484375 
Q 42.28125 31 38.0625 35.34375 
Q 33.84375 39.703125 27 39.703125 
Q 22.75 39.703125 19.328125 37.765625 
Q 15.921875 35.84375 13.96875 32.765625 
L 5.71875 33.84375 
L 12.640625 70.609375 
L 48.25 70.609375 
L 48.25 62.203125 
L 19.671875 62.203125 
L 15.828125 42.96875 
Q 22.265625 47.46875 29.34375 47.46875 
Q 38.71875 47.46875 45.15625 40.96875 
Q 51.609375 34.46875 51.609375 24.265625 
Q 51.609375 14.546875 45.953125 7.46875 
Q 39.0625 -1.21875 27.15625 -1.21875 
Q 17.390625 -1.21875 11.203125 4.25 
Q 5.03125 9.71875 4.15625 18.75 
z
" id="ArialMT-53"/>
       </defs>
       <use xlink:href="#ArialMT-48"/>
       <use x="55.615234" xlink:href="#ArialMT-46"/>
       <use x="83.398438" xlink:href="#ArialMT-50"/>
       <use x="139.013672" xlink:href="#ArialMT-53"/>
      </g>
     </g>
    </g>
    <g id="ytick_3">
     <g id="line2d_3">
      <path clip-path="url(#pa2a07067c5)" d="M 53.368281 66.597842 
L 220.768281 66.597842 
" style="fill:none;stroke:#cccccc;stroke-linecap:round;"/>
     </g>
     <g id="text_7">
      <!-- 0.50 -->
      <g style="fill:#262626;" transform="translate(22.46125 70.534639)scale(0.11 -0.11)">
       <use xlink:href="#ArialMT-48"/>
       <use x="55.615234" xlink:href="#ArialMT-46"/>
       <use x="83.398438" xlink:href="#ArialMT-53"/>
       <use x="139.013672" xlink:href="#ArialMT-48"/>
      </g>
     </g>
    </g>
    <g id="ytick_4">
     <g id="line2d_4">
      <path clip-path="url(#pa2a07067c5)" d="M 53.368281 39.047381 
L 220.768281 39.047381 
" style="fill:none;stroke:#cccccc;stroke-linecap:round;"/>
     </g>
     <g id="text_8">
      <!-- 0.75 -->
      <g style="fill:#262626;" transform="translate(22.46125 42.984178)scale(0.11 -0.11)">
       <defs>
        <path d="M 4.734375 62.203125 
L 4.734375 70.65625 
L 51.078125 70.65625 
L 51.078125 63.8125 
Q 44.234375 56.546875 37.515625 44.484375 
Q 30.8125 32.421875 27.15625 19.671875 
Q 24.515625 10.6875 23.78125 0 
L 14.75 0 
Q 14.890625 8.453125 18.0625 20.40625 
Q 21.234375 32.375 27.171875 43.484375 
Q 33.109375 54.59375 39.796875 62.203125 
z
" id="ArialMT-55"/>
       </defs>
       <use xlink:href="#ArialMT-48"/>
       <use x="55.615234" xlink:href="#ArialMT-46"/>
       <use x="83.398438" xlink:href="#ArialMT-55"/>
       <use x="139.013672" xlink:href="#ArialMT-53"/>
      </g>
     </g>
    </g>
    <g id="text_9">
     <!-- MEF (uM FITC) -->
     <g style="fill:#262626;" transform="translate(15.935625 117.953437)rotate(-90)scale(0.12 -0.12)">
      <defs>
       <path d="M 7.90625 0 
L 7.90625 71.578125 
L 59.671875 71.578125 
L 59.671875 63.140625 
L 17.390625 63.140625 
L 17.390625 41.21875 
L 56.984375 41.21875 
L 56.984375 32.8125 
L 17.390625 32.8125 
L 17.390625 8.453125 
L 61.328125 8.453125 
L 61.328125 0 
z
" id="ArialMT-69"/>
       <path d="M 23.390625 -21.046875 
Q 16.109375 -11.859375 11.078125 0.4375 
Q 6.0625 12.75 6.0625 25.921875 
Q 6.0625 37.546875 9.8125 48.1875 
Q 14.203125 60.546875 23.390625 72.796875 
L 29.6875 72.796875 
Q 23.78125 62.640625 21.875 58.296875 
Q 18.890625 51.5625 17.1875 44.234375 
Q 15.09375 35.109375 15.09375 25.875 
Q 15.09375 2.390625 29.6875 -21.046875 
z
" id="ArialMT-40"/>
       <path d="M 40.578125 0 
L 40.578125 7.625 
Q 34.515625 -1.171875 24.125 -1.171875 
Q 19.53125 -1.171875 15.546875 0.578125 
Q 11.578125 2.34375 9.640625 5 
Q 7.71875 7.671875 6.9375 11.53125 
Q 6.390625 14.109375 6.390625 19.734375 
L 6.390625 51.859375 
L 15.1875 51.859375 
L 15.1875 23.09375 
Q 15.1875 16.21875 15.71875 13.8125 
Q 16.546875 10.359375 19.234375 8.375 
Q 21.921875 6.390625 25.875 6.390625 
Q 29.828125 6.390625 33.296875 8.421875 
Q 36.765625 10.453125 38.203125 13.9375 
Q 39.65625 17.4375 39.65625 24.078125 
L 39.65625 51.859375 
L 48.4375 51.859375 
L 48.4375 0 
z
" id="ArialMT-117"/>
       <path d="M 9.328125 0 
L 9.328125 71.578125 
L 18.796875 71.578125 
L 18.796875 0 
z
" id="ArialMT-73"/>
       <path d="M 25.921875 0 
L 25.921875 63.140625 
L 2.34375 63.140625 
L 2.34375 71.578125 
L 59.078125 71.578125 
L 59.078125 63.140625 
L 35.40625 63.140625 
L 35.40625 0 
z
" id="ArialMT-84"/>
       <path d="M 12.359375 -21.046875 
L 6.0625 -21.046875 
Q 20.65625 2.390625 20.65625 25.875 
Q 20.65625 35.0625 18.5625 44.09375 
Q 16.890625 51.421875 13.921875 58.15625 
Q 12.015625 62.546875 6.0625 72.796875 
L 12.359375 72.796875 
Q 21.53125 60.546875 25.921875 48.1875 
Q 29.6875 37.546875 29.6875 25.921875 
Q 29.6875 12.75 24.625 0.4375 
Q 19.578125 -11.859375 12.359375 -21.046875 
z
" id="ArialMT-41"/>
      </defs>
      <use xlink:href="#ArialMT-77"/>
      <use x="83.300781" xlink:href="#ArialMT-69"/>
      <use x="150" xlink:href="#ArialMT-70"/>
      <use x="211.083984" xlink:href="#ArialMT-32"/>
      <use x="238.867188" xlink:href="#ArialMT-40"/>
      <use x="272.167969" xlink:href="#ArialMT-117"/>
      <use x="327.783203" xlink:href="#ArialMT-77"/>
      <use x="411.083984" xlink:href="#ArialMT-32"/>
      <use x="438.867188" xlink:href="#ArialMT-70"/>
      <use x="499.951172" xlink:href="#ArialMT-73"/>
      <use x="527.734375" xlink:href="#ArialMT-84"/>
      <use x="588.818359" xlink:href="#ArialMT-67"/>
      <use x="661.035156" xlink:href="#ArialMT-41"/>
     </g>
    </g>
   </g>
   <g id="PolyCollection_1">
    <defs>
     <path d="M 81.326022 -46.676037 
L 81.210541 -46.676037 
L 81.180238 -47.674384 
L 81.139448 -48.672731 
L 81.087253 -49.671078 
L 81.023869 -50.669425 
L 80.950987 -51.667772 
L 80.871936 -52.66612 
L 80.791551 -53.664467 
L 80.71572 -54.662814 
L 80.650662 -55.661161 
L 80.602014 -56.659508 
L 80.573892 -57.657855 
L 80.568054 -58.656202 
L 80.583288 -59.654549 
L 80.615115 -60.652896 
L 80.655828 -61.651244 
L 80.694871 -62.649591 
L 80.719551 -63.647938 
L 80.71605 -64.646285 
L 80.670707 -65.644632 
L 80.571525 -66.642979 
L 80.409799 -67.641326 
L 80.181646 -68.639673 
L 79.889129 -69.63802 
L 79.540557 -70.636368 
L 79.14954 -71.634715 
L 78.732579 -72.633062 
L 78.305255 -73.631409 
L 77.877585 -74.629756 
L 77.44951 -75.628103 
L 77.007772 -76.62645 
L 76.525373 -77.624797 
L 75.964353 -78.623144 
L 75.281865 -79.621491 
L 74.438607 -80.619839 
L 73.407879 -81.618186 
L 72.183177 -82.616533 
L 70.782385 -83.61488 
L 69.247402 -84.613227 
L 67.639148 -85.611574 
L 66.029049 -86.609921 
L 64.489 -87.608268 
L 63.082052 -88.606615 
L 61.855785 -89.604963 
L 60.839461 -90.60331 
L 60.045042 -91.601657 
L 59.471237 -92.600004 
L 59.109194 -93.598351 
L 58.948281 -94.596698 
L 58.980671 -95.595045 
L 59.20382 -96.593392 
L 59.620521 -97.591739 
L 60.236671 -98.590087 
L 61.057357 -99.588434 
L 62.082178 -100.586781 
L 63.300853 -101.585128 
L 64.690115 -102.583475 
L 66.212663 -103.581822 
L 67.818544 -104.580169 
L 69.448906 -105.578516 
L 71.041614 -106.576863 
L 72.537838 -107.57521 
L 73.888486 -108.573558 
L 75.059324 -109.571905 
L 76.033816 -110.570252 
L 76.813206 -111.568599 
L 77.413955 -112.566946 
L 77.863262 -113.565293 
L 78.193764 -114.56364 
L 78.438584 -115.561987 
L 78.627557 -116.560334 
L 78.78499 -117.558682 
L 78.928767 -118.557029 
L 79.070338 -119.555376 
L 79.215115 -120.553723 
L 79.362998 -121.55207 
L 79.509111 -122.550417 
L 79.644967 -123.548764 
L 79.760274 -124.547111 
L 79.845343 -125.545458 
L 79.893699 -126.543806 
L 79.904294 -127.542153 
L 79.882629 -128.5405 
L 79.840387 -129.538847 
L 79.793541 -130.537194 
L 79.759379 -131.535541 
L 79.753191 -132.533888 
L 79.785447 -133.532235 
L 79.860116 -134.530582 
L 79.974439 -135.528929 
L 80.120058 -136.527277 
L 80.285063 -137.525624 
L 80.456396 -138.523971 
L 80.622032 -139.522318 
L 80.772547 -140.520665 
L 80.9019 -141.519012 
L 81.007466 -142.517359 
L 81.089505 -143.515706 
L 81.150328 -144.514053 
L 81.193404 -145.512401 
L 81.343158 -145.512401 
L 81.343158 -145.512401 
L 81.386234 -144.514053 
L 81.447058 -143.515706 
L 81.529096 -142.517359 
L 81.634662 -141.519012 
L 81.764016 -140.520665 
L 81.914531 -139.522318 
L 82.080166 -138.523971 
L 82.251499 -137.525624 
L 82.416504 -136.527277 
L 82.562123 -135.528929 
L 82.676447 -134.530582 
L 82.751116 -133.532235 
L 82.783371 -132.533888 
L 82.777184 -131.535541 
L 82.743022 -130.537194 
L 82.696175 -129.538847 
L 82.653933 -128.5405 
L 82.632268 -127.542153 
L 82.642863 -126.543806 
L 82.69122 -125.545458 
L 82.776288 -124.547111 
L 82.891596 -123.548764 
L 83.027452 -122.550417 
L 83.173565 -121.55207 
L 83.321448 -120.553723 
L 83.466224 -119.555376 
L 83.607796 -118.557029 
L 83.751572 -117.558682 
L 83.909005 -116.560334 
L 84.097979 -115.561987 
L 84.342799 -114.56364 
L 84.673301 -113.565293 
L 85.122607 -112.566946 
L 85.723357 -111.568599 
L 86.502747 -110.570252 
L 87.477239 -109.571905 
L 88.648076 -108.573558 
L 89.998725 -107.57521 
L 91.494948 -106.576863 
L 93.087657 -105.578516 
L 94.718018 -104.580169 
L 96.323899 -103.581822 
L 97.846447 -102.583475 
L 99.23571 -101.585128 
L 100.454385 -100.586781 
L 101.479206 -99.588434 
L 102.299891 -98.590087 
L 102.916041 -97.591739 
L 103.332743 -96.593392 
L 103.555892 -95.595045 
L 103.588281 -94.596698 
L 103.427369 -93.598351 
L 103.065325 -92.600004 
L 102.491521 -91.601657 
L 101.697101 -90.60331 
L 100.680777 -89.604963 
L 99.454511 -88.606615 
L 98.047562 -87.608268 
L 96.507513 -86.609921 
L 94.897415 -85.611574 
L 93.28916 -84.613227 
L 91.754178 -83.61488 
L 90.353385 -82.616533 
L 89.128683 -81.618186 
L 88.097956 -80.619839 
L 87.254697 -79.621491 
L 86.57221 -78.623144 
L 86.011189 -77.624797 
L 85.52879 -76.62645 
L 85.087053 -75.628103 
L 84.658978 -74.629756 
L 84.231308 -73.631409 
L 83.803984 -72.633062 
L 83.387022 -71.634715 
L 82.996006 -70.636368 
L 82.647433 -69.63802 
L 82.354917 -68.639673 
L 82.126763 -67.641326 
L 81.965037 -66.642979 
L 81.865856 -65.644632 
L 81.820512 -64.646285 
L 81.817011 -63.647938 
L 81.841692 -62.649591 
L 81.880735 -61.651244 
L 81.921447 -60.652896 
L 81.953275 -59.654549 
L 81.968509 -58.656202 
L 81.96267 -57.657855 
L 81.934548 -56.659508 
L 81.8859 -55.661161 
L 81.820842 -54.662814 
L 81.745012 -53.664467 
L 81.664626 -52.66612 
L 81.585576 -51.667772 
L 81.512694 -50.669425 
L 81.449309 -49.671078 
L 81.397115 -48.672731 
L 81.356324 -47.674384 
L 81.326022 -46.676037 
z
" id="mc2950b46de" style="stroke:#757575;stroke-width:1.5;"/>
    </defs>
    <g clip-path="url(#pa2a07067c5)">
     <use style="fill:#97f0b4;stroke:#757575;stroke-width:1.5;" x="0" xlink:href="#mc2950b46de" y="172.389844"/>
    </g>
   </g>
   <g id="PolyCollection_2">
    <defs>
     <path d="M 137.176064 -49.817239 
L 136.960499 -49.817239 
L 136.894146 -49.974063 
L 136.802338 -50.130887 
L 136.684141 -50.28771 
L 136.543128 -50.444534 
L 136.388191 -50.601358 
L 136.232978 -50.758181 
L 136.093766 -50.915005 
L 135.986172 -51.071829 
L 135.921711 -51.228653 
L 135.905376 -51.385476 
L 135.935058 -51.5423 
L 136.002902 -51.699124 
L 136.097884 -51.855948 
L 136.208488 -52.012771 
L 136.324515 -52.169595 
L 136.437657 -52.326419 
L 136.541108 -52.483243 
L 136.628867 -52.640066 
L 136.695342 -52.79689 
L 136.735507 -52.953714 
L 136.74545 -53.110538 
L 136.722872 -53.267361 
L 136.66715 -53.424185 
L 136.578786 -53.581009 
L 136.458377 -53.737833 
L 136.305478 -53.894656 
L 136.117767 -54.05148 
L 135.890743 -54.208304 
L 135.617886 -54.365128 
L 135.290972 -54.521951 
L 134.900188 -54.678775 
L 134.433979 -54.835599 
L 133.87892 -54.992422 
L 133.220268 -55.149246 
L 132.443786 -55.30607 
L 131.539022 -55.462894 
L 130.503459 -55.619717 
L 129.346292 -55.776541 
L 128.090189 -55.933365 
L 126.769707 -56.090189 
L 125.425918 -56.247012 
L 124.098127 -56.403836 
L 122.814965 -56.56066 
L 121.588119 -56.717484 
L 120.412017 -56.874307 
L 119.27147 -57.031131 
L 118.156632 -57.187955 
L 117.081222 -57.344779 
L 116.097112 -57.501602 
L 115.297859 -57.658426 
L 114.806466 -57.81525 
L 114.748281 -57.972074 
L 115.216381 -58.128897 
L 116.24093 -58.285721 
L 117.773708 -58.442545 
L 119.693756 -58.599368 
L 121.832331 -58.756192 
L 124.008475 -58.913016 
L 126.063625 -59.06984 
L 127.885693 -59.226663 
L 129.418254 -59.383487 
L 130.656179 -59.540311 
L 131.632538 -59.697135 
L 132.402312 -59.853958 
L 133.027037 -60.010782 
L 133.562604 -60.167606 
L 134.051093 -60.32443 
L 134.516899 -60.481253 
L 134.967073 -60.638077 
L 135.395243 -60.794901 
L 135.787779 -60.951725 
L 136.130331 -61.108548 
L 136.412924 -61.265372 
L 136.632522 -61.422196 
L 136.792954 -61.57902 
L 136.902954 -61.735843 
L 136.973464 -61.892667 
L 137.015159 -62.049491 
L 137.036788 -62.206315 
L 137.044422 -62.363138 
L 137.041465 -62.519962 
L 137.029173 -62.676786 
L 137.007477 -62.833609 
L 136.975986 -62.990433 
L 136.935018 -63.147257 
L 136.886486 -63.304081 
L 136.834371 -63.460904 
L 136.784537 -63.617728 
L 136.743816 -63.774552 
L 136.718528 -63.931376 
L 136.712892 -64.088199 
L 136.727876 -64.245023 
L 136.760929 -64.401847 
L 136.806689 -64.558671 
L 136.858406 -64.715494 
L 136.909556 -64.872318 
L 136.955125 -65.029142 
L 136.992238 -65.185966 
L 137.02011 -65.342789 
L 137.116453 -65.342789 
L 137.116453 -65.342789 
L 137.144324 -65.185966 
L 137.181438 -65.029142 
L 137.227006 -64.872318 
L 137.278156 -64.715494 
L 137.329873 -64.558671 
L 137.375633 -64.401847 
L 137.408687 -64.245023 
L 137.423671 -64.088199 
L 137.418035 -63.931376 
L 137.392746 -63.774552 
L 137.352025 -63.617728 
L 137.302191 -63.460904 
L 137.250076 -63.304081 
L 137.201545 -63.147257 
L 137.160577 -62.990433 
L 137.129085 -62.833609 
L 137.10739 -62.676786 
L 137.095097 -62.519962 
L 137.09214 -62.363138 
L 137.099774 -62.206315 
L 137.121403 -62.049491 
L 137.163099 -61.892667 
L 137.233609 -61.735843 
L 137.343609 -61.57902 
L 137.50404 -61.422196 
L 137.723639 -61.265372 
L 138.006232 -61.108548 
L 138.348783 -60.951725 
L 138.741319 -60.794901 
L 139.169489 -60.638077 
L 139.619664 -60.481253 
L 140.08547 -60.32443 
L 140.573959 -60.167606 
L 141.109526 -60.010782 
L 141.73425 -59.853958 
L 142.504024 -59.697135 
L 143.480383 -59.540311 
L 144.718308 -59.383487 
L 146.25087 -59.226663 
L 148.072937 -59.06984 
L 150.128088 -58.913016 
L 152.304231 -58.756192 
L 154.442806 -58.599368 
L 156.362854 -58.442545 
L 157.895632 -58.285721 
L 158.920182 -58.128897 
L 159.388281 -57.972074 
L 159.330097 -57.81525 
L 158.838703 -57.658426 
L 158.03945 -57.501602 
L 157.05534 -57.344779 
L 155.97993 -57.187955 
L 154.865093 -57.031131 
L 153.724545 -56.874307 
L 152.548444 -56.717484 
L 151.321598 -56.56066 
L 150.038435 -56.403836 
L 148.710644 -56.247012 
L 147.366856 -56.090189 
L 146.046374 -55.933365 
L 144.79027 -55.776541 
L 143.633104 -55.619717 
L 142.597541 -55.462894 
L 141.692776 -55.30607 
L 140.916295 -55.149246 
L 140.257643 -54.992422 
L 139.702584 -54.835599 
L 139.236374 -54.678775 
L 138.845591 -54.521951 
L 138.518676 -54.365128 
L 138.245819 -54.208304 
L 138.018795 -54.05148 
L 137.831085 -53.894656 
L 137.678186 -53.737833 
L 137.557776 -53.581009 
L 137.469412 -53.424185 
L 137.41369 -53.267361 
L 137.391112 -53.110538 
L 137.401056 -52.953714 
L 137.441221 -52.79689 
L 137.507695 -52.640066 
L 137.595454 -52.483243 
L 137.698906 -52.326419 
L 137.812048 -52.169595 
L 137.928074 -52.012771 
L 138.038678 -51.855948 
L 138.133661 -51.699124 
L 138.201505 -51.5423 
L 138.231186 -51.385476 
L 138.214851 -51.228653 
L 138.150391 -51.071829 
L 138.042796 -50.915005 
L 137.903584 -50.758181 
L 137.748372 -50.601358 
L 137.593434 -50.444534 
L 137.452422 -50.28771 
L 137.334225 -50.130887 
L 137.242416 -49.974063 
L 137.176064 -49.817239 
z
" id="m5d59403506" style="stroke:#757575;stroke-width:1.5;"/>
    </defs>
    <g clip-path="url(#pa2a07067c5)">
     <use style="fill:#97f0b4;stroke:#757575;stroke-width:1.5;" x="0" xlink:href="#m5d59403506" y="172.389844"/>
    </g>
   </g>
   <g id="PolyCollection_3">
    <defs>
     <path d="M 192.90551 -50.443448 
L 192.831052 -50.443448 
L 192.810351 -50.486067 
L 192.782202 -50.528687 
L 192.746026 -50.571306 
L 192.702135 -50.613925 
L 192.65195 -50.656544 
L 192.598019 -50.699163 
L 192.543779 -50.741782 
L 192.493089 -50.784402 
L 192.449629 -50.827021 
L 192.416276 -50.86964 
L 192.394629 -50.912259 
L 192.384785 -50.954878 
L 192.38543 -50.997497 
L 192.394237 -51.040117 
L 192.40848 -51.082736 
L 192.425715 -51.125355 
L 192.44432 -51.167974 
L 192.463715 -51.210593 
L 192.484173 -51.253212 
L 192.506264 -51.295832 
L 192.530138 -51.338451 
L 192.554916 -51.38107 
L 192.578442 -51.423689 
L 192.597482 -51.466308 
L 192.608284 -51.508927 
L 192.607227 -51.551547 
L 192.59121 -51.594166 
L 192.557476 -51.636785 
L 192.502728 -51.679404 
L 192.421559 -51.722023 
L 192.304429 -51.764642 
L 192.13553 -51.807261 
L 191.890951 -51.849881 
L 191.537607 -51.8925 
L 191.033467 -51.935119 
L 190.32971 -51.977738 
L 189.375451 -52.020357 
L 188.125501 -52.062976 
L 186.550974 -52.105596 
L 184.651567 -52.148215 
L 182.467064 -52.190834 
L 180.084722 -52.233453 
L 177.639105 -52.276072 
L 175.302162 -52.318691 
L 173.263648 -52.361311 
L 171.704881 -52.40393 
L 170.771056 -52.446549 
L 170.548281 -52.489168 
L 171.050471 -52.531787 
L 172.218747 -52.574406 
L 173.93287 -52.617026 
L 176.031474 -52.659645 
L 178.33637 -52.702264 
L 180.676017 -52.744883 
L 182.904317 -52.787502 
L 184.912531 -52.830121 
L 186.633838 -52.872741 
L 188.041435 -52.91536 
L 189.141968 -52.957979 
L 189.966396 -53.000598 
L 190.560232 -53.043217 
L 190.97465 -53.085836 
L 191.259344 -53.128456 
L 191.457471 -53.171075 
L 191.602637 -53.213694 
L 191.717693 -53.256313 
L 191.815045 -53.298932 
L 191.8982 -53.341551 
L 191.964231 -53.384171 
L 192.006766 -53.42679 
L 192.019009 -53.469409 
L 191.996288 -53.512028 
L 191.937671 -53.554647 
L 191.846483 -53.597266 
L 191.729818 -53.639886 
L 191.597425 -53.682505 
L 191.460434 -53.725124 
L 191.330276 -53.767743 
L 191.217888 -53.810362 
L 191.133062 -53.852981 
L 191.083731 -53.8956 
L 191.075118 -53.93822 
L 191.108931 -53.980839 
L 191.182957 -54.023458 
L 191.29136 -54.066077 
L 191.425743 -54.108696 
L 191.576675 -54.151315 
L 191.735207 -54.193935 
L 191.893908 -54.236554 
L 192.047217 -54.279173 
L 192.191221 -54.321792 
L 192.323164 -54.364411 
L 192.441022 -54.40703 
L 192.543327 -54.44965 
L 192.62924 -54.492269 
L 192.698715 -54.534888 
L 192.752594 -54.577507 
L 192.792536 -54.620126 
L 192.820772 -54.662745 
L 192.915791 -54.662745 
L 192.915791 -54.662745 
L 192.944027 -54.620126 
L 192.983968 -54.577507 
L 193.037847 -54.534888 
L 193.107322 -54.492269 
L 193.193235 -54.44965 
L 193.295541 -54.40703 
L 193.413398 -54.364411 
L 193.545342 -54.321792 
L 193.689346 -54.279173 
L 193.842655 -54.236554 
L 194.001355 -54.193935 
L 194.159887 -54.151315 
L 194.31082 -54.108696 
L 194.445202 -54.066077 
L 194.553606 -54.023458 
L 194.627631 -53.980839 
L 194.661444 -53.93822 
L 194.652831 -53.8956 
L 194.6035 -53.852981 
L 194.518675 -53.810362 
L 194.406286 -53.767743 
L 194.276128 -53.725124 
L 194.139137 -53.682505 
L 194.006744 -53.639886 
L 193.890079 -53.597266 
L 193.798892 -53.554647 
L 193.740274 -53.512028 
L 193.717553 -53.469409 
L 193.729797 -53.42679 
L 193.772331 -53.384171 
L 193.838362 -53.341551 
L 193.921518 -53.298932 
L 194.018869 -53.256313 
L 194.133925 -53.213694 
L 194.279091 -53.171075 
L 194.477218 -53.128456 
L 194.761912 -53.085836 
L 195.176331 -53.043217 
L 195.770167 -53.000598 
L 196.594595 -52.957979 
L 197.695128 -52.91536 
L 199.102725 -52.872741 
L 200.824032 -52.830121 
L 202.832246 -52.787502 
L 205.060545 -52.744883 
L 207.400193 -52.702264 
L 209.705089 -52.659645 
L 211.803693 -52.617026 
L 213.517815 -52.574406 
L 214.686092 -52.531787 
L 215.188281 -52.489168 
L 214.965506 -52.446549 
L 214.031681 -52.40393 
L 212.472914 -52.361311 
L 210.434401 -52.318691 
L 208.097457 -52.276072 
L 205.651841 -52.233453 
L 203.269499 -52.190834 
L 201.084996 -52.148215 
L 199.185588 -52.105596 
L 197.611062 -52.062976 
L 196.361112 -52.020357 
L 195.406853 -51.977738 
L 194.703096 -51.935119 
L 194.198956 -51.8925 
L 193.845612 -51.849881 
L 193.601033 -51.807261 
L 193.432134 -51.764642 
L 193.315004 -51.722023 
L 193.233835 -51.679404 
L 193.179087 -51.636785 
L 193.145353 -51.594166 
L 193.129336 -51.551547 
L 193.128279 -51.508927 
L 193.139081 -51.466308 
L 193.15812 -51.423689 
L 193.181646 -51.38107 
L 193.206425 -51.338451 
L 193.230298 -51.295832 
L 193.252389 -51.253212 
L 193.272847 -51.210593 
L 193.292243 -51.167974 
L 193.310847 -51.125355 
L 193.328082 -51.082736 
L 193.342325 -51.040117 
L 193.351132 -50.997497 
L 193.351777 -50.954878 
L 193.341933 -50.912259 
L 193.320286 -50.86964 
L 193.286933 -50.827021 
L 193.243473 -50.784402 
L 193.192784 -50.741782 
L 193.138543 -50.699163 
L 193.084612 -50.656544 
L 193.034428 -50.613925 
L 192.990537 -50.571306 
L 192.95436 -50.528687 
L 192.926211 -50.486067 
L 192.90551 -50.443448 
z
" id="m03b2871dba" style="stroke:#757575;stroke-width:1.5;"/>
    </defs>
    <g clip-path="url(#pa2a07067c5)">
     <use style="fill:#97f0b4;stroke:#757575;stroke-width:1.5;" x="0" xlink:href="#m03b2871dba" y="172.389844"/>
    </g>
   </g>
   <g id="patch_3">
    <path clip-path="url(#pa2a07067c5)" d="M 81.268281 121.698764 
L 81.268281 121.698764 
L 81.268281 121.698764 
L 81.268281 121.698764 
z
" style="fill:#97f0b4;stroke:#757575;stroke-linejoin:miter;stroke-width:0.75;"/>
   </g>
   <g id="patch_4">
    <path clip-path="url(#pa2a07067c5)" d="M 81.268281 121.698764 
L 81.268281 121.698764 
L 81.268281 121.698764 
L 81.268281 121.698764 
z
" style="fill:#97f0b4;stroke:#757575;stroke-linejoin:miter;stroke-width:0.75;"/>
   </g>
   <g id="patch_5">
    <path clip-path="url(#pa2a07067c5)" d="M 81.268281 121.698764 
L 81.268281 121.698764 
L 81.268281 121.698764 
L 81.268281 121.698764 
z
" style="fill:#97f0b4;stroke:#757575;stroke-linejoin:miter;stroke-width:0.75;"/>
   </g>
   <g id="patch_6">
    <path d="M 53.368281 130.655625 
L 53.368281 21.935625 
" style="fill:none;stroke:#cccccc;stroke-linecap:square;stroke-linejoin:miter;stroke-width:1.25;"/>
   </g>
   <g id="patch_7">
    <path d="M 220.768281 130.655625 
L 220.768281 21.935625 
" style="fill:none;stroke:#cccccc;stroke-linecap:square;stroke-linejoin:miter;stroke-width:1.25;"/>
   </g>
   <g id="patch_8">
    <path d="M 53.368281 130.655625 
L 220.768281 130.655625 
" style="fill:none;stroke:#cccccc;stroke-linecap:square;stroke-linejoin:miter;stroke-width:1.25;"/>
   </g>
   <g id="patch_9">
    <path d="M 53.368281 21.935625 
L 220.768281 21.935625 
" style="fill:none;stroke:#cccccc;stroke-linecap:square;stroke-linejoin:miter;stroke-width:1.25;"/>
   </g>
   <g id="text_10">
    <!-- Violin Plot: Sheet1_Half_Max -->
    <g style="fill:#262626;" transform="translate(59.466719 15.935625)scale(0.12 -0.12)">
     <defs>
      <path d="M 28.171875 0 
L 0.4375 71.578125 
L 10.6875 71.578125 
L 29.296875 19.578125 
Q 31.546875 13.328125 33.0625 7.859375 
Q 34.71875 13.71875 36.921875 19.578125 
L 56.25 71.578125 
L 65.921875 71.578125 
L 37.890625 0 
z
" id="ArialMT-86"/>
      <path d="M 6.390625 0 
L 6.390625 71.578125 
L 15.1875 71.578125 
L 15.1875 0 
z
" id="ArialMT-108"/>
      <path d="M 7.71875 0 
L 7.71875 71.578125 
L 34.71875 71.578125 
Q 41.84375 71.578125 45.609375 70.90625 
Q 50.875 70.015625 54.4375 67.546875 
Q 58.015625 65.09375 60.1875 60.640625 
Q 62.359375 56.203125 62.359375 50.875 
Q 62.359375 41.75 56.546875 35.421875 
Q 50.734375 29.109375 35.546875 29.109375 
L 17.1875 29.109375 
L 17.1875 0 
z
M 17.1875 37.546875 
L 35.6875 37.546875 
Q 44.875 37.546875 48.734375 40.96875 
Q 52.59375 44.390625 52.59375 50.59375 
Q 52.59375 55.078125 50.3125 58.265625 
Q 48.046875 61.46875 44.34375 62.5 
Q 41.9375 63.140625 35.5 63.140625 
L 17.1875 63.140625 
z
" id="ArialMT-80"/>
      <path d="M 9.03125 41.84375 
L 9.03125 51.859375 
L 19.046875 51.859375 
L 19.046875 41.84375 
z
M 9.03125 0 
L 9.03125 10.015625 
L 19.046875 10.015625 
L 19.046875 0 
z
" id="ArialMT-58"/>
      <path d="M 4.5 23 
L 13.421875 23.78125 
Q 14.0625 18.40625 16.375 14.96875 
Q 18.703125 11.53125 23.578125 9.40625 
Q 28.46875 7.28125 34.578125 7.28125 
Q 39.984375 7.28125 44.140625 8.890625 
Q 48.296875 10.5 50.3125 13.296875 
Q 52.34375 16.109375 52.34375 19.4375 
Q 52.34375 22.796875 50.390625 25.3125 
Q 48.4375 27.828125 43.953125 29.546875 
Q 41.0625 30.671875 31.203125 33.03125 
Q 21.34375 35.40625 17.390625 37.5 
Q 12.25 40.1875 9.734375 44.15625 
Q 7.234375 48.140625 7.234375 53.078125 
Q 7.234375 58.5 10.296875 63.203125 
Q 13.375 67.921875 19.28125 70.359375 
Q 25.203125 72.796875 32.421875 72.796875 
Q 40.375 72.796875 46.453125 70.234375 
Q 52.546875 67.671875 55.8125 62.6875 
Q 59.078125 57.71875 59.328125 51.421875 
L 50.25 50.734375 
Q 49.515625 57.515625 45.28125 60.984375 
Q 41.0625 64.453125 32.8125 64.453125 
Q 24.21875 64.453125 20.28125 61.296875 
Q 16.359375 58.15625 16.359375 53.71875 
Q 16.359375 49.859375 19.140625 47.359375 
Q 21.875 44.875 33.421875 42.265625 
Q 44.96875 39.65625 49.265625 37.703125 
Q 55.515625 34.8125 58.484375 30.390625 
Q 61.46875 25.984375 61.46875 20.21875 
Q 61.46875 14.5 58.203125 9.4375 
Q 54.9375 4.390625 48.796875 1.578125 
Q 42.671875 -1.21875 35.015625 -1.21875 
Q 25.296875 -1.21875 18.71875 1.609375 
Q 12.15625 4.4375 8.421875 10.125 
Q 4.6875 15.828125 4.5 23 
z
" id="ArialMT-83"/>
      <path d="M 6.59375 0 
L 6.59375 71.578125 
L 15.375 71.578125 
L 15.375 45.90625 
Q 21.53125 53.03125 30.90625 53.03125 
Q 36.671875 53.03125 40.921875 50.75 
Q 45.171875 48.484375 47 44.484375 
Q 48.828125 40.484375 48.828125 32.859375 
L 48.828125 0 
L 40.046875 0 
L 40.046875 32.859375 
Q 40.046875 39.453125 37.1875 42.453125 
Q 34.328125 45.453125 29.109375 45.453125 
Q 25.203125 45.453125 21.75 43.421875 
Q 18.3125 41.40625 16.84375 37.9375 
Q 15.375 34.46875 15.375 28.375 
L 15.375 0 
z
" id="ArialMT-104"/>
      <path d="M 42.09375 16.703125 
L 51.171875 15.578125 
Q 49.03125 7.625 43.21875 3.21875 
Q 37.40625 -1.171875 28.375 -1.171875 
Q 17 -1.171875 10.328125 5.828125 
Q 3.65625 12.84375 3.65625 25.484375 
Q 3.65625 38.578125 10.390625 45.796875 
Q 17.140625 53.03125 27.875 53.03125 
Q 38.28125 53.03125 44.875 45.953125 
Q 51.46875 38.875 51.46875 26.03125 
Q 51.46875 25.25 51.421875 23.6875 
L 12.75 23.6875 
Q 13.234375 15.140625 17.578125 10.59375 
Q 21.921875 6.0625 28.421875 6.0625 
Q 33.25 6.0625 36.671875 8.59375 
Q 40.09375 11.140625 42.09375 16.703125 
z
M 13.234375 30.90625 
L 42.1875 30.90625 
Q 41.609375 37.453125 38.875 40.71875 
Q 34.671875 45.796875 27.984375 45.796875 
Q 21.921875 45.796875 17.796875 41.75 
Q 13.671875 37.703125 13.234375 30.90625 
z
" id="ArialMT-101"/>
      <path d="M 37.25 0 
L 28.46875 0 
L 28.46875 56 
Q 25.296875 52.984375 20.140625 49.953125 
Q 14.984375 46.921875 10.890625 45.40625 
L 10.890625 53.90625 
Q 18.265625 57.375 23.78125 62.296875 
Q 29.296875 67.234375 31.59375 71.875 
L 37.25 71.875 
z
" id="ArialMT-49"/>
      <path d="M -1.515625 -19.875 
L -1.515625 -13.53125 
L 56.734375 -13.53125 
L 56.734375 -19.875 
z
" id="ArialMT-95"/>
      <path d="M 8.6875 0 
L 8.6875 45.015625 
L 0.921875 45.015625 
L 0.921875 51.859375 
L 8.6875 51.859375 
L 8.6875 57.375 
Q 8.6875 62.59375 9.625 65.140625 
Q 10.890625 68.5625 14.078125 70.671875 
Q 17.28125 72.796875 23.046875 72.796875 
Q 26.765625 72.796875 31.25 71.921875 
L 29.9375 64.265625 
Q 27.203125 64.75 24.75 64.75 
Q 20.75 64.75 19.09375 63.03125 
Q 17.4375 61.328125 17.4375 56.640625 
L 17.4375 51.859375 
L 27.546875 51.859375 
L 27.546875 45.015625 
L 17.4375 45.015625 
L 17.4375 0 
z
" id="ArialMT-102"/>
      <path d="M 0.734375 0 
L 19.671875 26.953125 
L 2.15625 51.859375 
L 13.140625 51.859375 
L 21.09375 39.703125 
Q 23.34375 36.234375 24.703125 33.890625 
Q 26.859375 37.109375 28.65625 39.59375 
L 37.40625 51.859375 
L 47.90625 51.859375 
L 29.984375 27.4375 
L 49.265625 0 
L 38.484375 0 
L 27.828125 16.109375 
L 25 20.453125 
L 11.375 0 
z
" id="ArialMT-120"/>
     </defs>
     <use xlink:href="#ArialMT-86"/>
     <use x="64.949219" xlink:href="#ArialMT-105"/>
     <use x="87.166016" xlink:href="#ArialMT-111"/>
     <use x="142.78125" xlink:href="#ArialMT-108"/>
     <use x="164.998047" xlink:href="#ArialMT-105"/>
     <use x="187.214844" xlink:href="#ArialMT-110"/>
     <use x="242.830078" xlink:href="#ArialMT-32"/>
     <use x="270.613281" xlink:href="#ArialMT-80"/>
     <use x="337.3125" xlink:href="#ArialMT-108"/>
     <use x="359.529297" xlink:href="#ArialMT-111"/>
     <use x="415.144531" xlink:href="#ArialMT-116"/>
     <use x="442.927734" xlink:href="#ArialMT-58"/>
     <use x="470.710938" xlink:href="#ArialMT-32"/>
     <use x="498.494141" xlink:href="#ArialMT-83"/>
     <use x="565.193359" xlink:href="#ArialMT-104"/>
     <use x="620.808594" xlink:href="#ArialMT-101"/>
     <use x="676.423828" xlink:href="#ArialMT-101"/>
     <use x="732.039062" xlink:href="#ArialMT-116"/>
     <use x="759.822266" xlink:href="#ArialMT-49"/>
     <use x="815.4375" xlink:href="#ArialMT-95"/>
     <use x="871.052734" xlink:href="#ArialMT-72"/>
     <use x="943.269531" xlink:href="#ArialMT-97"/>
     <use x="998.884766" xlink:href="#ArialMT-108"/>
     <use x="1021.101562" xlink:href="#ArialMT-102"/>
     <use x="1048.884766" xlink:href="#ArialMT-95"/>
     <use x="1104.5" xlink:href="#ArialMT-77"/>
     <use x="1187.800781" xlink:href="#ArialMT-97"/>
     <use x="1243.416016" xlink:href="#ArialMT-120"/>
    </g>
   </g>
   <g id="legend_1">
    <g id="patch_10">
     <path d="M 168.705625 93.889531 
L 213.068281 93.889531 
Q 215.268281 93.889531 215.268281 91.689531 
L 215.268281 29.635625 
Q 215.268281 27.435625 213.068281 27.435625 
L 168.705625 27.435625 
Q 166.505625 27.435625 166.505625 29.635625 
L 166.505625 91.689531 
Q 166.505625 93.889531 168.705625 93.889531 
z
" style="fill:#ffffff;opacity:0.8;stroke:#cccccc;stroke-linejoin:miter;"/>
    </g>
    <g id="text_11">
     <!-- Labels -->
     <g style="fill:#262626;" transform="translate(173.207578 40.425)scale(0.12 -0.12)">
      <defs>
       <path d="M 14.703125 0 
L 6.546875 0 
L 6.546875 71.578125 
L 15.328125 71.578125 
L 15.328125 46.046875 
Q 20.90625 53.03125 29.546875 53.03125 
Q 34.328125 53.03125 38.59375 51.09375 
Q 42.875 49.171875 45.625 45.671875 
Q 48.390625 42.1875 49.953125 37.25 
Q 51.515625 32.328125 51.515625 26.703125 
Q 51.515625 13.375 44.921875 6.09375 
Q 38.328125 -1.171875 29.109375 -1.171875 
Q 19.921875 -1.171875 14.703125 6.5 
z
M 14.59375 26.3125 
Q 14.59375 17 17.140625 12.84375 
Q 21.296875 6.0625 28.375 6.0625 
Q 34.125 6.0625 38.328125 11.0625 
Q 42.53125 16.0625 42.53125 25.984375 
Q 42.53125 36.140625 38.5 40.96875 
Q 34.46875 45.796875 28.765625 45.796875 
Q 23 45.796875 18.796875 40.796875 
Q 14.59375 35.796875 14.59375 26.3125 
z
" id="ArialMT-98"/>
       <path d="M 3.078125 15.484375 
L 11.765625 16.84375 
Q 12.5 11.625 15.84375 8.84375 
Q 19.1875 6.0625 25.203125 6.0625 
Q 31.25 6.0625 34.171875 8.515625 
Q 37.109375 10.984375 37.109375 14.3125 
Q 37.109375 17.28125 34.515625 19 
Q 32.71875 20.171875 25.53125 21.96875 
Q 15.875 24.421875 12.140625 26.203125 
Q 8.40625 27.984375 6.46875 31.125 
Q 4.546875 34.28125 4.546875 38.09375 
Q 4.546875 41.546875 6.125 44.5 
Q 7.71875 47.46875 10.453125 49.421875 
Q 12.5 50.921875 16.03125 51.96875 
Q 19.578125 53.03125 23.640625 53.03125 
Q 29.734375 53.03125 34.34375 51.265625 
Q 38.96875 49.515625 41.15625 46.5 
Q 43.359375 43.5 44.1875 38.484375 
L 35.59375 37.3125 
Q 35.015625 41.3125 32.203125 43.546875 
Q 29.390625 45.796875 24.265625 45.796875 
Q 18.21875 45.796875 15.625 43.796875 
Q 13.03125 41.796875 13.03125 39.109375 
Q 13.03125 37.40625 14.109375 36.03125 
Q 15.1875 34.625 17.484375 33.6875 
Q 18.796875 33.203125 25.25 31.453125 
Q 34.578125 28.953125 38.25 27.359375 
Q 41.9375 25.78125 44.03125 22.75 
Q 46.140625 19.734375 46.140625 15.234375 
Q 46.140625 10.84375 43.578125 6.953125 
Q 41.015625 3.078125 36.171875 0.953125 
Q 31.34375 -1.171875 25.25 -1.171875 
Q 15.140625 -1.171875 9.84375 3.03125 
Q 4.546875 7.234375 3.078125 15.484375 
z
" id="ArialMT-115"/>
      </defs>
      <use xlink:href="#ArialMT-76"/>
      <use x="55.615234" xlink:href="#ArialMT-97"/>
      <use x="111.230469" xlink:href="#ArialMT-98"/>
      <use x="166.845703" xlink:href="#ArialMT-101"/>
      <use x="222.460938" xlink:href="#ArialMT-108"/>
      <use x="244.677734" xlink:href="#ArialMT-115"/>
     </g>
    </g>
    <g id="patch_11">
     <path d="M 170.905625 56.183594 
L 192.905625 56.183594 
L 192.905625 48.483594 
L 170.905625 48.483594 
z
" style="fill:#97f0b4;stroke:#757575;stroke-linejoin:miter;stroke-width:0.75;"/>
    </g>
    <g id="text_12">
     <!-- L -->
     <g style="fill:#262626;" transform="translate(201.705625 56.183594)scale(0.11 -0.11)">
      <use xlink:href="#ArialMT-76"/>
     </g>
    </g>
    <g id="patch_12">
     <path d="M 170.905625 71.743437 
L 192.905625 71.743437 
L 192.905625 64.043437 
L 170.905625 64.043437 
z
" style="fill:#97f0b4;stroke:#757575;stroke-linejoin:miter;stroke-width:0.75;"/>
    </g>
    <g id="text_13">
     <!-- M -->
     <g style="fill:#262626;" transform="translate(201.705625 71.743437)scale(0.11 -0.11)">
      <use xlink:href="#ArialMT-77"/>
     </g>
    </g>
    <g id="patch_13">
     <path d="M 170.905625 87.303281 
L 192.905625 87.303281 
L 192.905625 79.603281 
L 170.905625 79.603281 
z
" style="fill:#97f0b4;stroke:#757575;stroke-linejoin:miter;stroke-width:0.75;"/>
    </g>
    <g id="text_14">
     <!-- H -->
     <g style="fill:#262626;" transform="translate(201.705625 87.303281)scale(0.11 -0.11)">
      <use xlink:href="#ArialMT-72"/>
     </g>
    </g>
   </g>
  </g>
 </g>
 <defs>
  <clipPath id="pa2a07067c5">
   <rect height="108.72" width="167.4" x="53.368281" y="21.935625"/>
  </clipPath>
 </defs>
</svg>
