<?xml version="1.0" encoding="utf-8" standalone="no"?>
<!DOCTYPE svg PUBLIC "-//W3C//DTD SVG 1.1//EN"
  "http://www.w3.org/Graphics/SVG/1.1/DTD/svg11.dtd">
<!-- Created with matplotlib (https://matplotlib.org/) -->
<svg height="172.389844pt" version="1.1" viewBox="0 0 243.597656 172.389844" width="243.597656pt" xmlns="http://www.w3.org/2000/svg" xmlns:xlink="http://www.w3.org/1999/xlink">
 <metadata>
  <rdf:RDF xmlns:cc="http://creativecommons.org/ns#" xmlns:dc="http://purl.org/dc/elements/1.1/" xmlns:rdf="http://www.w3.org/1999/02/22-rdf-syntax-ns#">
   <cc:Work>
    <dc:type rdf:resource="http://purl.org/dc/dcmitype/StillImage"/>
    <dc:date>2024-06-05T15:13:45.388200</dc:date>
    <dc:format>image/svg+xml</dc:format>
    <dc:creator>
     <cc:Agent>
      <dc:title>Matplotlib v3.3.2, https://matplotlib.org/</dc:title>
     </cc:Agent>
    </dc:creator>
   </cc:Work>
  </rdf:RDF>
 </metadata>
 <defs>
  <style type="text/css">*{stroke-linecap:butt;stroke-linejoin:round;}</style>
 </defs>
 <g id="figure_1">
  <g id="patch_1">
   <path d="M 0 172.389844 
L 243.597656 172.389844 
L 243.597656 0 
L 0 0 
z
" style="fill:#ffffff;"/>
  </g>
  <g id="axes_1">
   <g id="patch_2">
    <path d="M 50.312344 130.655625 
L 217.712344 130.655625 
L 217.712344 21.935625 
L 50.312344 21.935625 
z
" style="fill:#ffffff;"/>
   </g>
   <g id="matplotlib.axis_1">
    <g id="xtick_1">
     <g id="text_1">
      <!-- H -->
      <g style="fill:#262626;" transform="translate(74.240313 148.029219)scale(0.11 -0.11)">
       <defs>
        <path d="M 8.015625 0 
L 8.015625 71.578125 
L 17.484375 71.578125 
L 17.484375 42.1875 
L 54.6875 42.1875 
L 54.6875 71.578125 
L 64.15625 71.578125 
L 64.15625 0 
L 54.6875 0 
L 54.6875 33.734375 
L 17.484375 33.734375 
L 17.484375 0 
z
" id="ArialMT-72"/>
       </defs>
       <use xlink:href="#ArialMT-72"/>
      </g>
     </g>
    </g>
    <g id="xtick_2">
     <g id="text_2">
      <!-- M -->
      <g style="fill:#262626;" transform="translate(129.431016 148.029219)scale(0.11 -0.11)">
       <defs>
        <path d="M 7.421875 0 
L 7.421875 71.578125 
L 21.6875 71.578125 
L 38.625 20.90625 
Q 40.96875 13.8125 42.046875 10.296875 
Q 43.265625 14.203125 45.84375 21.78125 
L 62.984375 71.578125 
L 75.734375 71.578125 
L 75.734375 0 
L 66.609375 0 
L 66.609375 59.90625 
L 45.796875 0 
L 37.25 0 
L 16.546875 60.9375 
L 16.546875 0 
z
" id="ArialMT-77"/>
       </defs>
       <use xlink:href="#ArialMT-77"/>
      </g>
     </g>
    </g>
    <g id="xtick_3">
     <g id="text_3">
      <!-- L -->
      <g style="fill:#262626;" transform="translate(186.753828 148.029219)scale(0.11 -0.11)">
       <defs>
        <path d="M 7.328125 0 
L 7.328125 71.578125 
L 16.796875 71.578125 
L 16.796875 8.453125 
L 52.046875 8.453125 
L 52.046875 0 
z
" id="ArialMT-76"/>
       </defs>
       <use xlink:href="#ArialMT-76"/>
      </g>
     </g>
    </g>
    <g id="text_4">
     <!-- NaF Condition -->
     <g style="fill:#262626;" transform="translate(95.662031 162.804844)scale(0.12 -0.12)">
      <defs>
       <path d="M 7.625 0 
L 7.625 71.578125 
L 17.328125 71.578125 
L 54.9375 15.375 
L 54.9375 71.578125 
L 64.015625 71.578125 
L 64.015625 0 
L 54.296875 0 
L 16.703125 56.25 
L 16.703125 0 
z
" id="ArialMT-78"/>
       <path d="M 40.4375 6.390625 
Q 35.546875 2.25 31.03125 0.53125 
Q 26.515625 -1.171875 21.34375 -1.171875 
Q 12.796875 -1.171875 8.203125 3 
Q 3.609375 7.171875 3.609375 13.671875 
Q 3.609375 17.484375 5.34375 20.625 
Q 7.078125 23.78125 9.890625 25.6875 
Q 12.703125 27.59375 16.21875 28.5625 
Q 18.796875 29.25 24.03125 29.890625 
Q 34.671875 31.15625 39.703125 32.90625 
Q 39.75 34.71875 39.75 35.203125 
Q 39.75 40.578125 37.25 42.78125 
Q 33.890625 45.75 27.25 45.75 
Q 21.046875 45.75 18.09375 43.578125 
Q 15.140625 41.40625 13.71875 35.890625 
L 5.125 37.0625 
Q 6.296875 42.578125 8.984375 45.96875 
Q 11.671875 49.359375 16.75 51.1875 
Q 21.828125 53.03125 28.515625 53.03125 
Q 35.15625 53.03125 39.296875 51.46875 
Q 43.453125 49.90625 45.40625 47.53125 
Q 47.359375 45.171875 48.140625 41.546875 
Q 48.578125 39.3125 48.578125 33.453125 
L 48.578125 21.734375 
Q 48.578125 9.46875 49.140625 6.21875 
Q 49.703125 2.984375 51.375 0 
L 42.1875 0 
Q 40.828125 2.734375 40.4375 6.390625 
z
M 39.703125 26.03125 
Q 34.90625 24.078125 25.34375 22.703125 
Q 19.921875 21.921875 17.671875 20.9375 
Q 15.4375 19.96875 14.203125 18.09375 
Q 12.984375 16.21875 12.984375 13.921875 
Q 12.984375 10.40625 15.640625 8.0625 
Q 18.3125 5.71875 23.4375 5.71875 
Q 28.515625 5.71875 32.46875 7.9375 
Q 36.421875 10.15625 38.28125 14.015625 
Q 39.703125 17 39.703125 22.796875 
z
" id="ArialMT-97"/>
       <path d="M 8.203125 0 
L 8.203125 71.578125 
L 56.5 71.578125 
L 56.5 63.140625 
L 17.671875 63.140625 
L 17.671875 40.96875 
L 51.265625 40.96875 
L 51.265625 32.515625 
L 17.671875 32.515625 
L 17.671875 0 
z
" id="ArialMT-70"/>
       <path id="ArialMT-32"/>
       <path d="M 58.796875 25.09375 
L 68.265625 22.703125 
Q 65.28125 11.03125 57.546875 4.90625 
Q 49.8125 -1.21875 38.625 -1.21875 
Q 27.046875 -1.21875 19.796875 3.484375 
Q 12.546875 8.203125 8.765625 17.140625 
Q 4.984375 26.078125 4.984375 36.328125 
Q 4.984375 47.515625 9.25 55.828125 
Q 13.53125 64.15625 21.40625 68.46875 
Q 29.296875 72.796875 38.765625 72.796875 
Q 49.515625 72.796875 56.828125 67.328125 
Q 64.15625 61.859375 67.046875 51.953125 
L 57.71875 49.75 
Q 55.21875 57.5625 50.484375 61.125 
Q 45.75 64.703125 38.578125 64.703125 
Q 30.328125 64.703125 24.78125 60.734375 
Q 19.234375 56.78125 16.984375 50.109375 
Q 14.75 43.453125 14.75 36.375 
Q 14.75 27.25 17.40625 20.4375 
Q 20.0625 13.625 25.671875 10.25 
Q 31.296875 6.890625 37.84375 6.890625 
Q 45.796875 6.890625 51.3125 11.46875 
Q 56.84375 16.0625 58.796875 25.09375 
z
" id="ArialMT-67"/>
       <path d="M 3.328125 25.921875 
Q 3.328125 40.328125 11.328125 47.265625 
Q 18.015625 53.03125 27.640625 53.03125 
Q 38.328125 53.03125 45.109375 46.015625 
Q 51.90625 39.015625 51.90625 26.65625 
Q 51.90625 16.65625 48.90625 10.90625 
Q 45.90625 5.171875 40.15625 2 
Q 34.421875 -1.171875 27.640625 -1.171875 
Q 16.75 -1.171875 10.03125 5.8125 
Q 3.328125 12.796875 3.328125 25.921875 
z
M 12.359375 25.921875 
Q 12.359375 15.96875 16.703125 11.015625 
Q 21.046875 6.0625 27.640625 6.0625 
Q 34.1875 6.0625 38.53125 11.03125 
Q 42.875 16.015625 42.875 26.21875 
Q 42.875 35.84375 38.5 40.796875 
Q 34.125 45.75 27.640625 45.75 
Q 21.046875 45.75 16.703125 40.8125 
Q 12.359375 35.890625 12.359375 25.921875 
z
" id="ArialMT-111"/>
       <path d="M 6.59375 0 
L 6.59375 51.859375 
L 14.5 51.859375 
L 14.5 44.484375 
Q 20.21875 53.03125 31 53.03125 
Q 35.6875 53.03125 39.625 51.34375 
Q 43.5625 49.65625 45.515625 46.921875 
Q 47.46875 44.1875 48.25 40.4375 
Q 48.734375 37.984375 48.734375 31.890625 
L 48.734375 0 
L 39.9375 0 
L 39.9375 31.546875 
Q 39.9375 36.921875 38.90625 39.578125 
Q 37.890625 42.234375 35.28125 43.8125 
Q 32.671875 45.40625 29.15625 45.40625 
Q 23.53125 45.40625 19.453125 41.84375 
Q 15.375 38.28125 15.375 28.328125 
L 15.375 0 
z
" id="ArialMT-110"/>
       <path d="M 40.234375 0 
L 40.234375 6.546875 
Q 35.296875 -1.171875 25.734375 -1.171875 
Q 19.53125 -1.171875 14.328125 2.25 
Q 9.125 5.671875 6.265625 11.796875 
Q 3.421875 17.921875 3.421875 25.875 
Q 3.421875 33.640625 6 39.96875 
Q 8.59375 46.296875 13.765625 49.65625 
Q 18.953125 53.03125 25.34375 53.03125 
Q 30.03125 53.03125 33.6875 51.046875 
Q 37.359375 49.078125 39.65625 45.90625 
L 39.65625 71.578125 
L 48.390625 71.578125 
L 48.390625 0 
z
M 12.453125 25.875 
Q 12.453125 15.921875 16.640625 10.984375 
Q 20.84375 6.0625 26.5625 6.0625 
Q 32.328125 6.0625 36.34375 10.765625 
Q 40.375 15.484375 40.375 25.140625 
Q 40.375 35.796875 36.265625 40.765625 
Q 32.171875 45.75 26.171875 45.75 
Q 20.3125 45.75 16.375 40.96875 
Q 12.453125 36.1875 12.453125 25.875 
z
" id="ArialMT-100"/>
       <path d="M 6.640625 61.46875 
L 6.640625 71.578125 
L 15.4375 71.578125 
L 15.4375 61.46875 
z
M 6.640625 0 
L 6.640625 51.859375 
L 15.4375 51.859375 
L 15.4375 0 
z
" id="ArialMT-105"/>
       <path d="M 25.78125 7.859375 
L 27.046875 0.09375 
Q 23.34375 -0.6875 20.40625 -0.6875 
Q 15.625 -0.6875 12.984375 0.828125 
Q 10.359375 2.34375 9.28125 4.8125 
Q 8.203125 7.28125 8.203125 15.1875 
L 8.203125 45.015625 
L 1.765625 45.015625 
L 1.765625 51.859375 
L 8.203125 51.859375 
L 8.203125 64.703125 
L 16.9375 69.96875 
L 16.9375 51.859375 
L 25.78125 51.859375 
L 25.78125 45.015625 
L 16.9375 45.015625 
L 16.9375 14.703125 
Q 16.9375 10.9375 17.40625 9.859375 
Q 17.875 8.796875 18.921875 8.15625 
Q 19.96875 7.515625 21.921875 7.515625 
Q 23.390625 7.515625 25.78125 7.859375 
z
" id="ArialMT-116"/>
      </defs>
      <use xlink:href="#ArialMT-78"/>
      <use x="72.216797" xlink:href="#ArialMT-97"/>
      <use x="127.832031" xlink:href="#ArialMT-70"/>
      <use x="188.916016" xlink:href="#ArialMT-32"/>
      <use x="216.699219" xlink:href="#ArialMT-67"/>
      <use x="288.916016" xlink:href="#ArialMT-111"/>
      <use x="344.53125" xlink:href="#ArialMT-110"/>
      <use x="400.146484" xlink:href="#ArialMT-100"/>
      <use x="455.761719" xlink:href="#ArialMT-105"/>
      <use x="477.978516" xlink:href="#ArialMT-116"/>
      <use x="505.761719" xlink:href="#ArialMT-105"/>
      <use x="527.978516" xlink:href="#ArialMT-111"/>
      <use x="583.59375" xlink:href="#ArialMT-110"/>
     </g>
    </g>
   </g>
   <g id="matplotlib.axis_2">
    <g id="ytick_1">
     <g id="line2d_1">
      <path clip-path="url(#p9d6141943c)" d="M 50.312344 98.447929 
L 217.712344 98.447929 
" style="fill:none;stroke:#cccccc;stroke-linecap:round;"/>
     </g>
     <g id="text_5">
      <!-- 200 -->
      <g style="fill:#262626;" transform="translate(22.46125 102.384726)scale(0.11 -0.11)">
       <defs>
        <path d="M 50.34375 8.453125 
L 50.34375 0 
L 3.03125 0 
Q 2.9375 3.171875 4.046875 6.109375 
Q 5.859375 10.9375 9.828125 15.625 
Q 13.8125 20.3125 21.34375 26.46875 
Q 33.015625 36.03125 37.109375 41.625 
Q 41.21875 47.21875 41.21875 52.203125 
Q 41.21875 57.421875 37.46875 61 
Q 33.734375 64.59375 27.734375 64.59375 
Q 21.390625 64.59375 17.578125 60.78125 
Q 13.765625 56.984375 13.71875 50.25 
L 4.6875 51.171875 
Q 5.609375 61.28125 11.65625 66.578125 
Q 17.71875 71.875 27.9375 71.875 
Q 38.234375 71.875 44.234375 66.15625 
Q 50.25 60.453125 50.25 52 
Q 50.25 47.703125 48.484375 43.546875 
Q 46.734375 39.40625 42.65625 34.8125 
Q 38.578125 30.21875 29.109375 22.21875 
Q 21.1875 15.578125 18.9375 13.203125 
Q 16.703125 10.84375 15.234375 8.453125 
z
" id="ArialMT-50"/>
        <path d="M 4.15625 35.296875 
Q 4.15625 48 6.765625 55.734375 
Q 9.375 63.484375 14.515625 67.671875 
Q 19.671875 71.875 27.484375 71.875 
Q 33.25 71.875 37.59375 69.546875 
Q 41.9375 67.234375 44.765625 62.859375 
Q 47.609375 58.5 49.21875 52.21875 
Q 50.828125 45.953125 50.828125 35.296875 
Q 50.828125 22.703125 48.234375 14.96875 
Q 45.65625 7.234375 40.5 3 
Q 35.359375 -1.21875 27.484375 -1.21875 
Q 17.140625 -1.21875 11.234375 6.203125 
Q 4.15625 15.140625 4.15625 35.296875 
z
M 13.1875 35.296875 
Q 13.1875 17.671875 17.3125 11.828125 
Q 21.4375 6 27.484375 6 
Q 33.546875 6 37.671875 11.859375 
Q 41.796875 17.71875 41.796875 35.296875 
Q 41.796875 52.984375 37.671875 58.78125 
Q 33.546875 64.59375 27.390625 64.59375 
Q 21.34375 64.59375 17.71875 59.46875 
Q 13.1875 52.9375 13.1875 35.296875 
z
" id="ArialMT-48"/>
       </defs>
       <use xlink:href="#ArialMT-50"/>
       <use x="55.615234" xlink:href="#ArialMT-48"/>
       <use x="111.230469" xlink:href="#ArialMT-48"/>
      </g>
     </g>
    </g>
    <g id="ytick_2">
     <g id="line2d_2">
      <path clip-path="url(#p9d6141943c)" d="M 50.312344 51.688448 
L 217.712344 51.688448 
" style="fill:none;stroke:#cccccc;stroke-linecap:round;"/>
     </g>
     <g id="text_6">
      <!-- 400 -->
      <g style="fill:#262626;" transform="translate(22.46125 55.625245)scale(0.11 -0.11)">
       <defs>
        <path d="M 32.328125 0 
L 32.328125 17.140625 
L 1.265625 17.140625 
L 1.265625 25.203125 
L 33.9375 71.578125 
L 41.109375 71.578125 
L 41.109375 25.203125 
L 50.78125 25.203125 
L 50.78125 17.140625 
L 41.109375 17.140625 
L 41.109375 0 
z
M 32.328125 25.203125 
L 32.328125 57.46875 
L 9.90625 25.203125 
z
" id="ArialMT-52"/>
       </defs>
       <use xlink:href="#ArialMT-52"/>
       <use x="55.615234" xlink:href="#ArialMT-48"/>
       <use x="111.230469" xlink:href="#ArialMT-48"/>
      </g>
     </g>
    </g>
    <g id="text_7">
     <!-- MEF (uM FITC) -->
     <g style="fill:#262626;" transform="translate(15.935625 117.953437)rotate(-90)scale(0.12 -0.12)">
      <defs>
       <path d="M 7.90625 0 
L 7.90625 71.578125 
L 59.671875 71.578125 
L 59.671875 63.140625 
L 17.390625 63.140625 
L 17.390625 41.21875 
L 56.984375 41.21875 
L 56.984375 32.8125 
L 17.390625 32.8125 
L 17.390625 8.453125 
L 61.328125 8.453125 
L 61.328125 0 
z
" id="ArialMT-69"/>
       <path d="M 23.390625 -21.046875 
Q 16.109375 -11.859375 11.078125 0.4375 
Q 6.0625 12.75 6.0625 25.921875 
Q 6.0625 37.546875 9.8125 48.1875 
Q 14.203125 60.546875 23.390625 72.796875 
L 29.6875 72.796875 
Q 23.78125 62.640625 21.875 58.296875 
Q 18.890625 51.5625 17.1875 44.234375 
Q 15.09375 35.109375 15.09375 25.875 
Q 15.09375 2.390625 29.6875 -21.046875 
z
" id="ArialMT-40"/>
       <path d="M 40.578125 0 
L 40.578125 7.625 
Q 34.515625 -1.171875 24.125 -1.171875 
Q 19.53125 -1.171875 15.546875 0.578125 
Q 11.578125 2.34375 9.640625 5 
Q 7.71875 7.671875 6.9375 11.53125 
Q 6.390625 14.109375 6.390625 19.734375 
L 6.390625 51.859375 
L 15.1875 51.859375 
L 15.1875 23.09375 
Q 15.1875 16.21875 15.71875 13.8125 
Q 16.546875 10.359375 19.234375 8.375 
Q 21.921875 6.390625 25.875 6.390625 
Q 29.828125 6.390625 33.296875 8.421875 
Q 36.765625 10.453125 38.203125 13.9375 
Q 39.65625 17.4375 39.65625 24.078125 
L 39.65625 51.859375 
L 48.4375 51.859375 
L 48.4375 0 
z
" id="ArialMT-117"/>
       <path d="M 9.328125 0 
L 9.328125 71.578125 
L 18.796875 71.578125 
L 18.796875 0 
z
" id="ArialMT-73"/>
       <path d="M 25.921875 0 
L 25.921875 63.140625 
L 2.34375 63.140625 
L 2.34375 71.578125 
L 59.078125 71.578125 
L 59.078125 63.140625 
L 35.40625 63.140625 
L 35.40625 0 
z
" id="ArialMT-84"/>
       <path d="M 12.359375 -21.046875 
L 6.0625 -21.046875 
Q 20.65625 2.390625 20.65625 25.875 
Q 20.65625 35.0625 18.5625 44.09375 
Q 16.890625 51.421875 13.921875 58.15625 
Q 12.015625 62.546875 6.0625 72.796875 
L 12.359375 72.796875 
Q 21.53125 60.546875 25.921875 48.1875 
Q 29.6875 37.546875 29.6875 25.921875 
Q 29.6875 12.75 24.625 0.4375 
Q 19.578125 -11.859375 12.359375 -21.046875 
z
" id="ArialMT-41"/>
      </defs>
      <use xlink:href="#ArialMT-77"/>
      <use x="83.300781" xlink:href="#ArialMT-69"/>
      <use x="150" xlink:href="#ArialMT-70"/>
      <use x="211.083984" xlink:href="#ArialMT-32"/>
      <use x="238.867188" xlink:href="#ArialMT-40"/>
      <use x="272.167969" xlink:href="#ArialMT-117"/>
      <use x="327.783203" xlink:href="#ArialMT-77"/>
      <use x="411.083984" xlink:href="#ArialMT-32"/>
      <use x="438.867188" xlink:href="#ArialMT-70"/>
      <use x="499.951172" xlink:href="#ArialMT-73"/>
      <use x="527.734375" xlink:href="#ArialMT-84"/>
      <use x="588.818359" xlink:href="#ArialMT-67"/>
      <use x="661.035156" xlink:href="#ArialMT-41"/>
     </g>
    </g>
   </g>
   <g id="PolyCollection_1">
    <defs>
     <path d="M 78.264129 -81.286816 
L 78.160558 -81.286816 
L 78.121762 -81.54447 
L 78.06753 -81.802125 
L 78.000492 -82.059779 
L 77.92807 -82.317434 
L 77.860814 -82.575088 
L 77.808109 -82.832742 
L 77.772953 -83.090397 
L 77.748859 -83.348051 
L 77.721574 -83.605706 
L 77.675759 -83.86336 
L 77.603557 -84.121014 
L 77.510098 -84.378669 
L 77.412136 -84.636323 
L 77.329887 -84.893978 
L 77.276441 -85.151632 
L 77.250924 -85.409286 
L 77.239357 -85.666941 
L 77.222183 -85.924595 
L 77.183114 -86.182249 
L 77.112994 -86.439904 
L 77.005158 -86.697558 
L 76.843422 -86.955213 
L 76.588115 -87.212867 
L 76.168137 -87.470521 
L 75.486897 -87.728176 
L 74.446051 -87.98583 
L 72.983085 -88.243485 
L 71.1091 -88.501139 
L 68.927374 -88.758793 
L 66.617286 -89.016448 
L 64.383748 -89.274102 
L 62.392428 -89.531757 
L 60.722735 -89.789411 
L 59.363306 -90.047065 
L 58.250836 -90.30472 
L 57.327915 -90.562374 
L 56.586823 -90.820029 
L 56.078931 -91.077683 
L 55.892344 -91.335337 
L 56.116294 -91.592992 
L 56.81083 -91.850646 
L 57.989498 -92.108301 
L 59.612831 -92.365955 
L 61.588778 -92.623609 
L 63.780697 -92.881264 
L 66.026357 -93.138918 
L 68.167599 -93.396573 
L 70.082266 -93.654227 
L 71.70545 -93.911881 
L 73.031158 -94.169536 
L 74.095776 -94.42719 
L 74.953563 -94.684844 
L 75.655797 -94.942499 
L 76.239935 -95.200153 
L 76.728348 -95.457808 
L 77.132474 -95.715462 
L 77.458286 -95.973116 
L 77.710787 -96.230771 
L 77.896754 -96.488425 
L 78.025668 -96.74608 
L 78.109113 -97.003734 
L 78.159228 -97.261388 
L 78.187014 -97.519043 
L 78.201185 -97.776697 
L 78.207814 -98.034352 
L 78.210652 -98.292006 
L 78.211764 -98.54966 
L 78.212162 -98.807315 
L 78.212291 -99.064969 
L 78.21233 -99.322624 
L 78.21234 -99.580278 
L 78.212343 -99.837932 
L 78.212344 -100.095587 
L 78.212344 -100.353241 
L 78.212343 -100.610896 
L 78.212342 -100.86855 
L 78.212336 -101.126204 
L 78.212312 -101.383859 
L 78.212233 -101.641513 
L 78.211985 -101.899167 
L 78.211286 -102.156822 
L 78.209496 -102.414476 
L 78.205346 -102.672131 
L 78.196643 -102.929785 
L 78.180183 -103.187439 
L 78.152204 -103.445094 
L 78.109672 -103.702748 
L 78.05232 -103.960403 
L 77.984642 -104.218057 
L 77.916546 -104.475711 
L 77.861536 -104.733366 
L 77.832513 -104.99102 
L 77.836889 -105.248675 
L 77.873521 -105.506329 
L 77.933196 -105.763983 
L 78.002381 -106.021638 
L 78.068166 -106.279292 
L 78.121958 -106.536947 
L 78.160613 -106.794601 
L 78.264075 -106.794601 
L 78.264075 -106.794601 
L 78.30273 -106.536947 
L 78.356522 -106.279292 
L 78.422307 -106.021638 
L 78.491492 -105.763983 
L 78.551167 -105.506329 
L 78.587799 -105.248675 
L 78.592174 -104.99102 
L 78.563151 -104.733366 
L 78.508141 -104.475711 
L 78.440046 -104.218057 
L 78.372368 -103.960403 
L 78.315016 -103.702748 
L 78.272484 -103.445094 
L 78.244504 -103.187439 
L 78.228045 -102.929785 
L 78.219342 -102.672131 
L 78.215191 -102.414476 
L 78.213402 -102.156822 
L 78.212703 -101.899167 
L 78.212455 -101.641513 
L 78.212375 -101.383859 
L 78.212352 -101.126204 
L 78.212346 -100.86855 
L 78.212344 -100.610896 
L 78.212344 -100.353241 
L 78.212344 -100.095587 
L 78.212344 -99.837932 
L 78.212347 -99.580278 
L 78.212358 -99.322624 
L 78.212396 -99.064969 
L 78.212526 -98.807315 
L 78.212923 -98.54966 
L 78.214035 -98.292006 
L 78.216874 -98.034352 
L 78.223503 -97.776697 
L 78.237673 -97.519043 
L 78.26546 -97.261388 
L 78.315574 -97.003734 
L 78.39902 -96.74608 
L 78.527934 -96.488425 
L 78.7139 -96.230771 
L 78.966401 -95.973116 
L 79.292214 -95.715462 
L 79.69634 -95.457808 
L 80.184753 -95.200153 
L 80.768891 -94.942499 
L 81.471125 -94.684844 
L 82.328911 -94.42719 
L 83.393529 -94.169536 
L 84.719237 -93.911881 
L 86.342422 -93.654227 
L 88.257088 -93.396573 
L 90.39833 -93.138918 
L 92.643991 -92.881264 
L 94.83591 -92.623609 
L 96.811857 -92.365955 
L 98.435189 -92.108301 
L 99.613858 -91.850646 
L 100.308394 -91.592992 
L 100.532344 -91.335337 
L 100.345756 -91.077683 
L 99.837865 -90.820029 
L 99.096772 -90.562374 
L 98.173851 -90.30472 
L 97.061381 -90.047065 
L 95.701953 -89.789411 
L 94.032259 -89.531757 
L 92.040939 -89.274102 
L 89.807401 -89.016448 
L 87.497313 -88.758793 
L 85.315587 -88.501139 
L 83.441603 -88.243485 
L 81.978637 -87.98583 
L 80.937791 -87.728176 
L 80.25655 -87.470521 
L 79.836573 -87.212867 
L 79.581265 -86.955213 
L 79.419529 -86.697558 
L 79.311693 -86.439904 
L 79.241573 -86.182249 
L 79.202505 -85.924595 
L 79.18533 -85.666941 
L 79.173763 -85.409286 
L 79.148247 -85.151632 
L 79.094801 -84.893978 
L 79.012552 -84.636323 
L 78.91459 -84.378669 
L 78.82113 -84.121014 
L 78.748928 -83.86336 
L 78.703114 -83.605706 
L 78.675829 -83.348051 
L 78.651735 -83.090397 
L 78.616578 -82.832742 
L 78.563874 -82.575088 
L 78.496618 -82.317434 
L 78.424196 -82.059779 
L 78.357157 -81.802125 
L 78.302925 -81.54447 
L 78.264129 -81.286816 
z
" id="m80cc2dd6f6" style="stroke:#757575;stroke-width:1.5;"/>
    </defs>
    <g clip-path="url(#p9d6141943c)">
     <use style="fill:#97f0b4;stroke:#757575;stroke-width:1.5;" x="0" xlink:href="#m80cc2dd6f6" y="172.389844"/>
    </g>
   </g>
   <g id="PolyCollection_2">
    <defs>
     <path d="M 134.077779 -64.560289 
L 133.946909 -64.560289 
L 133.9176 -64.87235 
L 133.880105 -65.184411 
L 133.834358 -65.496472 
L 133.781221 -65.808533 
L 133.722593 -66.120594 
L 133.661308 -66.432655 
L 133.600802 -66.744715 
L 133.544579 -67.056776 
L 133.495573 -67.368837 
L 133.455558 -67.680898 
L 133.424779 -67.992959 
L 133.401916 -68.30502 
L 133.384412 -68.617081 
L 133.369103 -68.929141 
L 133.352967 -69.241202 
L 133.333802 -69.553263 
L 133.310643 -69.865324 
L 133.283814 -70.177385 
L 133.254617 -70.489446 
L 133.224716 -70.801507 
L 133.195347 -71.113568 
L 133.166454 -71.425628 
L 133.135823 -71.737689 
L 133.098266 -72.04975 
L 133.044914 -72.361811 
L 132.962706 -72.673872 
L 132.834256 -72.985933 
L 132.638303 -73.297994 
L 132.350938 -73.610054 
L 131.947714 -73.922115 
L 131.406561 -74.234176 
L 130.711217 -74.546237 
L 129.854721 -74.858298 
L 128.842379 -75.170359 
L 127.693647 -75.48242 
L 126.442469 -75.794481 
L 125.135819 -76.106541 
L 123.830411 -76.418602 
L 122.587787 -76.730663 
L 121.468195 -77.042724 
L 120.523819 -77.354785 
L 119.792141 -77.666846 
L 119.290297 -77.978907 
L 119.011384 -78.290968 
L 118.923608 -78.603028 
L 118.972895 -78.915089 
L 119.089086 -79.22715 
L 119.195213 -79.539211 
L 119.218605 -79.851272 
L 119.102035 -80.163333 
L 118.812835 -80.475394 
L 118.348088 -80.787454 
L 117.73461 -81.099515 
L 117.023398 -81.411576 
L 116.279367 -81.723637 
L 115.568282 -82.035698 
L 114.943527 -82.347759 
L 114.435618 -82.65982 
L 114.04695 -82.971881 
L 113.753229 -83.283941 
L 113.511575 -83.596002 
L 113.273668 -83.908063 
L 113.000989 -84.220124 
L 112.678515 -84.532185 
L 112.32345 -84.844246 
L 111.986603 -85.156307 
L 111.745768 -85.468368 
L 111.692344 -85.780428 
L 111.914063 -86.092489 
L 112.477624 -86.40455 
L 113.414981 -86.716611 
L 114.716138 -87.028672 
L 116.3297 -87.340733 
L 118.170672 -87.652794 
L 120.133452 -87.964854 
L 122.107107 -88.276915 
L 123.989869 -88.588976 
L 125.700409 -88.901037 
L 127.184487 -89.213098 
L 128.416719 -89.525159 
L 129.398148 -89.83722 
L 130.150889 -90.149281 
L 130.711271 -90.461341 
L 131.122743 -90.773402 
L 131.429514 -91.085463 
L 131.671503 -91.397524 
L 131.880917 -91.709585 
L 132.080483 -92.021646 
L 132.283242 -92.333707 
L 132.49361 -92.645767 
L 132.709361 -92.957828 
L 132.924068 -93.269889 
L 133.129567 -93.58195 
L 133.318052 -93.894011 
L 133.483549 -94.206072 
L 133.62267 -94.518133 
L 133.734693 -94.830194 
L 133.821155 -95.142254 
L 133.885163 -95.454315 
L 134.139525 -95.454315 
L 134.139525 -95.454315 
L 134.203533 -95.142254 
L 134.289995 -94.830194 
L 134.402018 -94.518133 
L 134.541138 -94.206072 
L 134.706636 -93.894011 
L 134.895121 -93.58195 
L 135.100619 -93.269889 
L 135.315326 -92.957828 
L 135.531077 -92.645767 
L 135.741446 -92.333707 
L 135.944204 -92.021646 
L 136.143771 -91.709585 
L 136.353184 -91.397524 
L 136.595174 -91.085463 
L 136.901944 -90.773402 
L 137.313417 -90.461341 
L 137.873799 -90.149281 
L 138.62654 -89.83722 
L 139.607968 -89.525159 
L 140.8402 -89.213098 
L 142.324278 -88.901037 
L 144.034818 -88.588976 
L 145.91758 -88.276915 
L 147.891236 -87.964854 
L 149.854016 -87.652794 
L 151.694987 -87.340733 
L 153.308549 -87.028672 
L 154.609706 -86.716611 
L 155.547063 -86.40455 
L 156.110624 -86.092489 
L 156.332344 -85.780428 
L 156.278919 -85.468368 
L 156.038084 -85.156307 
L 155.701237 -84.844246 
L 155.346172 -84.532185 
L 155.023699 -84.220124 
L 154.751019 -83.908063 
L 154.513113 -83.596002 
L 154.271459 -83.283941 
L 153.977738 -82.971881 
L 153.58907 -82.65982 
L 153.081161 -82.347759 
L 152.456405 -82.035698 
L 151.74532 -81.723637 
L 151.00129 -81.411576 
L 150.290077 -81.099515 
L 149.676599 -80.787454 
L 149.211852 -80.475394 
L 148.922652 -80.163333 
L 148.806082 -79.851272 
L 148.829475 -79.539211 
L 148.935602 -79.22715 
L 149.051793 -78.915089 
L 149.101079 -78.603028 
L 149.013304 -78.290968 
L 148.73439 -77.978907 
L 148.232547 -77.666846 
L 147.500869 -77.354785 
L 146.556493 -77.042724 
L 145.4369 -76.730663 
L 144.194277 -76.418602 
L 142.888868 -76.106541 
L 141.582218 -75.794481 
L 140.331041 -75.48242 
L 139.182309 -75.170359 
L 138.169966 -74.858298 
L 137.31347 -74.546237 
L 136.618127 -74.234176 
L 136.076974 -73.922115 
L 135.67375 -73.610054 
L 135.386384 -73.297994 
L 135.190431 -72.985933 
L 135.061981 -72.673872 
L 134.979773 -72.361811 
L 134.926421 -72.04975 
L 134.888865 -71.737689 
L 134.858233 -71.425628 
L 134.82934 -71.113568 
L 134.799972 -70.801507 
L 134.770071 -70.489446 
L 134.740873 -70.177385 
L 134.714045 -69.865324 
L 134.690885 -69.553263 
L 134.67172 -69.241202 
L 134.655584 -68.929141 
L 134.640275 -68.617081 
L 134.622771 -68.30502 
L 134.599908 -67.992959 
L 134.56913 -67.680898 
L 134.529115 -67.368837 
L 134.480109 -67.056776 
L 134.423886 -66.744715 
L 134.363379 -66.432655 
L 134.302094 -66.120594 
L 134.243466 -65.808533 
L 134.19033 -65.496472 
L 134.144582 -65.184411 
L 134.107087 -64.87235 
L 134.077779 -64.560289 
z
" id="m5138459734" style="stroke:#757575;stroke-width:1.5;"/>
    </defs>
    <g clip-path="url(#p9d6141943c)">
     <use style="fill:#97f0b4;stroke:#757575;stroke-width:1.5;" x="0" xlink:href="#m5138459734" y="172.389844"/>
    </g>
   </g>
   <g id="PolyCollection_3">
    <defs>
     <path d="M 189.862595 -46.676037 
L 189.762092 -46.676037 
L 189.724136 -47.674384 
L 189.669641 -48.672731 
L 189.598366 -49.671078 
L 189.51202 -50.669425 
L 189.41122 -51.667772 
L 189.289426 -52.66612 
L 189.125228 -53.664467 
L 188.875857 -54.662814 
L 188.475323 -55.661161 
L 187.839831 -56.659508 
L 186.881556 -57.657855 
L 185.529667 -58.656202 
L 183.754608 -59.654549 
L 181.588524 -60.652896 
L 179.133121 -61.651244 
L 176.548909 -62.649591 
L 174.027096 -63.647938 
L 171.75402 -64.646285 
L 169.88198 -65.644632 
L 168.515769 -66.642979 
L 167.713606 -67.641326 
L 167.492344 -68.639673 
L 167.826913 -69.63802 
L 168.643623 -70.636368 
L 169.818099 -71.634715 
L 171.191202 -72.633062 
L 172.606047 -73.631409 
L 173.952962 -74.629756 
L 175.199308 -75.628103 
L 176.386138 -76.62645 
L 177.591365 -77.624797 
L 178.878131 -78.623144 
L 180.255228 -79.621491 
L 181.668945 -80.619839 
L 183.027582 -81.618186 
L 184.242397 -82.616533 
L 185.261999 -83.61488 
L 186.084068 -84.613227 
L 186.743064 -85.611574 
L 187.285617 -86.609921 
L 187.749075 -87.608268 
L 188.152863 -88.606615 
L 188.502354 -89.604963 
L 188.79803 -90.60331 
L 189.042325 -91.601657 
L 189.241047 -92.600004 
L 189.401118 -93.598351 
L 189.528139 -94.596698 
L 189.625879 -95.595045 
L 189.697391 -96.593392 
L 189.7463 -97.591739 
L 189.777196 -98.590087 
L 189.79509 -99.588434 
L 189.804554 -100.586781 
L 189.809115 -101.585128 
L 189.811117 -102.583475 
L 189.811917 -103.581822 
L 189.812208 -104.580169 
L 189.812304 -105.578516 
L 189.812333 -106.576863 
L 189.812341 -107.57521 
L 189.812343 -108.573558 
L 189.812344 -109.571905 
L 189.812344 -110.570252 
L 189.812344 -111.568599 
L 189.812344 -112.566946 
L 189.812344 -113.565293 
L 189.812344 -114.56364 
L 189.812344 -115.561987 
L 189.812344 -116.560334 
L 189.812344 -117.558682 
L 189.812344 -118.557029 
L 189.812344 -119.555376 
L 189.812344 -120.553723 
L 189.812343 -121.55207 
L 189.812341 -122.550417 
L 189.812333 -123.548764 
L 189.812303 -124.547111 
L 189.812204 -125.545458 
L 189.811908 -126.543806 
L 189.811097 -127.542153 
L 189.809085 -128.5405 
L 189.804547 -129.538847 
L 189.795279 -130.537194 
L 189.778179 -131.535541 
L 189.749768 -132.533888 
L 189.707495 -133.532235 
L 189.65163 -134.530582 
L 189.586983 -135.528929 
L 189.523252 -136.527277 
L 189.473088 -137.525624 
L 189.448133 -138.523971 
L 189.454649 -139.522318 
L 189.490974 -140.520665 
L 189.548206 -141.519012 
L 189.613738 -142.517359 
L 189.675733 -143.515706 
L 189.726381 -144.514053 
L 189.762859 -145.512401 
L 189.861829 -145.512401 
L 189.861829 -145.512401 
L 189.898307 -144.514053 
L 189.948954 -143.515706 
L 190.010949 -142.517359 
L 190.076482 -141.519012 
L 190.133713 -140.520665 
L 190.170038 -139.522318 
L 190.176555 -138.523971 
L 190.1516 -137.525624 
L 190.101436 -136.527277 
L 190.037704 -135.528929 
L 189.973057 -134.530582 
L 189.917192 -133.532235 
L 189.874919 -132.533888 
L 189.846509 -131.535541 
L 189.829408 -130.537194 
L 189.820141 -129.538847 
L 189.815603 -128.5405 
L 189.81359 -127.542153 
L 189.81278 -126.543806 
L 189.812483 -125.545458 
L 189.812385 -124.547111 
L 189.812355 -123.548764 
L 189.812346 -122.550417 
L 189.812344 -121.55207 
L 189.812344 -120.553723 
L 189.812344 -119.555376 
L 189.812344 -118.557029 
L 189.812344 -117.558682 
L 189.812344 -116.560334 
L 189.812344 -115.561987 
L 189.812344 -114.56364 
L 189.812344 -113.565293 
L 189.812344 -112.566946 
L 189.812344 -111.568599 
L 189.812344 -110.570252 
L 189.812344 -109.571905 
L 189.812344 -108.573558 
L 189.812346 -107.57521 
L 189.812354 -106.576863 
L 189.812383 -105.578516 
L 189.81248 -104.580169 
L 189.812771 -103.581822 
L 189.813571 -102.583475 
L 189.815572 -101.585128 
L 189.820133 -100.586781 
L 189.829597 -99.588434 
L 189.847491 -98.590087 
L 189.878387 -97.591739 
L 189.927296 -96.593392 
L 189.998808 -95.595045 
L 190.096549 -94.596698 
L 190.22357 -93.598351 
L 190.38364 -92.600004 
L 190.582363 -91.601657 
L 190.826657 -90.60331 
L 191.122333 -89.604963 
L 191.471824 -88.606615 
L 191.875613 -87.608268 
L 192.339071 -86.609921 
L 192.881623 -85.611574 
L 193.540619 -84.613227 
L 194.362688 -83.61488 
L 195.382291 -82.616533 
L 196.597105 -81.618186 
L 197.955743 -80.619839 
L 199.36946 -79.621491 
L 200.746557 -78.623144 
L 202.033323 -77.624797 
L 203.23855 -76.62645 
L 204.42538 -75.628103 
L 205.671726 -74.629756 
L 207.018641 -73.631409 
L 208.433486 -72.633062 
L 209.806589 -71.634715 
L 210.981065 -70.636368 
L 211.797774 -69.63802 
L 212.132344 -68.639673 
L 211.911081 -67.641326 
L 211.108919 -66.642979 
L 209.742707 -65.644632 
L 207.870668 -64.646285 
L 205.597591 -63.647938 
L 203.075778 -62.649591 
L 200.491567 -61.651244 
L 198.036164 -60.652896 
L 195.870079 -59.654549 
L 194.095021 -58.656202 
L 192.743131 -57.657855 
L 191.784857 -56.659508 
L 191.149364 -55.661161 
L 190.74883 -54.662814 
L 190.49946 -53.664467 
L 190.335262 -52.66612 
L 190.213468 -51.667772 
L 190.112667 -50.669425 
L 190.026322 -49.671078 
L 189.955047 -48.672731 
L 189.900552 -47.674384 
L 189.862595 -46.676037 
z
" id="m0cae744ee0" style="stroke:#757575;stroke-width:1.5;"/>
    </defs>
    <g clip-path="url(#p9d6141943c)">
     <use style="fill:#97f0b4;stroke:#757575;stroke-width:1.5;" x="0" xlink:href="#m0cae744ee0" y="172.389844"/>
    </g>
   </g>
   <g id="patch_3">
    <path clip-path="url(#p9d6141943c)" d="M 78.212344 145.207411 
L 78.212344 145.207411 
L 78.212344 145.207411 
L 78.212344 145.207411 
z
" style="fill:#97f0b4;stroke:#757575;stroke-linejoin:miter;stroke-width:0.75;"/>
   </g>
   <g id="patch_4">
    <path clip-path="url(#p9d6141943c)" d="M 78.212344 145.207411 
L 78.212344 145.207411 
L 78.212344 145.207411 
L 78.212344 145.207411 
z
" style="fill:#97f0b4;stroke:#757575;stroke-linejoin:miter;stroke-width:0.75;"/>
   </g>
   <g id="patch_5">
    <path clip-path="url(#p9d6141943c)" d="M 78.212344 145.207411 
L 78.212344 145.207411 
L 78.212344 145.207411 
L 78.212344 145.207411 
z
" style="fill:#97f0b4;stroke:#757575;stroke-linejoin:miter;stroke-width:0.75;"/>
   </g>
   <g id="patch_6">
    <path d="M 50.312344 130.655625 
L 50.312344 21.935625 
" style="fill:none;stroke:#cccccc;stroke-linecap:square;stroke-linejoin:miter;stroke-width:1.25;"/>
   </g>
   <g id="patch_7">
    <path d="M 217.712344 130.655625 
L 217.712344 21.935625 
" style="fill:none;stroke:#cccccc;stroke-linecap:square;stroke-linejoin:miter;stroke-width:1.25;"/>
   </g>
   <g id="patch_8">
    <path d="M 50.312344 130.655625 
L 217.712344 130.655625 
" style="fill:none;stroke:#cccccc;stroke-linecap:square;stroke-linejoin:miter;stroke-width:1.25;"/>
   </g>
   <g id="patch_9">
    <path d="M 50.312344 21.935625 
L 217.712344 21.935625 
" style="fill:none;stroke:#cccccc;stroke-linecap:square;stroke-linejoin:miter;stroke-width:1.25;"/>
   </g>
   <g id="text_8">
    <!-- Violin Plot: Sheet1_Time_to_Half_Max -->
    <g style="fill:#262626;" transform="translate(31.627031 15.935625)scale(0.12 -0.12)">
     <defs>
      <path d="M 28.171875 0 
L 0.4375 71.578125 
L 10.6875 71.578125 
L 29.296875 19.578125 
Q 31.546875 13.328125 33.0625 7.859375 
Q 34.71875 13.71875 36.921875 19.578125 
L 56.25 71.578125 
L 65.921875 71.578125 
L 37.890625 0 
z
" id="ArialMT-86"/>
      <path d="M 6.390625 0 
L 6.390625 71.578125 
L 15.1875 71.578125 
L 15.1875 0 
z
" id="ArialMT-108"/>
      <path d="M 7.71875 0 
L 7.71875 71.578125 
L 34.71875 71.578125 
Q 41.84375 71.578125 45.609375 70.90625 
Q 50.875 70.015625 54.4375 67.546875 
Q 58.015625 65.09375 60.1875 60.640625 
Q 62.359375 56.203125 62.359375 50.875 
Q 62.359375 41.75 56.546875 35.421875 
Q 50.734375 29.109375 35.546875 29.109375 
L 17.1875 29.109375 
L 17.1875 0 
z
M 17.1875 37.546875 
L 35.6875 37.546875 
Q 44.875 37.546875 48.734375 40.96875 
Q 52.59375 44.390625 52.59375 50.59375 
Q 52.59375 55.078125 50.3125 58.265625 
Q 48.046875 61.46875 44.34375 62.5 
Q 41.9375 63.140625 35.5 63.140625 
L 17.1875 63.140625 
z
" id="ArialMT-80"/>
      <path d="M 9.03125 41.84375 
L 9.03125 51.859375 
L 19.046875 51.859375 
L 19.046875 41.84375 
z
M 9.03125 0 
L 9.03125 10.015625 
L 19.046875 10.015625 
L 19.046875 0 
z
" id="ArialMT-58"/>
      <path d="M 4.5 23 
L 13.421875 23.78125 
Q 14.0625 18.40625 16.375 14.96875 
Q 18.703125 11.53125 23.578125 9.40625 
Q 28.46875 7.28125 34.578125 7.28125 
Q 39.984375 7.28125 44.140625 8.890625 
Q 48.296875 10.5 50.3125 13.296875 
Q 52.34375 16.109375 52.34375 19.4375 
Q 52.34375 22.796875 50.390625 25.3125 
Q 48.4375 27.828125 43.953125 29.546875 
Q 41.0625 30.671875 31.203125 33.03125 
Q 21.34375 35.40625 17.390625 37.5 
Q 12.25 40.1875 9.734375 44.15625 
Q 7.234375 48.140625 7.234375 53.078125 
Q 7.234375 58.5 10.296875 63.203125 
Q 13.375 67.921875 19.28125 70.359375 
Q 25.203125 72.796875 32.421875 72.796875 
Q 40.375 72.796875 46.453125 70.234375 
Q 52.546875 67.671875 55.8125 62.6875 
Q 59.078125 57.71875 59.328125 51.421875 
L 50.25 50.734375 
Q 49.515625 57.515625 45.28125 60.984375 
Q 41.0625 64.453125 32.8125 64.453125 
Q 24.21875 64.453125 20.28125 61.296875 
Q 16.359375 58.15625 16.359375 53.71875 
Q 16.359375 49.859375 19.140625 47.359375 
Q 21.875 44.875 33.421875 42.265625 
Q 44.96875 39.65625 49.265625 37.703125 
Q 55.515625 34.8125 58.484375 30.390625 
Q 61.46875 25.984375 61.46875 20.21875 
Q 61.46875 14.5 58.203125 9.4375 
Q 54.9375 4.390625 48.796875 1.578125 
Q 42.671875 -1.21875 35.015625 -1.21875 
Q 25.296875 -1.21875 18.71875 1.609375 
Q 12.15625 4.4375 8.421875 10.125 
Q 4.6875 15.828125 4.5 23 
z
" id="ArialMT-83"/>
      <path d="M 6.59375 0 
L 6.59375 71.578125 
L 15.375 71.578125 
L 15.375 45.90625 
Q 21.53125 53.03125 30.90625 53.03125 
Q 36.671875 53.03125 40.921875 50.75 
Q 45.171875 48.484375 47 44.484375 
Q 48.828125 40.484375 48.828125 32.859375 
L 48.828125 0 
L 40.046875 0 
L 40.046875 32.859375 
Q 40.046875 39.453125 37.1875 42.453125 
Q 34.328125 45.453125 29.109375 45.453125 
Q 25.203125 45.453125 21.75 43.421875 
Q 18.3125 41.40625 16.84375 37.9375 
Q 15.375 34.46875 15.375 28.375 
L 15.375 0 
z
" id="ArialMT-104"/>
      <path d="M 42.09375 16.703125 
L 51.171875 15.578125 
Q 49.03125 7.625 43.21875 3.21875 
Q 37.40625 -1.171875 28.375 -1.171875 
Q 17 -1.171875 10.328125 5.828125 
Q 3.65625 12.84375 3.65625 25.484375 
Q 3.65625 38.578125 10.390625 45.796875 
Q 17.140625 53.03125 27.875 53.03125 
Q 38.28125 53.03125 44.875 45.953125 
Q 51.46875 38.875 51.46875 26.03125 
Q 51.46875 25.25 51.421875 23.6875 
L 12.75 23.6875 
Q 13.234375 15.140625 17.578125 10.59375 
Q 21.921875 6.0625 28.421875 6.0625 
Q 33.25 6.0625 36.671875 8.59375 
Q 40.09375 11.140625 42.09375 16.703125 
z
M 13.234375 30.90625 
L 42.1875 30.90625 
Q 41.609375 37.453125 38.875 40.71875 
Q 34.671875 45.796875 27.984375 45.796875 
Q 21.921875 45.796875 17.796875 41.75 
Q 13.671875 37.703125 13.234375 30.90625 
z
" id="ArialMT-101"/>
      <path d="M 37.25 0 
L 28.46875 0 
L 28.46875 56 
Q 25.296875 52.984375 20.140625 49.953125 
Q 14.984375 46.921875 10.890625 45.40625 
L 10.890625 53.90625 
Q 18.265625 57.375 23.78125 62.296875 
Q 29.296875 67.234375 31.59375 71.875 
L 37.25 71.875 
z
" id="ArialMT-49"/>
      <path d="M -1.515625 -19.875 
L -1.515625 -13.53125 
L 56.734375 -13.53125 
L 56.734375 -19.875 
z
" id="ArialMT-95"/>
      <path d="M 6.59375 0 
L 6.59375 51.859375 
L 14.453125 51.859375 
L 14.453125 44.578125 
Q 16.890625 48.390625 20.9375 50.703125 
Q 25 53.03125 30.171875 53.03125 
Q 35.9375 53.03125 39.625 50.640625 
Q 43.3125 48.25 44.828125 43.953125 
Q 50.984375 53.03125 60.84375 53.03125 
Q 68.5625 53.03125 72.703125 48.75 
Q 76.859375 44.484375 76.859375 35.59375 
L 76.859375 0 
L 68.109375 0 
L 68.109375 32.671875 
Q 68.109375 37.9375 67.25 40.25 
Q 66.40625 42.578125 64.15625 43.984375 
Q 61.921875 45.40625 58.890625 45.40625 
Q 53.421875 45.40625 49.796875 41.765625 
Q 46.1875 38.140625 46.1875 30.125 
L 46.1875 0 
L 37.40625 0 
L 37.40625 33.6875 
Q 37.40625 39.546875 35.25 42.46875 
Q 33.109375 45.40625 28.21875 45.40625 
Q 24.515625 45.40625 21.359375 43.453125 
Q 18.21875 41.5 16.796875 37.734375 
Q 15.375 33.984375 15.375 26.90625 
L 15.375 0 
z
" id="ArialMT-109"/>
      <path d="M 8.6875 0 
L 8.6875 45.015625 
L 0.921875 45.015625 
L 0.921875 51.859375 
L 8.6875 51.859375 
L 8.6875 57.375 
Q 8.6875 62.59375 9.625 65.140625 
Q 10.890625 68.5625 14.078125 70.671875 
Q 17.28125 72.796875 23.046875 72.796875 
Q 26.765625 72.796875 31.25 71.921875 
L 29.9375 64.265625 
Q 27.203125 64.75 24.75 64.75 
Q 20.75 64.75 19.09375 63.03125 
Q 17.4375 61.328125 17.4375 56.640625 
L 17.4375 51.859375 
L 27.546875 51.859375 
L 27.546875 45.015625 
L 17.4375 45.015625 
L 17.4375 0 
z
" id="ArialMT-102"/>
      <path d="M 0.734375 0 
L 19.671875 26.953125 
L 2.15625 51.859375 
L 13.140625 51.859375 
L 21.09375 39.703125 
Q 23.34375 36.234375 24.703125 33.890625 
Q 26.859375 37.109375 28.65625 39.59375 
L 37.40625 51.859375 
L 47.90625 51.859375 
L 29.984375 27.4375 
L 49.265625 0 
L 38.484375 0 
L 27.828125 16.109375 
L 25 20.453125 
L 11.375 0 
z
" id="ArialMT-120"/>
     </defs>
     <use xlink:href="#ArialMT-86"/>
     <use x="64.949219" xlink:href="#ArialMT-105"/>
     <use x="87.166016" xlink:href="#ArialMT-111"/>
     <use x="142.78125" xlink:href="#ArialMT-108"/>
     <use x="164.998047" xlink:href="#ArialMT-105"/>
     <use x="187.214844" xlink:href="#ArialMT-110"/>
     <use x="242.830078" xlink:href="#ArialMT-32"/>
     <use x="270.613281" xlink:href="#ArialMT-80"/>
     <use x="337.3125" xlink:href="#ArialMT-108"/>
     <use x="359.529297" xlink:href="#ArialMT-111"/>
     <use x="415.144531" xlink:href="#ArialMT-116"/>
     <use x="442.927734" xlink:href="#ArialMT-58"/>
     <use x="470.710938" xlink:href="#ArialMT-32"/>
     <use x="498.494141" xlink:href="#ArialMT-83"/>
     <use x="565.193359" xlink:href="#ArialMT-104"/>
     <use x="620.808594" xlink:href="#ArialMT-101"/>
     <use x="676.423828" xlink:href="#ArialMT-101"/>
     <use x="732.039062" xlink:href="#ArialMT-116"/>
     <use x="759.822266" xlink:href="#ArialMT-49"/>
     <use x="815.4375" xlink:href="#ArialMT-95"/>
     <use x="871.052734" xlink:href="#ArialMT-84"/>
     <use x="928.386719" xlink:href="#ArialMT-105"/>
     <use x="950.603516" xlink:href="#ArialMT-109"/>
     <use x="1033.904297" xlink:href="#ArialMT-101"/>
     <use x="1089.519531" xlink:href="#ArialMT-95"/>
     <use x="1145.134766" xlink:href="#ArialMT-116"/>
     <use x="1172.917969" xlink:href="#ArialMT-111"/>
     <use x="1228.533203" xlink:href="#ArialMT-95"/>
     <use x="1284.148438" xlink:href="#ArialMT-72"/>
     <use x="1356.365234" xlink:href="#ArialMT-97"/>
     <use x="1411.980469" xlink:href="#ArialMT-108"/>
     <use x="1434.197266" xlink:href="#ArialMT-102"/>
     <use x="1461.980469" xlink:href="#ArialMT-95"/>
     <use x="1517.595703" xlink:href="#ArialMT-77"/>
     <use x="1600.896484" xlink:href="#ArialMT-97"/>
     <use x="1656.511719" xlink:href="#ArialMT-120"/>
    </g>
   </g>
   <g id="legend_1">
    <g id="patch_10">
     <path d="M 165.649687 93.889531 
L 210.012344 93.889531 
Q 212.212344 93.889531 212.212344 91.689531 
L 212.212344 29.635625 
Q 212.212344 27.435625 210.012344 27.435625 
L 165.649687 27.435625 
Q 163.449687 27.435625 163.449687 29.635625 
L 163.449687 91.689531 
Q 163.449687 93.889531 165.649687 93.889531 
z
" style="fill:#ffffff;opacity:0.8;stroke:#cccccc;stroke-linejoin:miter;"/>
    </g>
    <g id="text_9">
     <!-- Labels -->
     <g style="fill:#262626;" transform="translate(170.151641 40.425)scale(0.12 -0.12)">
      <defs>
       <path d="M 14.703125 0 
L 6.546875 0 
L 6.546875 71.578125 
L 15.328125 71.578125 
L 15.328125 46.046875 
Q 20.90625 53.03125 29.546875 53.03125 
Q 34.328125 53.03125 38.59375 51.09375 
Q 42.875 49.171875 45.625 45.671875 
Q 48.390625 42.1875 49.953125 37.25 
Q 51.515625 32.328125 51.515625 26.703125 
Q 51.515625 13.375 44.921875 6.09375 
Q 38.328125 -1.171875 29.109375 -1.171875 
Q 19.921875 -1.171875 14.703125 6.5 
z
M 14.59375 26.3125 
Q 14.59375 17 17.140625 12.84375 
Q 21.296875 6.0625 28.375 6.0625 
Q 34.125 6.0625 38.328125 11.0625 
Q 42.53125 16.0625 42.53125 25.984375 
Q 42.53125 36.140625 38.5 40.96875 
Q 34.46875 45.796875 28.765625 45.796875 
Q 23 45.796875 18.796875 40.796875 
Q 14.59375 35.796875 14.59375 26.3125 
z
" id="ArialMT-98"/>
       <path d="M 3.078125 15.484375 
L 11.765625 16.84375 
Q 12.5 11.625 15.84375 8.84375 
Q 19.1875 6.0625 25.203125 6.0625 
Q 31.25 6.0625 34.171875 8.515625 
Q 37.109375 10.984375 37.109375 14.3125 
Q 37.109375 17.28125 34.515625 19 
Q 32.71875 20.171875 25.53125 21.96875 
Q 15.875 24.421875 12.140625 26.203125 
Q 8.40625 27.984375 6.46875 31.125 
Q 4.546875 34.28125 4.546875 38.09375 
Q 4.546875 41.546875 6.125 44.5 
Q 7.71875 47.46875 10.453125 49.421875 
Q 12.5 50.921875 16.03125 51.96875 
Q 19.578125 53.03125 23.640625 53.03125 
Q 29.734375 53.03125 34.34375 51.265625 
Q 38.96875 49.515625 41.15625 46.5 
Q 43.359375 43.5 44.1875 38.484375 
L 35.59375 37.3125 
Q 35.015625 41.3125 32.203125 43.546875 
Q 29.390625 45.796875 24.265625 45.796875 
Q 18.21875 45.796875 15.625 43.796875 
Q 13.03125 41.796875 13.03125 39.109375 
Q 13.03125 37.40625 14.109375 36.03125 
Q 15.1875 34.625 17.484375 33.6875 
Q 18.796875 33.203125 25.25 31.453125 
Q 34.578125 28.953125 38.25 27.359375 
Q 41.9375 25.78125 44.03125 22.75 
Q 46.140625 19.734375 46.140625 15.234375 
Q 46.140625 10.84375 43.578125 6.953125 
Q 41.015625 3.078125 36.171875 0.953125 
Q 31.34375 -1.171875 25.25 -1.171875 
Q 15.140625 -1.171875 9.84375 3.03125 
Q 4.546875 7.234375 3.078125 15.484375 
z
" id="ArialMT-115"/>
      </defs>
      <use xlink:href="#ArialMT-76"/>
      <use x="55.615234" xlink:href="#ArialMT-97"/>
      <use x="111.230469" xlink:href="#ArialMT-98"/>
      <use x="166.845703" xlink:href="#ArialMT-101"/>
      <use x="222.460938" xlink:href="#ArialMT-108"/>
      <use x="244.677734" xlink:href="#ArialMT-115"/>
     </g>
    </g>
    <g id="patch_11">
     <path d="M 167.849687 56.183594 
L 189.849687 56.183594 
L 189.849687 48.483594 
L 167.849687 48.483594 
z
" style="fill:#97f0b4;stroke:#757575;stroke-linejoin:miter;stroke-width:0.75;"/>
    </g>
    <g id="text_10">
     <!-- L -->
     <g style="fill:#262626;" transform="translate(198.649687 56.183594)scale(0.11 -0.11)">
      <use xlink:href="#ArialMT-76"/>
     </g>
    </g>
    <g id="patch_12">
     <path d="M 167.849687 71.743437 
L 189.849687 71.743437 
L 189.849687 64.043437 
L 167.849687 64.043437 
z
" style="fill:#97f0b4;stroke:#757575;stroke-linejoin:miter;stroke-width:0.75;"/>
    </g>
    <g id="text_11">
     <!-- M -->
     <g style="fill:#262626;" transform="translate(198.649687 71.743437)scale(0.11 -0.11)">
      <use xlink:href="#ArialMT-77"/>
     </g>
    </g>
    <g id="patch_13">
     <path d="M 167.849687 87.303281 
L 189.849687 87.303281 
L 189.849687 79.603281 
L 167.849687 79.603281 
z
" style="fill:#97f0b4;stroke:#757575;stroke-linejoin:miter;stroke-width:0.75;"/>
    </g>
    <g id="text_12">
     <!-- H -->
     <g style="fill:#262626;" transform="translate(198.649687 87.303281)scale(0.11 -0.11)">
      <use xlink:href="#ArialMT-72"/>
     </g>
    </g>
   </g>
  </g>
 </g>
 <defs>
  <clipPath id="p9d6141943c">
   <rect height="108.72" width="167.4" x="50.312344" y="21.935625"/>
  </clipPath>
 </defs>
</svg>
