<?xml version="1.0" encoding="utf-8" standalone="no"?>
<!DOCTYPE svg PUBLIC "-//W3C//DTD SVG 1.1//EN"
  "http://www.w3.org/Graphics/SVG/1.1/DTD/svg11.dtd">
<!-- Created with matplotlib (https://matplotlib.org/) -->
<svg height="1728pt" version="1.1" viewBox="0 0 432 1728" width="432pt" xmlns="http://www.w3.org/2000/svg" xmlns:xlink="http://www.w3.org/1999/xlink">
 <metadata>
  <rdf:RDF xmlns:cc="http://creativecommons.org/ns#" xmlns:dc="http://purl.org/dc/elements/1.1/" xmlns:rdf="http://www.w3.org/1999/02/22-rdf-syntax-ns#">
   <cc:Work>
    <dc:type rdf:resource="http://purl.org/dc/dcmitype/StillImage"/>
    <dc:date>2024-06-04T12:22:54.088378</dc:date>
    <dc:format>image/svg+xml</dc:format>
    <dc:creator>
     <cc:Agent>
      <dc:title>Matplotlib v3.3.2, https://matplotlib.org/</dc:title>
     </cc:Agent>
    </dc:creator>
   </cc:Work>
  </rdf:RDF>
 </metadata>
 <defs>
  <style type="text/css">*{stroke-linecap:butt;stroke-linejoin:round;}</style>
 </defs>
 <g id="figure_1">
  <g id="patch_1">
   <path d="M 0 1728 
L 432 1728 
L 432 0 
L 0 0 
z
" style="fill:none;"/>
  </g>
  <g id="axes_1">
   <g id="patch_2">
    <path d="M 54 490.977391 
L 388.8 490.977391 
L 388.8 207.36 
L 54 207.36 
z
" style="fill:#ffffff;"/>
   </g>
   <g id="PolyCollection_1">
    <defs>
     <path d="M 137.94998 -1249.914308 
L 137.45002 -1249.914308 
L 137.311332 -1252.518692 
L 137.125238 -1255.123076 
L 136.891061 -1257.72746 
L 136.615468 -1260.331843 
L 136.31331 -1262.936227 
L 136.006369 -1265.540611 
L 135.719894 -1268.144995 
L 135.477594 -1270.749378 
L 135.296511 -1273.353762 
L 135.183395 -1275.958146 
L 135.133794 -1278.56253 
L 135.13409 -1281.166913 
L 135.165699 -1283.771297 
L 135.209961 -1286.375681 
L 135.252195 -1288.980065 
L 135.283932 -1291.584448 
L 135.30306 -1294.188832 
L 135.312349 -1296.793216 
L 135.317126 -1299.3976 
L 135.322893 -1302.001983 
L 135.333431 -1304.606367 
L 135.349549 -1307.210751 
L 135.368324 -1309.815135 
L 135.382471 -1312.419519 
L 135.379549 -1315.023902 
L 135.340965 -1317.628286 
L 135.24122 -1320.23267 
L 135.048175 -1322.837054 
L 134.725154 -1325.441437 
L 134.235121 -1328.045821 
L 133.546171 -1330.650205 
L 132.636382 -1333.254589 
L 131.495453 -1335.858972 
L 130.120942 -1338.463356 
L 128.508704 -1341.06774 
L 126.639813 -1343.672124 
L 124.468942 -1346.276507 
L 121.920353 -1348.880891 
L 118.896523 -1351.485275 
L 115.300639 -1354.089659 
L 111.069139 -1356.694042 
L 106.205896 -1359.298426 
L 100.807673 -1361.90281 
L 95.072127 -1364.507194 
L 89.284347 -1367.111577 
L 83.78402 -1369.715961 
L 78.920476 -1372.320345 
L 75.005352 -1374.924729 
L 72.27196 -1377.529112 
L 70.847429 -1380.133496 
L 70.74 -1382.73788 
L 71.840953 -1385.342264 
L 73.939353 -1387.946648 
L 76.747713 -1390.551031 
L 79.936714 -1393.155415 
L 83.17625 -1395.759799 
L 86.177939 -1398.364183 
L 88.731938 -1400.968566 
L 90.729968 -1403.57295 
L 92.168524 -1406.177334 
L 93.131199 -1408.781718 
L 93.75553 -1411.386101 
L 94.194712 -1413.990485 
L 94.585769 -1416.594869 
L 95.032398 -1419.199253 
L 95.604221 -1421.803636 
L 96.347626 -1424.40802 
L 97.299499 -1427.012404 
L 98.495649 -1429.616788 
L 99.96971 -1432.221171 
L 101.743761 -1434.825555 
L 103.815982 -1437.429939 
L 106.151842 -1440.034323 
L 108.683373 -1442.638706 
L 111.317405 -1445.24309 
L 113.950173 -1447.847474 
L 116.483827 -1450.451858 
L 118.840532 -1453.056241 
L 120.971304 -1455.660625 
L 122.858686 -1458.265009 
L 124.513754 -1460.869393 
L 125.968855 -1463.473777 
L 127.267821 -1466.07816 
L 128.455619 -1468.682544 
L 129.569383 -1471.286928 
L 130.632514 -1473.891312 
L 131.652781 -1476.495695 
L 132.624342 -1479.100079 
L 133.532553 -1481.704463 
L 134.359844 -1484.308847 
L 135.090967 -1486.91323 
L 135.716456 -1489.517614 
L 136.233995 -1492.121998 
L 136.647985 -1494.726382 
L 136.968027 -1497.330765 
L 137.206982 -1499.935149 
L 137.379108 -1502.539533 
L 137.498552 -1505.143917 
L 137.578256 -1507.7483 
L 137.821744 -1507.7483 
L 137.821744 -1507.7483 
L 137.901448 -1505.143917 
L 138.020892 -1502.539533 
L 138.193018 -1499.935149 
L 138.431973 -1497.330765 
L 138.752015 -1494.726382 
L 139.166005 -1492.121998 
L 139.683544 -1489.517614 
L 140.309033 -1486.91323 
L 141.040156 -1484.308847 
L 141.867447 -1481.704463 
L 142.775658 -1479.100079 
L 143.747219 -1476.495695 
L 144.767486 -1473.891312 
L 145.830617 -1471.286928 
L 146.944381 -1468.682544 
L 148.132179 -1466.07816 
L 149.431145 -1463.473777 
L 150.886246 -1460.869393 
L 152.541314 -1458.265009 
L 154.428696 -1455.660625 
L 156.559468 -1453.056241 
L 158.916173 -1450.451858 
L 161.449827 -1447.847474 
L 164.082595 -1445.24309 
L 166.716627 -1442.638706 
L 169.248158 -1440.034323 
L 171.584018 -1437.429939 
L 173.656239 -1434.825555 
L 175.43029 -1432.221171 
L 176.904351 -1429.616788 
L 178.100501 -1427.012404 
L 179.052374 -1424.40802 
L 179.795779 -1421.803636 
L 180.367602 -1419.199253 
L 180.814231 -1416.594869 
L 181.205288 -1413.990485 
L 181.64447 -1411.386101 
L 182.268801 -1408.781718 
L 183.231476 -1406.177334 
L 184.670032 -1403.57295 
L 186.668062 -1400.968566 
L 189.222061 -1398.364183 
L 192.22375 -1395.759799 
L 195.463286 -1393.155415 
L 198.652287 -1390.551031 
L 201.460647 -1387.946648 
L 203.559047 -1385.342264 
L 204.66 -1382.73788 
L 204.552571 -1380.133496 
L 203.12804 -1377.529112 
L 200.394648 -1374.924729 
L 196.479524 -1372.320345 
L 191.61598 -1369.715961 
L 186.115653 -1367.111577 
L 180.327873 -1364.507194 
L 174.592327 -1361.90281 
L 169.194104 -1359.298426 
L 164.330861 -1356.694042 
L 160.099361 -1354.089659 
L 156.503477 -1351.485275 
L 153.479647 -1348.880891 
L 150.931058 -1346.276507 
L 148.760187 -1343.672124 
L 146.891296 -1341.06774 
L 145.279058 -1338.463356 
L 143.904547 -1335.858972 
L 142.763618 -1333.254589 
L 141.853829 -1330.650205 
L 141.164879 -1328.045821 
L 140.674846 -1325.441437 
L 140.351825 -1322.837054 
L 140.15878 -1320.23267 
L 140.059035 -1317.628286 
L 140.020451 -1315.023902 
L 140.017529 -1312.419519 
L 140.031676 -1309.815135 
L 140.050451 -1307.210751 
L 140.066569 -1304.606367 
L 140.077107 -1302.001983 
L 140.082874 -1299.3976 
L 140.087651 -1296.793216 
L 140.09694 -1294.188832 
L 140.116068 -1291.584448 
L 140.147805 -1288.980065 
L 140.190039 -1286.375681 
L 140.234301 -1283.771297 
L 140.26591 -1281.166913 
L 140.266206 -1278.56253 
L 140.216605 -1275.958146 
L 140.103489 -1273.353762 
L 139.922406 -1270.749378 
L 139.680106 -1268.144995 
L 139.393631 -1265.540611 
L 139.08669 -1262.936227 
L 138.784532 -1260.331843 
L 138.508939 -1257.72746 
L 138.274762 -1255.123076 
L 138.088668 -1252.518692 
L 137.94998 -1249.914308 
z
" id="m42e401dd20" style="stroke:#333333;stroke-width:1.5;"/>
    </defs>
    <g clip-path="url(#p1d20d35240)">
     <use style="fill:#555555;stroke:#333333;stroke-width:1.5;" x="0" xlink:href="#m42e401dd20" y="1728"/>
    </g>
   </g>
   <g id="PolyCollection_2">
    <defs>
     <path d="M 305.277557 -1268.556382 
L 304.922443 -1268.556382 
L 304.816487 -1270.90234 
L 304.661443 -1273.248298 
L 304.442393 -1275.594255 
L 304.143521 -1277.940213 
L 303.749636 -1280.286171 
L 303.248157 -1282.632129 
L 302.631327 -1284.978087 
L 301.898376 -1287.324045 
L 301.057274 -1289.670003 
L 300.125746 -1292.015961 
L 299.131337 -1294.361918 
L 298.110403 -1296.707876 
L 297.106048 -1299.053834 
L 296.16511 -1301.399792 
L 295.334332 -1303.74575 
L 294.655955 -1306.091708 
L 294.163049 -1308.437666 
L 293.875072 -1310.783624 
L 293.794321 -1313.129581 
L 293.90401 -1315.475539 
L 294.168585 -1317.821497 
L 294.536549 -1320.167455 
L 294.945519 -1322.513413 
L 295.328675 -1324.859371 
L 295.621335 -1327.205329 
L 295.766305 -1329.551287 
L 295.716944 -1331.897244 
L 295.437488 -1334.243202 
L 294.900934 -1336.58916 
L 294.085444 -1338.935118 
L 292.970634 -1341.281076 
L 291.535104 -1343.627034 
L 289.756188 -1345.972992 
L 287.612314 -1348.31895 
L 285.087588 -1350.664907 
L 282.177691 -1353.010865 
L 278.895804 -1355.356823 
L 275.277281 -1357.702781 
L 271.382142 -1360.048739 
L 267.294938 -1362.394697 
L 263.122145 -1364.740655 
L 258.987638 -1367.086613 
L 255.026935 -1369.43257 
L 251.38072 -1371.778528 
L 248.187762 -1374.124486 
L 245.576991 -1376.470444 
L 243.65838 -1378.816402 
L 242.512588 -1381.16236 
L 242.180004 -1383.508318 
L 242.650735 -1385.854276 
L 243.857783 -1388.200233 
L 245.675899 -1390.546191 
L 247.928165 -1392.892149 
L 250.40114 -1395.238107 
L 252.867773 -1397.584065 
L 255.115374 -1399.930023 
L 256.974367 -1402.275981 
L 258.342686 -1404.621939 
L 259.200823 -1406.967896 
L 259.613932 -1409.313854 
L 259.719748 -1411.659812 
L 259.704038 -1414.00577 
L 259.768092 -1416.351728 
L 260.094679 -1418.697686 
L 260.819307 -1421.043644 
L 262.012407 -1423.389602 
L 263.675395 -1425.73556 
L 265.750182 -1428.081517 
L 268.138593 -1430.427475 
L 270.726016 -1432.773433 
L 273.403265 -1435.119391 
L 276.081842 -1437.465349 
L 278.70032 -1439.811307 
L 281.222399 -1442.157265 
L 283.629454 -1444.503223 
L 285.911473 -1446.84918 
L 288.059845 -1449.195138 
L 290.064028 -1451.541096 
L 291.912188 -1453.887054 
L 293.594385 -1456.233012 
L 295.106202 -1458.57897 
L 296.450986 -1460.924928 
L 297.639777 -1463.270886 
L 298.689127 -1465.616843 
L 299.617764 -1467.962801 
L 300.443305 -1470.308759 
L 301.179964 -1472.654717 
L 301.837662 -1475.000675 
L 302.422413 -1477.346633 
L 302.937512 -1479.692591 
L 303.384985 -1482.038549 
L 303.766862 -1484.384506 
L 304.086028 -1486.730464 
L 304.346626 -1489.076422 
L 304.55406 -1491.42238 
L 304.714732 -1493.768338 
L 304.835625 -1496.114296 
L 304.923844 -1498.460254 
L 304.986183 -1500.806212 
L 305.213817 -1500.806212 
L 305.213817 -1500.806212 
L 305.276156 -1498.460254 
L 305.364375 -1496.114296 
L 305.485268 -1493.768338 
L 305.64594 -1491.42238 
L 305.853374 -1489.076422 
L 306.113972 -1486.730464 
L 306.433138 -1484.384506 
L 306.815015 -1482.038549 
L 307.262488 -1479.692591 
L 307.777587 -1477.346633 
L 308.362338 -1475.000675 
L 309.020036 -1472.654717 
L 309.756695 -1470.308759 
L 310.582236 -1467.962801 
L 311.510873 -1465.616843 
L 312.560223 -1463.270886 
L 313.749014 -1460.924928 
L 315.093798 -1458.57897 
L 316.605615 -1456.233012 
L 318.287812 -1453.887054 
L 320.135972 -1451.541096 
L 322.140155 -1449.195138 
L 324.288527 -1446.84918 
L 326.570546 -1444.503223 
L 328.977601 -1442.157265 
L 331.49968 -1439.811307 
L 334.118158 -1437.465349 
L 336.796735 -1435.119391 
L 339.473984 -1432.773433 
L 342.061407 -1430.427475 
L 344.449818 -1428.081517 
L 346.524605 -1425.73556 
L 348.187593 -1423.389602 
L 349.380693 -1421.043644 
L 350.105321 -1418.697686 
L 350.431908 -1416.351728 
L 350.495962 -1414.00577 
L 350.480252 -1411.659812 
L 350.586068 -1409.313854 
L 350.999177 -1406.967896 
L 351.857314 -1404.621939 
L 353.225633 -1402.275981 
L 355.084626 -1399.930023 
L 357.332227 -1397.584065 
L 359.79886 -1395.238107 
L 362.271835 -1392.892149 
L 364.524101 -1390.546191 
L 366.342217 -1388.200233 
L 367.549265 -1385.854276 
L 368.019996 -1383.508318 
L 367.687412 -1381.16236 
L 366.54162 -1378.816402 
L 364.623009 -1376.470444 
L 362.012238 -1374.124486 
L 358.81928 -1371.778528 
L 355.173065 -1369.43257 
L 351.212362 -1367.086613 
L 347.077855 -1364.740655 
L 342.905062 -1362.394697 
L 338.817858 -1360.048739 
L 334.922719 -1357.702781 
L 331.304196 -1355.356823 
L 328.022309 -1353.010865 
L 325.112412 -1350.664907 
L 322.587686 -1348.31895 
L 320.443812 -1345.972992 
L 318.664896 -1343.627034 
L 317.229366 -1341.281076 
L 316.114556 -1338.935118 
L 315.299066 -1336.58916 
L 314.762512 -1334.243202 
L 314.483056 -1331.897244 
L 314.433695 -1329.551287 
L 314.578665 -1327.205329 
L 314.871325 -1324.859371 
L 315.254481 -1322.513413 
L 315.663451 -1320.167455 
L 316.031415 -1317.821497 
L 316.29599 -1315.475539 
L 316.405679 -1313.129581 
L 316.324928 -1310.783624 
L 316.036951 -1308.437666 
L 315.544045 -1306.091708 
L 314.865668 -1303.74575 
L 314.03489 -1301.399792 
L 313.093952 -1299.053834 
L 312.089597 -1296.707876 
L 311.068663 -1294.361918 
L 310.074254 -1292.015961 
L 309.142726 -1289.670003 
L 308.301624 -1287.324045 
L 307.568673 -1284.978087 
L 306.951843 -1282.632129 
L 306.450364 -1280.286171 
L 306.056479 -1277.940213 
L 305.757607 -1275.594255 
L 305.538557 -1273.248298 
L 305.383513 -1270.90234 
L 305.277557 -1268.556382 
z
" id="m46512da59c" style="stroke:#333333;stroke-width:1.5;"/>
    </defs>
    <g clip-path="url(#p1d20d35240)">
     <use style="fill:#aaaaaa;stroke:#333333;stroke-width:1.5;" x="0" xlink:href="#m46512da59c" y="1728"/>
    </g>
   </g>
   <g id="matplotlib.axis_1">
    <g id="xtick_1">
     <g id="line2d_1">
      <defs>
       <path d="M 0 0 
L 0 3.5 
" id="m108b64ed49" style="stroke:#000000;stroke-width:0.8;"/>
      </defs>
      <g>
       <use style="stroke:#000000;stroke-width:0.8;" x="137.7" xlink:href="#m108b64ed49" y="490.977391"/>
      </g>
     </g>
    </g>
    <g id="xtick_2">
     <g id="line2d_2">
      <g>
       <use style="stroke:#000000;stroke-width:0.8;" x="305.1" xlink:href="#m108b64ed49" y="490.977391"/>
      </g>
     </g>
    </g>
    <g id="text_1">
     <!-- Manual or Automated -->
     <g transform="translate(112.96875 510.174266)scale(0.2 -0.2)">
      <defs>
       <path d="M 9.8125 72.90625 
L 24.515625 72.90625 
L 43.109375 23.296875 
L 61.8125 72.90625 
L 76.515625 72.90625 
L 76.515625 0 
L 66.890625 0 
L 66.890625 64.015625 
L 48.09375 14.015625 
L 38.1875 14.015625 
L 19.390625 64.015625 
L 19.390625 0 
L 9.8125 0 
z
" id="DejaVuSans-77"/>
       <path d="M 34.28125 27.484375 
Q 23.390625 27.484375 19.1875 25 
Q 14.984375 22.515625 14.984375 16.5 
Q 14.984375 11.71875 18.140625 8.90625 
Q 21.296875 6.109375 26.703125 6.109375 
Q 34.1875 6.109375 38.703125 11.40625 
Q 43.21875 16.703125 43.21875 25.484375 
L 43.21875 27.484375 
z
M 52.203125 31.203125 
L 52.203125 0 
L 43.21875 0 
L 43.21875 8.296875 
Q 40.140625 3.328125 35.546875 0.953125 
Q 30.953125 -1.421875 24.3125 -1.421875 
Q 15.921875 -1.421875 10.953125 3.296875 
Q 6 8.015625 6 15.921875 
Q 6 25.140625 12.171875 29.828125 
Q 18.359375 34.515625 30.609375 34.515625 
L 43.21875 34.515625 
L 43.21875 35.40625 
Q 43.21875 41.609375 39.140625 45 
Q 35.0625 48.390625 27.6875 48.390625 
Q 23 48.390625 18.546875 47.265625 
Q 14.109375 46.140625 10.015625 43.890625 
L 10.015625 52.203125 
Q 14.9375 54.109375 19.578125 55.046875 
Q 24.21875 56 28.609375 56 
Q 40.484375 56 46.34375 49.84375 
Q 52.203125 43.703125 52.203125 31.203125 
z
" id="DejaVuSans-97"/>
       <path d="M 54.890625 33.015625 
L 54.890625 0 
L 45.90625 0 
L 45.90625 32.71875 
Q 45.90625 40.484375 42.875 44.328125 
Q 39.84375 48.1875 33.796875 48.1875 
Q 26.515625 48.1875 22.3125 43.546875 
Q 18.109375 38.921875 18.109375 30.90625 
L 18.109375 0 
L 9.078125 0 
L 9.078125 54.6875 
L 18.109375 54.6875 
L 18.109375 46.1875 
Q 21.34375 51.125 25.703125 53.5625 
Q 30.078125 56 35.796875 56 
Q 45.21875 56 50.046875 50.171875 
Q 54.890625 44.34375 54.890625 33.015625 
z
" id="DejaVuSans-110"/>
       <path d="M 8.5 21.578125 
L 8.5 54.6875 
L 17.484375 54.6875 
L 17.484375 21.921875 
Q 17.484375 14.15625 20.5 10.265625 
Q 23.53125 6.390625 29.59375 6.390625 
Q 36.859375 6.390625 41.078125 11.03125 
Q 45.3125 15.671875 45.3125 23.6875 
L 45.3125 54.6875 
L 54.296875 54.6875 
L 54.296875 0 
L 45.3125 0 
L 45.3125 8.40625 
Q 42.046875 3.421875 37.71875 1 
Q 33.40625 -1.421875 27.6875 -1.421875 
Q 18.265625 -1.421875 13.375 4.4375 
Q 8.5 10.296875 8.5 21.578125 
z
M 31.109375 56 
z
" id="DejaVuSans-117"/>
       <path d="M 9.421875 75.984375 
L 18.40625 75.984375 
L 18.40625 0 
L 9.421875 0 
z
" id="DejaVuSans-108"/>
       <path id="DejaVuSans-32"/>
       <path d="M 30.609375 48.390625 
Q 23.390625 48.390625 19.1875 42.75 
Q 14.984375 37.109375 14.984375 27.296875 
Q 14.984375 17.484375 19.15625 11.84375 
Q 23.34375 6.203125 30.609375 6.203125 
Q 37.796875 6.203125 41.984375 11.859375 
Q 46.1875 17.53125 46.1875 27.296875 
Q 46.1875 37.015625 41.984375 42.703125 
Q 37.796875 48.390625 30.609375 48.390625 
z
M 30.609375 56 
Q 42.328125 56 49.015625 48.375 
Q 55.71875 40.765625 55.71875 27.296875 
Q 55.71875 13.875 49.015625 6.21875 
Q 42.328125 -1.421875 30.609375 -1.421875 
Q 18.84375 -1.421875 12.171875 6.21875 
Q 5.515625 13.875 5.515625 27.296875 
Q 5.515625 40.765625 12.171875 48.375 
Q 18.84375 56 30.609375 56 
z
" id="DejaVuSans-111"/>
       <path d="M 41.109375 46.296875 
Q 39.59375 47.171875 37.8125 47.578125 
Q 36.03125 48 33.890625 48 
Q 26.265625 48 22.1875 43.046875 
Q 18.109375 38.09375 18.109375 28.8125 
L 18.109375 0 
L 9.078125 0 
L 9.078125 54.6875 
L 18.109375 54.6875 
L 18.109375 46.1875 
Q 20.953125 51.171875 25.484375 53.578125 
Q 30.03125 56 36.53125 56 
Q 37.453125 56 38.578125 55.875 
Q 39.703125 55.765625 41.0625 55.515625 
z
" id="DejaVuSans-114"/>
       <path d="M 34.1875 63.1875 
L 20.796875 26.90625 
L 47.609375 26.90625 
z
M 28.609375 72.90625 
L 39.796875 72.90625 
L 67.578125 0 
L 57.328125 0 
L 50.6875 18.703125 
L 17.828125 18.703125 
L 11.1875 0 
L 0.78125 0 
z
" id="DejaVuSans-65"/>
       <path d="M 18.3125 70.21875 
L 18.3125 54.6875 
L 36.8125 54.6875 
L 36.8125 47.703125 
L 18.3125 47.703125 
L 18.3125 18.015625 
Q 18.3125 11.328125 20.140625 9.421875 
Q 21.96875 7.515625 27.59375 7.515625 
L 36.8125 7.515625 
L 36.8125 0 
L 27.59375 0 
Q 17.1875 0 13.234375 3.875 
Q 9.28125 7.765625 9.28125 18.015625 
L 9.28125 47.703125 
L 2.6875 47.703125 
L 2.6875 54.6875 
L 9.28125 54.6875 
L 9.28125 70.21875 
z
" id="DejaVuSans-116"/>
       <path d="M 52 44.1875 
Q 55.375 50.25 60.0625 53.125 
Q 64.75 56 71.09375 56 
Q 79.640625 56 84.28125 50.015625 
Q 88.921875 44.046875 88.921875 33.015625 
L 88.921875 0 
L 79.890625 0 
L 79.890625 32.71875 
Q 79.890625 40.578125 77.09375 44.375 
Q 74.3125 48.1875 68.609375 48.1875 
Q 61.625 48.1875 57.5625 43.546875 
Q 53.515625 38.921875 53.515625 30.90625 
L 53.515625 0 
L 44.484375 0 
L 44.484375 32.71875 
Q 44.484375 40.625 41.703125 44.40625 
Q 38.921875 48.1875 33.109375 48.1875 
Q 26.21875 48.1875 22.15625 43.53125 
Q 18.109375 38.875 18.109375 30.90625 
L 18.109375 0 
L 9.078125 0 
L 9.078125 54.6875 
L 18.109375 54.6875 
L 18.109375 46.1875 
Q 21.1875 51.21875 25.484375 53.609375 
Q 29.78125 56 35.6875 56 
Q 41.65625 56 45.828125 52.96875 
Q 50 49.953125 52 44.1875 
z
" id="DejaVuSans-109"/>
       <path d="M 56.203125 29.59375 
L 56.203125 25.203125 
L 14.890625 25.203125 
Q 15.484375 15.921875 20.484375 11.0625 
Q 25.484375 6.203125 34.421875 6.203125 
Q 39.59375 6.203125 44.453125 7.46875 
Q 49.3125 8.734375 54.109375 11.28125 
L 54.109375 2.78125 
Q 49.265625 0.734375 44.1875 -0.34375 
Q 39.109375 -1.421875 33.890625 -1.421875 
Q 20.796875 -1.421875 13.15625 6.1875 
Q 5.515625 13.8125 5.515625 26.8125 
Q 5.515625 40.234375 12.765625 48.109375 
Q 20.015625 56 32.328125 56 
Q 43.359375 56 49.78125 48.890625 
Q 56.203125 41.796875 56.203125 29.59375 
z
M 47.21875 32.234375 
Q 47.125 39.59375 43.09375 43.984375 
Q 39.0625 48.390625 32.421875 48.390625 
Q 24.90625 48.390625 20.390625 44.140625 
Q 15.875 39.890625 15.1875 32.171875 
z
" id="DejaVuSans-101"/>
       <path d="M 45.40625 46.390625 
L 45.40625 75.984375 
L 54.390625 75.984375 
L 54.390625 0 
L 45.40625 0 
L 45.40625 8.203125 
Q 42.578125 3.328125 38.25 0.953125 
Q 33.9375 -1.421875 27.875 -1.421875 
Q 17.96875 -1.421875 11.734375 6.484375 
Q 5.515625 14.40625 5.515625 27.296875 
Q 5.515625 40.1875 11.734375 48.09375 
Q 17.96875 56 27.875 56 
Q 33.9375 56 38.25 53.625 
Q 42.578125 51.265625 45.40625 46.390625 
z
M 14.796875 27.296875 
Q 14.796875 17.390625 18.875 11.75 
Q 22.953125 6.109375 30.078125 6.109375 
Q 37.203125 6.109375 41.296875 11.75 
Q 45.40625 17.390625 45.40625 27.296875 
Q 45.40625 37.203125 41.296875 42.84375 
Q 37.203125 48.484375 30.078125 48.484375 
Q 22.953125 48.484375 18.875 42.84375 
Q 14.796875 37.203125 14.796875 27.296875 
z
" id="DejaVuSans-100"/>
      </defs>
      <use xlink:href="#DejaVuSans-77"/>
      <use x="86.279297" xlink:href="#DejaVuSans-97"/>
      <use x="147.558594" xlink:href="#DejaVuSans-110"/>
      <use x="210.9375" xlink:href="#DejaVuSans-117"/>
      <use x="274.316406" xlink:href="#DejaVuSans-97"/>
      <use x="335.595703" xlink:href="#DejaVuSans-108"/>
      <use x="363.378906" xlink:href="#DejaVuSans-32"/>
      <use x="395.166016" xlink:href="#DejaVuSans-111"/>
      <use x="456.347656" xlink:href="#DejaVuSans-114"/>
      <use x="497.460938" xlink:href="#DejaVuSans-32"/>
      <use x="529.248047" xlink:href="#DejaVuSans-65"/>
      <use x="597.65625" xlink:href="#DejaVuSans-117"/>
      <use x="661.035156" xlink:href="#DejaVuSans-116"/>
      <use x="700.244141" xlink:href="#DejaVuSans-111"/>
      <use x="761.425781" xlink:href="#DejaVuSans-109"/>
      <use x="858.837891" xlink:href="#DejaVuSans-97"/>
      <use x="920.117188" xlink:href="#DejaVuSans-116"/>
      <use x="959.326172" xlink:href="#DejaVuSans-101"/>
      <use x="1020.849609" xlink:href="#DejaVuSans-100"/>
     </g>
    </g>
   </g>
   <g id="matplotlib.axis_2">
    <g id="ytick_1">
     <g id="line2d_3">
      <defs>
       <path d="M 0 0 
L -3.5 0 
" id="mafbef56890" style="stroke:#000000;stroke-width:0.8;"/>
      </defs>
      <g>
       <use style="stroke:#000000;stroke-width:0.8;" x="54" xlink:href="#mafbef56890" y="462.624797"/>
      </g>
     </g>
     <g id="text_2">
      <!-- 0 -->
      <g transform="translate(34.275 470.223234)scale(0.2 -0.2)">
       <defs>
        <path d="M 31.78125 66.40625 
Q 24.171875 66.40625 20.328125 58.90625 
Q 16.5 51.421875 16.5 36.375 
Q 16.5 21.390625 20.328125 13.890625 
Q 24.171875 6.390625 31.78125 6.390625 
Q 39.453125 6.390625 43.28125 13.890625 
Q 47.125 21.390625 47.125 36.375 
Q 47.125 51.421875 43.28125 58.90625 
Q 39.453125 66.40625 31.78125 66.40625 
z
M 31.78125 74.21875 
Q 44.046875 74.21875 50.515625 64.515625 
Q 56.984375 54.828125 56.984375 36.375 
Q 56.984375 17.96875 50.515625 8.265625 
Q 44.046875 -1.421875 31.78125 -1.421875 
Q 19.53125 -1.421875 13.0625 8.265625 
Q 6.59375 17.96875 6.59375 36.375 
Q 6.59375 54.828125 13.0625 64.515625 
Q 19.53125 74.21875 31.78125 74.21875 
z
" id="DejaVuSans-48"/>
       </defs>
       <use xlink:href="#DejaVuSans-48"/>
      </g>
     </g>
    </g>
    <g id="ytick_2">
     <g id="line2d_4">
      <g>
       <use style="stroke:#000000;stroke-width:0.8;" x="54" xlink:href="#mafbef56890" y="406.374871"/>
      </g>
     </g>
     <g id="text_3">
      <!-- 1 -->
      <g transform="translate(34.275 413.973308)scale(0.2 -0.2)">
       <defs>
        <path d="M 12.40625 8.296875 
L 28.515625 8.296875 
L 28.515625 63.921875 
L 10.984375 60.40625 
L 10.984375 69.390625 
L 28.421875 72.90625 
L 38.28125 72.90625 
L 38.28125 8.296875 
L 54.390625 8.296875 
L 54.390625 0 
L 12.40625 0 
z
" id="DejaVuSans-49"/>
       </defs>
       <use xlink:href="#DejaVuSans-49"/>
      </g>
     </g>
    </g>
    <g id="ytick_3">
     <g id="line2d_5">
      <g>
       <use style="stroke:#000000;stroke-width:0.8;" x="54" xlink:href="#mafbef56890" y="350.124944"/>
      </g>
     </g>
     <g id="text_4">
      <!-- 2 -->
      <g transform="translate(34.275 357.723382)scale(0.2 -0.2)">
       <defs>
        <path d="M 19.1875 8.296875 
L 53.609375 8.296875 
L 53.609375 0 
L 7.328125 0 
L 7.328125 8.296875 
Q 12.9375 14.109375 22.625 23.890625 
Q 32.328125 33.6875 34.8125 36.53125 
Q 39.546875 41.84375 41.421875 45.53125 
Q 43.3125 49.21875 43.3125 52.78125 
Q 43.3125 58.59375 39.234375 62.25 
Q 35.15625 65.921875 28.609375 65.921875 
Q 23.96875 65.921875 18.8125 64.3125 
Q 13.671875 62.703125 7.8125 59.421875 
L 7.8125 69.390625 
Q 13.765625 71.78125 18.9375 73 
Q 24.125 74.21875 28.421875 74.21875 
Q 39.75 74.21875 46.484375 68.546875 
Q 53.21875 62.890625 53.21875 53.421875 
Q 53.21875 48.921875 51.53125 44.890625 
Q 49.859375 40.875 45.40625 35.40625 
Q 44.1875 33.984375 37.640625 27.21875 
Q 31.109375 20.453125 19.1875 8.296875 
z
" id="DejaVuSans-50"/>
       </defs>
       <use xlink:href="#DejaVuSans-50"/>
      </g>
     </g>
    </g>
    <g id="ytick_4">
     <g id="line2d_6">
      <g>
       <use style="stroke:#000000;stroke-width:0.8;" x="54" xlink:href="#mafbef56890" y="293.875018"/>
      </g>
     </g>
     <g id="text_5">
      <!-- 3 -->
      <g transform="translate(34.275 301.473456)scale(0.2 -0.2)">
       <defs>
        <path d="M 40.578125 39.3125 
Q 47.65625 37.796875 51.625 33 
Q 55.609375 28.21875 55.609375 21.1875 
Q 55.609375 10.40625 48.1875 4.484375 
Q 40.765625 -1.421875 27.09375 -1.421875 
Q 22.515625 -1.421875 17.65625 -0.515625 
Q 12.796875 0.390625 7.625 2.203125 
L 7.625 11.71875 
Q 11.71875 9.328125 16.59375 8.109375 
Q 21.484375 6.890625 26.8125 6.890625 
Q 36.078125 6.890625 40.9375 10.546875 
Q 45.796875 14.203125 45.796875 21.1875 
Q 45.796875 27.640625 41.28125 31.265625 
Q 36.765625 34.90625 28.71875 34.90625 
L 20.21875 34.90625 
L 20.21875 43.015625 
L 29.109375 43.015625 
Q 36.375 43.015625 40.234375 45.921875 
Q 44.09375 48.828125 44.09375 54.296875 
Q 44.09375 59.90625 40.109375 62.90625 
Q 36.140625 65.921875 28.71875 65.921875 
Q 24.65625 65.921875 20.015625 65.03125 
Q 15.375 64.15625 9.8125 62.3125 
L 9.8125 71.09375 
Q 15.4375 72.65625 20.34375 73.4375 
Q 25.25 74.21875 29.59375 74.21875 
Q 40.828125 74.21875 47.359375 69.109375 
Q 53.90625 64.015625 53.90625 55.328125 
Q 53.90625 49.265625 50.4375 45.09375 
Q 46.96875 40.921875 40.578125 39.3125 
z
" id="DejaVuSans-51"/>
       </defs>
       <use xlink:href="#DejaVuSans-51"/>
      </g>
     </g>
    </g>
    <g id="ytick_5">
     <g id="line2d_7">
      <g>
       <use style="stroke:#000000;stroke-width:0.8;" x="54" xlink:href="#mafbef56890" y="237.625092"/>
      </g>
     </g>
     <g id="text_6">
      <!-- 4 -->
      <g transform="translate(34.275 245.22353)scale(0.2 -0.2)">
       <defs>
        <path d="M 37.796875 64.3125 
L 12.890625 25.390625 
L 37.796875 25.390625 
z
M 35.203125 72.90625 
L 47.609375 72.90625 
L 47.609375 25.390625 
L 58.015625 25.390625 
L 58.015625 17.1875 
L 47.609375 17.1875 
L 47.609375 0 
L 37.796875 0 
L 37.796875 17.1875 
L 4.890625 17.1875 
L 4.890625 26.703125 
z
" id="DejaVuSans-52"/>
       </defs>
       <use xlink:href="#DejaVuSans-52"/>
      </g>
     </g>
    </g>
    <g id="text_7">
     <!-- Signal -->
     <g transform="translate(26.115625 379.887446)rotate(-90)scale(0.2 -0.2)">
      <defs>
       <path d="M 53.515625 70.515625 
L 53.515625 60.890625 
Q 47.90625 63.578125 42.921875 64.890625 
Q 37.9375 66.21875 33.296875 66.21875 
Q 25.25 66.21875 20.875 63.09375 
Q 16.5 59.96875 16.5 54.203125 
Q 16.5 49.359375 19.40625 46.890625 
Q 22.3125 44.4375 30.421875 42.921875 
L 36.375 41.703125 
Q 47.40625 39.59375 52.65625 34.296875 
Q 57.90625 29 57.90625 20.125 
Q 57.90625 9.515625 50.796875 4.046875 
Q 43.703125 -1.421875 29.984375 -1.421875 
Q 24.8125 -1.421875 18.96875 -0.25 
Q 13.140625 0.921875 6.890625 3.21875 
L 6.890625 13.375 
Q 12.890625 10.015625 18.65625 8.296875 
Q 24.421875 6.59375 29.984375 6.59375 
Q 38.421875 6.59375 43.015625 9.90625 
Q 47.609375 13.234375 47.609375 19.390625 
Q 47.609375 24.75 44.3125 27.78125 
Q 41.015625 30.8125 33.5 32.328125 
L 27.484375 33.5 
Q 16.453125 35.6875 11.515625 40.375 
Q 6.59375 45.0625 6.59375 53.421875 
Q 6.59375 63.09375 13.40625 68.65625 
Q 20.21875 74.21875 32.171875 74.21875 
Q 37.3125 74.21875 42.625 73.28125 
Q 47.953125 72.359375 53.515625 70.515625 
z
" id="DejaVuSans-83"/>
       <path d="M 9.421875 54.6875 
L 18.40625 54.6875 
L 18.40625 0 
L 9.421875 0 
z
M 9.421875 75.984375 
L 18.40625 75.984375 
L 18.40625 64.59375 
L 9.421875 64.59375 
z
" id="DejaVuSans-105"/>
       <path d="M 45.40625 27.984375 
Q 45.40625 37.75 41.375 43.109375 
Q 37.359375 48.484375 30.078125 48.484375 
Q 22.859375 48.484375 18.828125 43.109375 
Q 14.796875 37.75 14.796875 27.984375 
Q 14.796875 18.265625 18.828125 12.890625 
Q 22.859375 7.515625 30.078125 7.515625 
Q 37.359375 7.515625 41.375 12.890625 
Q 45.40625 18.265625 45.40625 27.984375 
z
M 54.390625 6.78125 
Q 54.390625 -7.171875 48.1875 -13.984375 
Q 42 -20.796875 29.203125 -20.796875 
Q 24.46875 -20.796875 20.265625 -20.09375 
Q 16.0625 -19.390625 12.109375 -17.921875 
L 12.109375 -9.1875 
Q 16.0625 -11.328125 19.921875 -12.34375 
Q 23.78125 -13.375 27.78125 -13.375 
Q 36.625 -13.375 41.015625 -8.765625 
Q 45.40625 -4.15625 45.40625 5.171875 
L 45.40625 9.625 
Q 42.625 4.78125 38.28125 2.390625 
Q 33.9375 0 27.875 0 
Q 17.828125 0 11.671875 7.65625 
Q 5.515625 15.328125 5.515625 27.984375 
Q 5.515625 40.671875 11.671875 48.328125 
Q 17.828125 56 27.875 56 
Q 33.9375 56 38.28125 53.609375 
Q 42.625 51.21875 45.40625 46.390625 
L 45.40625 54.6875 
L 54.390625 54.6875 
z
" id="DejaVuSans-103"/>
      </defs>
      <use xlink:href="#DejaVuSans-83"/>
      <use x="63.476562" xlink:href="#DejaVuSans-105"/>
      <use x="91.259766" xlink:href="#DejaVuSans-103"/>
      <use x="154.736328" xlink:href="#DejaVuSans-110"/>
      <use x="218.115234" xlink:href="#DejaVuSans-97"/>
      <use x="279.394531" xlink:href="#DejaVuSans-108"/>
     </g>
    </g>
   </g>
   <g id="line2d_8">
    <path clip-path="url(#p1d20d35240)" d="M 137.7 420.943601 
L 137.7 243.081335 
" style="fill:none;stroke:#333333;stroke-linecap:square;stroke-width:1.5;"/>
   </g>
   <g id="line2d_9">
    <path clip-path="url(#p1d20d35240)" d="M 137.7 352.374941 
L 137.7 305.631253 
" style="fill:none;stroke:#333333;stroke-linecap:square;stroke-width:4.5;"/>
   </g>
   <g id="line2d_10">
    <path clip-path="url(#p1d20d35240)" d="M 305.1 427.862342 
L 305.1 250.562575 
" style="fill:none;stroke:#333333;stroke-linecap:square;stroke-width:1.5;"/>
   </g>
   <g id="line2d_11">
    <path clip-path="url(#p1d20d35240)" d="M 305.1 357.212435 
L 305.1 310.074997 
" style="fill:none;stroke:#333333;stroke-linecap:square;stroke-width:4.5;"/>
   </g>
   <g id="patch_3">
    <path d="M 54 490.977391 
L 54 207.36 
" style="fill:none;stroke:#000000;stroke-linecap:square;stroke-linejoin:miter;stroke-width:0.8;"/>
   </g>
   <g id="patch_4">
    <path d="M 388.8 490.977391 
L 388.8 207.36 
" style="fill:none;stroke:#000000;stroke-linecap:square;stroke-linejoin:miter;stroke-width:0.8;"/>
   </g>
   <g id="patch_5">
    <path d="M 54 490.977391 
L 388.8 490.977391 
" style="fill:none;stroke:#000000;stroke-linecap:square;stroke-linejoin:miter;stroke-width:0.8;"/>
   </g>
   <g id="patch_6">
    <path d="M 54 207.36 
L 388.8 207.36 
" style="fill:none;stroke:#000000;stroke-linecap:square;stroke-linejoin:miter;stroke-width:0.8;"/>
   </g>
   <g id="PathCollection_1">
    <defs>
     <path d="M 0 1.5 
C 0.397805 1.5 0.77937 1.341951 1.06066 1.06066 
C 1.341951 0.77937 1.5 0.397805 1.5 0 
C 1.5 -0.397805 1.341951 -0.77937 1.06066 -1.06066 
C 0.77937 -1.341951 0.397805 -1.5 0 -1.5 
C -0.397805 -1.5 -0.77937 -1.341951 -1.06066 -1.06066 
C -1.341951 -0.77937 -1.5 -0.397805 -1.5 0 
C -1.5 0.397805 -1.341951 0.77937 -1.06066 1.06066 
C -0.77937 1.341951 -0.397805 1.5 0 1.5 
z
" id="md89f734937" style="stroke:#333333;"/>
    </defs>
    <g clip-path="url(#p1d20d35240)">
     <use style="fill:#ffffff;stroke:#333333;" x="137.7" xlink:href="#md89f734937" y="335.162464"/>
    </g>
   </g>
   <g id="PathCollection_2">
    <g clip-path="url(#p1d20d35240)">
     <use style="fill:#ffffff;stroke:#333333;" x="305.1" xlink:href="#md89f734937" y="337.97496"/>
    </g>
   </g>
   <g id="text_8">
    <!-- Violin Plot - LacZ Max -->
    <g transform="translate(114.103125 201.36)scale(0.2 -0.2)">
     <defs>
      <path d="M 28.609375 0 
L 0.78125 72.90625 
L 11.078125 72.90625 
L 34.1875 11.53125 
L 57.328125 72.90625 
L 67.578125 72.90625 
L 39.796875 0 
z
" id="DejaVuSans-86"/>
      <path d="M 19.671875 64.796875 
L 19.671875 37.40625 
L 32.078125 37.40625 
Q 38.96875 37.40625 42.71875 40.96875 
Q 46.484375 44.53125 46.484375 51.125 
Q 46.484375 57.671875 42.71875 61.234375 
Q 38.96875 64.796875 32.078125 64.796875 
z
M 9.8125 72.90625 
L 32.078125 72.90625 
Q 44.34375 72.90625 50.609375 67.359375 
Q 56.890625 61.8125 56.890625 51.125 
Q 56.890625 40.328125 50.609375 34.8125 
Q 44.34375 29.296875 32.078125 29.296875 
L 19.671875 29.296875 
L 19.671875 0 
L 9.8125 0 
z
" id="DejaVuSans-80"/>
      <path d="M 4.890625 31.390625 
L 31.203125 31.390625 
L 31.203125 23.390625 
L 4.890625 23.390625 
z
" id="DejaVuSans-45"/>
      <path d="M 9.8125 72.90625 
L 19.671875 72.90625 
L 19.671875 8.296875 
L 55.171875 8.296875 
L 55.171875 0 
L 9.8125 0 
z
" id="DejaVuSans-76"/>
      <path d="M 48.78125 52.59375 
L 48.78125 44.1875 
Q 44.96875 46.296875 41.140625 47.34375 
Q 37.3125 48.390625 33.40625 48.390625 
Q 24.65625 48.390625 19.8125 42.84375 
Q 14.984375 37.3125 14.984375 27.296875 
Q 14.984375 17.28125 19.8125 11.734375 
Q 24.65625 6.203125 33.40625 6.203125 
Q 37.3125 6.203125 41.140625 7.25 
Q 44.96875 8.296875 48.78125 10.40625 
L 48.78125 2.09375 
Q 45.015625 0.34375 40.984375 -0.53125 
Q 36.96875 -1.421875 32.421875 -1.421875 
Q 20.0625 -1.421875 12.78125 6.34375 
Q 5.515625 14.109375 5.515625 27.296875 
Q 5.515625 40.671875 12.859375 48.328125 
Q 20.21875 56 33.015625 56 
Q 37.15625 56 41.109375 55.140625 
Q 45.0625 54.296875 48.78125 52.59375 
z
" id="DejaVuSans-99"/>
      <path d="M 5.609375 72.90625 
L 62.890625 72.90625 
L 62.890625 65.375 
L 16.796875 8.296875 
L 64.015625 8.296875 
L 64.015625 0 
L 4.5 0 
L 4.5 7.515625 
L 50.59375 64.59375 
L 5.609375 64.59375 
z
" id="DejaVuSans-90"/>
      <path d="M 54.890625 54.6875 
L 35.109375 28.078125 
L 55.90625 0 
L 45.3125 0 
L 29.390625 21.484375 
L 13.484375 0 
L 2.875 0 
L 24.125 28.609375 
L 4.6875 54.6875 
L 15.28125 54.6875 
L 29.78125 35.203125 
L 44.28125 54.6875 
z
" id="DejaVuSans-120"/>
     </defs>
     <use xlink:href="#DejaVuSans-86"/>
     <use x="66.158203" xlink:href="#DejaVuSans-105"/>
     <use x="93.941406" xlink:href="#DejaVuSans-111"/>
     <use x="155.123047" xlink:href="#DejaVuSans-108"/>
     <use x="182.90625" xlink:href="#DejaVuSans-105"/>
     <use x="210.689453" xlink:href="#DejaVuSans-110"/>
     <use x="274.068359" xlink:href="#DejaVuSans-32"/>
     <use x="305.855469" xlink:href="#DejaVuSans-80"/>
     <use x="366.158203" xlink:href="#DejaVuSans-108"/>
     <use x="393.941406" xlink:href="#DejaVuSans-111"/>
     <use x="455.123047" xlink:href="#DejaVuSans-116"/>
     <use x="494.332031" xlink:href="#DejaVuSans-32"/>
     <use x="526.119141" xlink:href="#DejaVuSans-45"/>
     <use x="562.203125" xlink:href="#DejaVuSans-32"/>
     <use x="593.990234" xlink:href="#DejaVuSans-76"/>
     <use x="649.703125" xlink:href="#DejaVuSans-97"/>
     <use x="710.982422" xlink:href="#DejaVuSans-99"/>
     <use x="765.962891" xlink:href="#DejaVuSans-90"/>
     <use x="834.46875" xlink:href="#DejaVuSans-32"/>
     <use x="866.255859" xlink:href="#DejaVuSans-77"/>
     <use x="952.535156" xlink:href="#DejaVuSans-97"/>
     <use x="1013.814453" xlink:href="#DejaVuSans-120"/>
    </g>
   </g>
  </g>
  <g id="axes_2">
   <g id="patch_7">
    <path d="M 54 831.318261 
L 388.8 831.318261 
L 388.8 547.70087 
L 54 547.70087 
z
" style="fill:#ffffff;"/>
   </g>
   <g id="matplotlib.axis_3">
    <g id="xtick_3">
     <g id="line2d_12">
      <g>
       <use style="stroke:#000000;stroke-width:0.8;" x="137.7" xlink:href="#m108b64ed49" y="831.318261"/>
      </g>
     </g>
    </g>
    <g id="xtick_4">
     <g id="line2d_13">
      <g>
       <use style="stroke:#000000;stroke-width:0.8;" x="305.1" xlink:href="#m108b64ed49" y="831.318261"/>
      </g>
     </g>
    </g>
   </g>
   <g id="matplotlib.axis_4">
    <g id="ytick_6">
     <g id="line2d_14">
      <g>
       <use style="stroke:#000000;stroke-width:0.8;" x="54" xlink:href="#mafbef56890" y="831.318261"/>
      </g>
     </g>
     <g id="text_9">
      <!-- 0.0 -->
      <g transform="translate(31.096875 835.11748)scale(0.1 -0.1)">
       <defs>
        <path d="M 10.6875 12.40625 
L 21 12.40625 
L 21 0 
L 10.6875 0 
z
" id="DejaVuSans-46"/>
       </defs>
       <use xlink:href="#DejaVuSans-48"/>
       <use x="63.623047" xlink:href="#DejaVuSans-46"/>
       <use x="95.410156" xlink:href="#DejaVuSans-48"/>
      </g>
     </g>
    </g>
    <g id="ytick_7">
     <g id="line2d_15">
      <g>
       <use style="stroke:#000000;stroke-width:0.8;" x="54" xlink:href="#mafbef56890" y="774.594783"/>
      </g>
     </g>
     <g id="text_10">
      <!-- 0.2 -->
      <g transform="translate(31.096875 778.394001)scale(0.1 -0.1)">
       <use xlink:href="#DejaVuSans-48"/>
       <use x="63.623047" xlink:href="#DejaVuSans-46"/>
       <use x="95.410156" xlink:href="#DejaVuSans-50"/>
      </g>
     </g>
    </g>
    <g id="ytick_8">
     <g id="line2d_16">
      <g>
       <use style="stroke:#000000;stroke-width:0.8;" x="54" xlink:href="#mafbef56890" y="717.871304"/>
      </g>
     </g>
     <g id="text_11">
      <!-- 0.4 -->
      <g transform="translate(31.096875 721.670523)scale(0.1 -0.1)">
       <use xlink:href="#DejaVuSans-48"/>
       <use x="63.623047" xlink:href="#DejaVuSans-46"/>
       <use x="95.410156" xlink:href="#DejaVuSans-52"/>
      </g>
     </g>
    </g>
    <g id="ytick_9">
     <g id="line2d_17">
      <g>
       <use style="stroke:#000000;stroke-width:0.8;" x="54" xlink:href="#mafbef56890" y="661.147826"/>
      </g>
     </g>
     <g id="text_12">
      <!-- 0.6 -->
      <g transform="translate(31.096875 664.947045)scale(0.1 -0.1)">
       <defs>
        <path d="M 33.015625 40.375 
Q 26.375 40.375 22.484375 35.828125 
Q 18.609375 31.296875 18.609375 23.390625 
Q 18.609375 15.53125 22.484375 10.953125 
Q 26.375 6.390625 33.015625 6.390625 
Q 39.65625 6.390625 43.53125 10.953125 
Q 47.40625 15.53125 47.40625 23.390625 
Q 47.40625 31.296875 43.53125 35.828125 
Q 39.65625 40.375 33.015625 40.375 
z
M 52.59375 71.296875 
L 52.59375 62.3125 
Q 48.875 64.0625 45.09375 64.984375 
Q 41.3125 65.921875 37.59375 65.921875 
Q 27.828125 65.921875 22.671875 59.328125 
Q 17.53125 52.734375 16.796875 39.40625 
Q 19.671875 43.65625 24.015625 45.921875 
Q 28.375 48.1875 33.59375 48.1875 
Q 44.578125 48.1875 50.953125 41.515625 
Q 57.328125 34.859375 57.328125 23.390625 
Q 57.328125 12.15625 50.6875 5.359375 
Q 44.046875 -1.421875 33.015625 -1.421875 
Q 20.359375 -1.421875 13.671875 8.265625 
Q 6.984375 17.96875 6.984375 36.375 
Q 6.984375 53.65625 15.1875 63.9375 
Q 23.390625 74.21875 37.203125 74.21875 
Q 40.921875 74.21875 44.703125 73.484375 
Q 48.484375 72.75 52.59375 71.296875 
z
" id="DejaVuSans-54"/>
       </defs>
       <use xlink:href="#DejaVuSans-48"/>
       <use x="63.623047" xlink:href="#DejaVuSans-46"/>
       <use x="95.410156" xlink:href="#DejaVuSans-54"/>
      </g>
     </g>
    </g>
    <g id="ytick_10">
     <g id="line2d_18">
      <g>
       <use style="stroke:#000000;stroke-width:0.8;" x="54" xlink:href="#mafbef56890" y="604.424348"/>
      </g>
     </g>
     <g id="text_13">
      <!-- 0.8 -->
      <g transform="translate(31.096875 608.223567)scale(0.1 -0.1)">
       <defs>
        <path d="M 31.78125 34.625 
Q 24.75 34.625 20.71875 30.859375 
Q 16.703125 27.09375 16.703125 20.515625 
Q 16.703125 13.921875 20.71875 10.15625 
Q 24.75 6.390625 31.78125 6.390625 
Q 38.8125 6.390625 42.859375 10.171875 
Q 46.921875 13.96875 46.921875 20.515625 
Q 46.921875 27.09375 42.890625 30.859375 
Q 38.875 34.625 31.78125 34.625 
z
M 21.921875 38.8125 
Q 15.578125 40.375 12.03125 44.71875 
Q 8.5 49.078125 8.5 55.328125 
Q 8.5 64.0625 14.71875 69.140625 
Q 20.953125 74.21875 31.78125 74.21875 
Q 42.671875 74.21875 48.875 69.140625 
Q 55.078125 64.0625 55.078125 55.328125 
Q 55.078125 49.078125 51.53125 44.71875 
Q 48 40.375 41.703125 38.8125 
Q 48.828125 37.15625 52.796875 32.3125 
Q 56.78125 27.484375 56.78125 20.515625 
Q 56.78125 9.90625 50.3125 4.234375 
Q 43.84375 -1.421875 31.78125 -1.421875 
Q 19.734375 -1.421875 13.25 4.234375 
Q 6.78125 9.90625 6.78125 20.515625 
Q 6.78125 27.484375 10.78125 32.3125 
Q 14.796875 37.15625 21.921875 38.8125 
z
M 18.3125 54.390625 
Q 18.3125 48.734375 21.84375 45.5625 
Q 25.390625 42.390625 31.78125 42.390625 
Q 38.140625 42.390625 41.71875 45.5625 
Q 45.3125 48.734375 45.3125 54.390625 
Q 45.3125 60.0625 41.71875 63.234375 
Q 38.140625 66.40625 31.78125 66.40625 
Q 25.390625 66.40625 21.84375 63.234375 
Q 18.3125 60.0625 18.3125 54.390625 
z
" id="DejaVuSans-56"/>
       </defs>
       <use xlink:href="#DejaVuSans-48"/>
       <use x="63.623047" xlink:href="#DejaVuSans-46"/>
       <use x="95.410156" xlink:href="#DejaVuSans-56"/>
      </g>
     </g>
    </g>
    <g id="ytick_11">
     <g id="line2d_19">
      <g>
       <use style="stroke:#000000;stroke-width:0.8;" x="54" xlink:href="#mafbef56890" y="547.70087"/>
      </g>
     </g>
     <g id="text_14">
      <!-- 1.0 -->
      <g transform="translate(31.096875 551.500088)scale(0.1 -0.1)">
       <use xlink:href="#DejaVuSans-49"/>
       <use x="63.623047" xlink:href="#DejaVuSans-46"/>
       <use x="95.410156" xlink:href="#DejaVuSans-48"/>
      </g>
     </g>
    </g>
   </g>
   <g id="patch_8">
    <path d="M 54 831.318261 
L 54 547.70087 
" style="fill:none;stroke:#000000;stroke-linecap:square;stroke-linejoin:miter;stroke-width:0.8;"/>
   </g>
   <g id="patch_9">
    <path d="M 388.8 831.318261 
L 388.8 547.70087 
" style="fill:none;stroke:#000000;stroke-linecap:square;stroke-linejoin:miter;stroke-width:0.8;"/>
   </g>
   <g id="patch_10">
    <path d="M 54 831.318261 
L 388.8 831.318261 
" style="fill:none;stroke:#000000;stroke-linecap:square;stroke-linejoin:miter;stroke-width:0.8;"/>
   </g>
   <g id="patch_11">
    <path d="M 54 547.70087 
L 388.8 547.70087 
" style="fill:none;stroke:#000000;stroke-linecap:square;stroke-linejoin:miter;stroke-width:0.8;"/>
   </g>
  </g>
  <g id="axes_3">
   <g id="patch_12">
    <path d="M 54 1171.65913 
L 388.8 1171.65913 
L 388.8 888.041739 
L 54 888.041739 
z
" style="fill:#ffffff;"/>
   </g>
   <g id="matplotlib.axis_5">
    <g id="xtick_5">
     <g id="line2d_20">
      <g>
       <use style="stroke:#000000;stroke-width:0.8;" x="137.7" xlink:href="#m108b64ed49" y="1171.65913"/>
      </g>
     </g>
    </g>
    <g id="xtick_6">
     <g id="line2d_21">
      <g>
       <use style="stroke:#000000;stroke-width:0.8;" x="305.1" xlink:href="#m108b64ed49" y="1171.65913"/>
      </g>
     </g>
    </g>
   </g>
   <g id="matplotlib.axis_6">
    <g id="ytick_12">
     <g id="line2d_22">
      <g>
       <use style="stroke:#000000;stroke-width:0.8;" x="54" xlink:href="#mafbef56890" y="1171.65913"/>
      </g>
     </g>
     <g id="text_15">
      <!-- 0.0 -->
      <g transform="translate(31.096875 1175.458349)scale(0.1 -0.1)">
       <use xlink:href="#DejaVuSans-48"/>
       <use x="63.623047" xlink:href="#DejaVuSans-46"/>
       <use x="95.410156" xlink:href="#DejaVuSans-48"/>
      </g>
     </g>
    </g>
    <g id="ytick_13">
     <g id="line2d_23">
      <g>
       <use style="stroke:#000000;stroke-width:0.8;" x="54" xlink:href="#mafbef56890" y="1114.935652"/>
      </g>
     </g>
     <g id="text_16">
      <!-- 0.2 -->
      <g transform="translate(31.096875 1118.734871)scale(0.1 -0.1)">
       <use xlink:href="#DejaVuSans-48"/>
       <use x="63.623047" xlink:href="#DejaVuSans-46"/>
       <use x="95.410156" xlink:href="#DejaVuSans-50"/>
      </g>
     </g>
    </g>
    <g id="ytick_14">
     <g id="line2d_24">
      <g>
       <use style="stroke:#000000;stroke-width:0.8;" x="54" xlink:href="#mafbef56890" y="1058.212174"/>
      </g>
     </g>
     <g id="text_17">
      <!-- 0.4 -->
      <g transform="translate(31.096875 1062.011393)scale(0.1 -0.1)">
       <use xlink:href="#DejaVuSans-48"/>
       <use x="63.623047" xlink:href="#DejaVuSans-46"/>
       <use x="95.410156" xlink:href="#DejaVuSans-52"/>
      </g>
     </g>
    </g>
    <g id="ytick_15">
     <g id="line2d_25">
      <g>
       <use style="stroke:#000000;stroke-width:0.8;" x="54" xlink:href="#mafbef56890" y="1001.488696"/>
      </g>
     </g>
     <g id="text_18">
      <!-- 0.6 -->
      <g transform="translate(31.096875 1005.287914)scale(0.1 -0.1)">
       <use xlink:href="#DejaVuSans-48"/>
       <use x="63.623047" xlink:href="#DejaVuSans-46"/>
       <use x="95.410156" xlink:href="#DejaVuSans-54"/>
      </g>
     </g>
    </g>
    <g id="ytick_16">
     <g id="line2d_26">
      <g>
       <use style="stroke:#000000;stroke-width:0.8;" x="54" xlink:href="#mafbef56890" y="944.765217"/>
      </g>
     </g>
     <g id="text_19">
      <!-- 0.8 -->
      <g transform="translate(31.096875 948.564436)scale(0.1 -0.1)">
       <use xlink:href="#DejaVuSans-48"/>
       <use x="63.623047" xlink:href="#DejaVuSans-46"/>
       <use x="95.410156" xlink:href="#DejaVuSans-56"/>
      </g>
     </g>
    </g>
    <g id="ytick_17">
     <g id="line2d_27">
      <g>
       <use style="stroke:#000000;stroke-width:0.8;" x="54" xlink:href="#mafbef56890" y="888.041739"/>
      </g>
     </g>
     <g id="text_20">
      <!-- 1.0 -->
      <g transform="translate(31.096875 891.840958)scale(0.1 -0.1)">
       <use xlink:href="#DejaVuSans-49"/>
       <use x="63.623047" xlink:href="#DejaVuSans-46"/>
       <use x="95.410156" xlink:href="#DejaVuSans-48"/>
      </g>
     </g>
    </g>
   </g>
   <g id="patch_13">
    <path d="M 54 1171.65913 
L 54 888.041739 
" style="fill:none;stroke:#000000;stroke-linecap:square;stroke-linejoin:miter;stroke-width:0.8;"/>
   </g>
   <g id="patch_14">
    <path d="M 388.8 1171.65913 
L 388.8 888.041739 
" style="fill:none;stroke:#000000;stroke-linecap:square;stroke-linejoin:miter;stroke-width:0.8;"/>
   </g>
   <g id="patch_15">
    <path d="M 54 1171.65913 
L 388.8 1171.65913 
" style="fill:none;stroke:#000000;stroke-linecap:square;stroke-linejoin:miter;stroke-width:0.8;"/>
   </g>
   <g id="patch_16">
    <path d="M 54 888.041739 
L 388.8 888.041739 
" style="fill:none;stroke:#000000;stroke-linecap:square;stroke-linejoin:miter;stroke-width:0.8;"/>
   </g>
  </g>
  <g id="axes_4">
   <g id="patch_17">
    <path d="M 54 1512 
L 388.8 1512 
L 388.8 1228.382609 
L 54 1228.382609 
z
" style="fill:#ffffff;"/>
   </g>
   <g id="matplotlib.axis_7">
    <g id="xtick_7">
     <g id="line2d_28">
      <g>
       <use style="stroke:#000000;stroke-width:0.8;" x="137.7" xlink:href="#m108b64ed49" y="1512"/>
      </g>
     </g>
     <g id="text_21">
      <!-- 2.094 -->
      <g transform="translate(123.385937 1526.598438)scale(0.1 -0.1)">
       <defs>
        <path d="M 10.984375 1.515625 
L 10.984375 10.5 
Q 14.703125 8.734375 18.5 7.8125 
Q 22.3125 6.890625 25.984375 6.890625 
Q 35.75 6.890625 40.890625 13.453125 
Q 46.046875 20.015625 46.78125 33.40625 
Q 43.953125 29.203125 39.59375 26.953125 
Q 35.25 24.703125 29.984375 24.703125 
Q 19.046875 24.703125 12.671875 31.3125 
Q 6.296875 37.9375 6.296875 49.421875 
Q 6.296875 60.640625 12.9375 67.421875 
Q 19.578125 74.21875 30.609375 74.21875 
Q 43.265625 74.21875 49.921875 64.515625 
Q 56.59375 54.828125 56.59375 36.375 
Q 56.59375 19.140625 48.40625 8.859375 
Q 40.234375 -1.421875 26.421875 -1.421875 
Q 22.703125 -1.421875 18.890625 -0.6875 
Q 15.09375 0.046875 10.984375 1.515625 
z
M 30.609375 32.421875 
Q 37.25 32.421875 41.125 36.953125 
Q 45.015625 41.5 45.015625 49.421875 
Q 45.015625 57.28125 41.125 61.84375 
Q 37.25 66.40625 30.609375 66.40625 
Q 23.96875 66.40625 20.09375 61.84375 
Q 16.21875 57.28125 16.21875 49.421875 
Q 16.21875 41.5 20.09375 36.953125 
Q 23.96875 32.421875 30.609375 32.421875 
z
" id="DejaVuSans-57"/>
       </defs>
       <use xlink:href="#DejaVuSans-50"/>
       <use x="63.623047" xlink:href="#DejaVuSans-46"/>
       <use x="95.410156" xlink:href="#DejaVuSans-48"/>
       <use x="159.033203" xlink:href="#DejaVuSans-57"/>
       <use x="222.65625" xlink:href="#DejaVuSans-52"/>
      </g>
     </g>
    </g>
    <g id="xtick_8">
     <g id="line2d_29">
      <g>
       <use style="stroke:#000000;stroke-width:0.8;" x="305.1" xlink:href="#m108b64ed49" y="1512"/>
      </g>
     </g>
     <g id="text_22">
      <!-- 1.683 -->
      <g transform="translate(290.785938 1526.598438)scale(0.1 -0.1)">
       <use xlink:href="#DejaVuSans-49"/>
       <use x="63.623047" xlink:href="#DejaVuSans-46"/>
       <use x="95.410156" xlink:href="#DejaVuSans-54"/>
       <use x="159.033203" xlink:href="#DejaVuSans-56"/>
       <use x="222.65625" xlink:href="#DejaVuSans-51"/>
      </g>
     </g>
    </g>
   </g>
   <g id="matplotlib.axis_8">
    <g id="ytick_18">
     <g id="line2d_30">
      <g>
       <use style="stroke:#000000;stroke-width:0.8;" x="54" xlink:href="#mafbef56890" y="1512"/>
      </g>
     </g>
     <g id="text_23">
      <!-- 0.0 -->
      <g transform="translate(31.096875 1515.799219)scale(0.1 -0.1)">
       <use xlink:href="#DejaVuSans-48"/>
       <use x="63.623047" xlink:href="#DejaVuSans-46"/>
       <use x="95.410156" xlink:href="#DejaVuSans-48"/>
      </g>
     </g>
    </g>
    <g id="ytick_19">
     <g id="line2d_31">
      <g>
       <use style="stroke:#000000;stroke-width:0.8;" x="54" xlink:href="#mafbef56890" y="1455.276522"/>
      </g>
     </g>
     <g id="text_24">
      <!-- 0.2 -->
      <g transform="translate(31.096875 1459.07574)scale(0.1 -0.1)">
       <use xlink:href="#DejaVuSans-48"/>
       <use x="63.623047" xlink:href="#DejaVuSans-46"/>
       <use x="95.410156" xlink:href="#DejaVuSans-50"/>
      </g>
     </g>
    </g>
    <g id="ytick_20">
     <g id="line2d_32">
      <g>
       <use style="stroke:#000000;stroke-width:0.8;" x="54" xlink:href="#mafbef56890" y="1398.553043"/>
      </g>
     </g>
     <g id="text_25">
      <!-- 0.4 -->
      <g transform="translate(31.096875 1402.352262)scale(0.1 -0.1)">
       <use xlink:href="#DejaVuSans-48"/>
       <use x="63.623047" xlink:href="#DejaVuSans-46"/>
       <use x="95.410156" xlink:href="#DejaVuSans-52"/>
      </g>
     </g>
    </g>
    <g id="ytick_21">
     <g id="line2d_33">
      <g>
       <use style="stroke:#000000;stroke-width:0.8;" x="54" xlink:href="#mafbef56890" y="1341.829565"/>
      </g>
     </g>
     <g id="text_26">
      <!-- 0.6 -->
      <g transform="translate(31.096875 1345.628784)scale(0.1 -0.1)">
       <use xlink:href="#DejaVuSans-48"/>
       <use x="63.623047" xlink:href="#DejaVuSans-46"/>
       <use x="95.410156" xlink:href="#DejaVuSans-54"/>
      </g>
     </g>
    </g>
    <g id="ytick_22">
     <g id="line2d_34">
      <g>
       <use style="stroke:#000000;stroke-width:0.8;" x="54" xlink:href="#mafbef56890" y="1285.106087"/>
      </g>
     </g>
     <g id="text_27">
      <!-- 0.8 -->
      <g transform="translate(31.096875 1288.905306)scale(0.1 -0.1)">
       <use xlink:href="#DejaVuSans-48"/>
       <use x="63.623047" xlink:href="#DejaVuSans-46"/>
       <use x="95.410156" xlink:href="#DejaVuSans-56"/>
      </g>
     </g>
    </g>
    <g id="ytick_23">
     <g id="line2d_35">
      <g>
       <use style="stroke:#000000;stroke-width:0.8;" x="54" xlink:href="#mafbef56890" y="1228.382609"/>
      </g>
     </g>
     <g id="text_28">
      <!-- 1.0 -->
      <g transform="translate(31.096875 1232.181827)scale(0.1 -0.1)">
       <use xlink:href="#DejaVuSans-49"/>
       <use x="63.623047" xlink:href="#DejaVuSans-46"/>
       <use x="95.410156" xlink:href="#DejaVuSans-48"/>
      </g>
     </g>
    </g>
   </g>
   <g id="patch_18">
    <path d="M 54 1512 
L 54 1228.382609 
" style="fill:none;stroke:#000000;stroke-linecap:square;stroke-linejoin:miter;stroke-width:0.8;"/>
   </g>
   <g id="patch_19">
    <path d="M 388.8 1512 
L 388.8 1228.382609 
" style="fill:none;stroke:#000000;stroke-linecap:square;stroke-linejoin:miter;stroke-width:0.8;"/>
   </g>
   <g id="patch_20">
    <path d="M 54 1512 
L 388.8 1512 
" style="fill:none;stroke:#000000;stroke-linecap:square;stroke-linejoin:miter;stroke-width:0.8;"/>
   </g>
   <g id="patch_21">
    <path d="M 54 1228.382609 
L 388.8 1228.382609 
" style="fill:none;stroke:#000000;stroke-linecap:square;stroke-linejoin:miter;stroke-width:0.8;"/>
   </g>
  </g>
 </g>
 <defs>
  <clipPath id="p1d20d35240">
   <rect height="283.617391" width="334.8" x="54" y="207.36"/>
  </clipPath>
 </defs>
</svg>
