<?xml version="1.0" encoding="utf-8" standalone="no"?>
<!DOCTYPE svg PUBLIC "-//W3C//DTD SVG 1.1//EN"
  "http://www.w3.org/Graphics/SVG/1.1/DTD/svg11.dtd">
<!-- Created with matplotlib (https://matplotlib.org/) -->
<svg height="1728pt" version="1.1" viewBox="0 0 432 1728" width="432pt" xmlns="http://www.w3.org/2000/svg" xmlns:xlink="http://www.w3.org/1999/xlink">
 <metadata>
  <rdf:RDF xmlns:cc="http://creativecommons.org/ns#" xmlns:dc="http://purl.org/dc/elements/1.1/" xmlns:rdf="http://www.w3.org/1999/02/22-rdf-syntax-ns#">
   <cc:Work>
    <dc:type rdf:resource="http://purl.org/dc/dcmitype/StillImage"/>
    <dc:date>2024-06-04T12:22:54.586368</dc:date>
    <dc:format>image/svg+xml</dc:format>
    <dc:creator>
     <cc:Agent>
      <dc:title>Matplotlib v3.3.2, https://matplotlib.org/</dc:title>
     </cc:Agent>
    </dc:creator>
   </cc:Work>
  </rdf:RDF>
 </metadata>
 <defs>
  <style type="text/css">*{stroke-linecap:butt;stroke-linejoin:round;}</style>
 </defs>
 <g id="figure_1">
  <g id="patch_1">
   <path d="M 0 1728 
L 432 1728 
L 432 0 
L 0 0 
z
" style="fill:none;"/>
  </g>
  <g id="axes_1">
   <g id="patch_2">
    <path d="M 54 490.977391 
L 388.8 490.977391 
L 388.8 207.36 
L 54 207.36 
z
" style="fill:#ffffff;"/>
   </g>
   <g id="PolyCollection_1">
    <defs>
     <path d="M 137.94998 -1249.914308 
L 137.45002 -1249.914308 
L 137.311332 -1252.518692 
L 137.125238 -1255.123076 
L 136.891061 -1257.72746 
L 136.615468 -1260.331843 
L 136.31331 -1262.936227 
L 136.006369 -1265.540611 
L 135.719894 -1268.144995 
L 135.477594 -1270.749378 
L 135.296511 -1273.353762 
L 135.183395 -1275.958146 
L 135.133794 -1278.56253 
L 135.13409 -1281.166913 
L 135.165699 -1283.771297 
L 135.209961 -1286.375681 
L 135.252195 -1288.980065 
L 135.283932 -1291.584448 
L 135.30306 -1294.188832 
L 135.312349 -1296.793216 
L 135.317126 -1299.3976 
L 135.322893 -1302.001983 
L 135.333431 -1304.606367 
L 135.349549 -1307.210751 
L 135.368324 -1309.815135 
L 135.382471 -1312.419519 
L 135.379549 -1315.023902 
L 135.340965 -1317.628286 
L 135.24122 -1320.23267 
L 135.048175 -1322.837054 
L 134.725154 -1325.441437 
L 134.235121 -1328.045821 
L 133.546171 -1330.650205 
L 132.636382 -1333.254589 
L 131.495453 -1335.858972 
L 130.120942 -1338.463356 
L 128.508704 -1341.06774 
L 126.639813 -1343.672124 
L 124.468942 -1346.276507 
L 121.920353 -1348.880891 
L 118.896523 -1351.485275 
L 115.300639 -1354.089659 
L 111.069139 -1356.694042 
L 106.205896 -1359.298426 
L 100.807673 -1361.90281 
L 95.072127 -1364.507194 
L 89.284347 -1367.111577 
L 83.78402 -1369.715961 
L 78.920476 -1372.320345 
L 75.005352 -1374.924729 
L 72.27196 -1377.529112 
L 70.847429 -1380.133496 
L 70.74 -1382.73788 
L 71.840953 -1385.342264 
L 73.939353 -1387.946648 
L 76.747713 -1390.551031 
L 79.936714 -1393.155415 
L 83.17625 -1395.759799 
L 86.177939 -1398.364183 
L 88.731938 -1400.968566 
L 90.729968 -1403.57295 
L 92.168524 -1406.177334 
L 93.131199 -1408.781718 
L 93.75553 -1411.386101 
L 94.194712 -1413.990485 
L 94.585769 -1416.594869 
L 95.032398 -1419.199253 
L 95.604221 -1421.803636 
L 96.347626 -1424.40802 
L 97.299499 -1427.012404 
L 98.495649 -1429.616788 
L 99.96971 -1432.221171 
L 101.743761 -1434.825555 
L 103.815982 -1437.429939 
L 106.151842 -1440.034323 
L 108.683373 -1442.638706 
L 111.317405 -1445.24309 
L 113.950173 -1447.847474 
L 116.483827 -1450.451858 
L 118.840532 -1453.056241 
L 120.971304 -1455.660625 
L 122.858686 -1458.265009 
L 124.513754 -1460.869393 
L 125.968855 -1463.473777 
L 127.267821 -1466.07816 
L 128.455619 -1468.682544 
L 129.569383 -1471.286928 
L 130.632514 -1473.891312 
L 131.652781 -1476.495695 
L 132.624342 -1479.100079 
L 133.532553 -1481.704463 
L 134.359844 -1484.308847 
L 135.090967 -1486.91323 
L 135.716456 -1489.517614 
L 136.233995 -1492.121998 
L 136.647985 -1494.726382 
L 136.968027 -1497.330765 
L 137.206982 -1499.935149 
L 137.379108 -1502.539533 
L 137.498552 -1505.143917 
L 137.578256 -1507.7483 
L 137.821744 -1507.7483 
L 137.821744 -1507.7483 
L 137.901448 -1505.143917 
L 138.020892 -1502.539533 
L 138.193018 -1499.935149 
L 138.431973 -1497.330765 
L 138.752015 -1494.726382 
L 139.166005 -1492.121998 
L 139.683544 -1489.517614 
L 140.309033 -1486.91323 
L 141.040156 -1484.308847 
L 141.867447 -1481.704463 
L 142.775658 -1479.100079 
L 143.747219 -1476.495695 
L 144.767486 -1473.891312 
L 145.830617 -1471.286928 
L 146.944381 -1468.682544 
L 148.132179 -1466.07816 
L 149.431145 -1463.473777 
L 150.886246 -1460.869393 
L 152.541314 -1458.265009 
L 154.428696 -1455.660625 
L 156.559468 -1453.056241 
L 158.916173 -1450.451858 
L 161.449827 -1447.847474 
L 164.082595 -1445.24309 
L 166.716627 -1442.638706 
L 169.248158 -1440.034323 
L 171.584018 -1437.429939 
L 173.656239 -1434.825555 
L 175.43029 -1432.221171 
L 176.904351 -1429.616788 
L 178.100501 -1427.012404 
L 179.052374 -1424.40802 
L 179.795779 -1421.803636 
L 180.367602 -1419.199253 
L 180.814231 -1416.594869 
L 181.205288 -1413.990485 
L 181.64447 -1411.386101 
L 182.268801 -1408.781718 
L 183.231476 -1406.177334 
L 184.670032 -1403.57295 
L 186.668062 -1400.968566 
L 189.222061 -1398.364183 
L 192.22375 -1395.759799 
L 195.463286 -1393.155415 
L 198.652287 -1390.551031 
L 201.460647 -1387.946648 
L 203.559047 -1385.342264 
L 204.66 -1382.73788 
L 204.552571 -1380.133496 
L 203.12804 -1377.529112 
L 200.394648 -1374.924729 
L 196.479524 -1372.320345 
L 191.61598 -1369.715961 
L 186.115653 -1367.111577 
L 180.327873 -1364.507194 
L 174.592327 -1361.90281 
L 169.194104 -1359.298426 
L 164.330861 -1356.694042 
L 160.099361 -1354.089659 
L 156.503477 -1351.485275 
L 153.479647 -1348.880891 
L 150.931058 -1346.276507 
L 148.760187 -1343.672124 
L 146.891296 -1341.06774 
L 145.279058 -1338.463356 
L 143.904547 -1335.858972 
L 142.763618 -1333.254589 
L 141.853829 -1330.650205 
L 141.164879 -1328.045821 
L 140.674846 -1325.441437 
L 140.351825 -1322.837054 
L 140.15878 -1320.23267 
L 140.059035 -1317.628286 
L 140.020451 -1315.023902 
L 140.017529 -1312.419519 
L 140.031676 -1309.815135 
L 140.050451 -1307.210751 
L 140.066569 -1304.606367 
L 140.077107 -1302.001983 
L 140.082874 -1299.3976 
L 140.087651 -1296.793216 
L 140.09694 -1294.188832 
L 140.116068 -1291.584448 
L 140.147805 -1288.980065 
L 140.190039 -1286.375681 
L 140.234301 -1283.771297 
L 140.26591 -1281.166913 
L 140.266206 -1278.56253 
L 140.216605 -1275.958146 
L 140.103489 -1273.353762 
L 139.922406 -1270.749378 
L 139.680106 -1268.144995 
L 139.393631 -1265.540611 
L 139.08669 -1262.936227 
L 138.784532 -1260.331843 
L 138.508939 -1257.72746 
L 138.274762 -1255.123076 
L 138.088668 -1252.518692 
L 137.94998 -1249.914308 
z
" id="mc38503d398" style="stroke:#333333;stroke-width:1.5;"/>
    </defs>
    <g clip-path="url(#pabf52aceff)">
     <use style="fill:#555555;stroke:#333333;stroke-width:1.5;" x="0" xlink:href="#mc38503d398" y="1728"/>
    </g>
   </g>
   <g id="PolyCollection_2">
    <defs>
     <path d="M 305.277557 -1268.556382 
L 304.922443 -1268.556382 
L 304.816487 -1270.90234 
L 304.661443 -1273.248298 
L 304.442393 -1275.594255 
L 304.143521 -1277.940213 
L 303.749636 -1280.286171 
L 303.248157 -1282.632129 
L 302.631327 -1284.978087 
L 301.898376 -1287.324045 
L 301.057274 -1289.670003 
L 300.125746 -1292.015961 
L 299.131337 -1294.361918 
L 298.110403 -1296.707876 
L 297.106048 -1299.053834 
L 296.16511 -1301.399792 
L 295.334332 -1303.74575 
L 294.655955 -1306.091708 
L 294.163049 -1308.437666 
L 293.875072 -1310.783624 
L 293.794321 -1313.129581 
L 293.90401 -1315.475539 
L 294.168585 -1317.821497 
L 294.536549 -1320.167455 
L 294.945519 -1322.513413 
L 295.328675 -1324.859371 
L 295.621335 -1327.205329 
L 295.766305 -1329.551287 
L 295.716944 -1331.897244 
L 295.437488 -1334.243202 
L 294.900934 -1336.58916 
L 294.085444 -1338.935118 
L 292.970634 -1341.281076 
L 291.535104 -1343.627034 
L 289.756188 -1345.972992 
L 287.612314 -1348.31895 
L 285.087588 -1350.664907 
L 282.177691 -1353.010865 
L 278.895804 -1355.356823 
L 275.277281 -1357.702781 
L 271.382142 -1360.048739 
L 267.294938 -1362.394697 
L 263.122145 -1364.740655 
L 258.987638 -1367.086613 
L 255.026935 -1369.43257 
L 251.38072 -1371.778528 
L 248.187762 -1374.124486 
L 245.576991 -1376.470444 
L 243.65838 -1378.816402 
L 242.512588 -1381.16236 
L 242.180004 -1383.508318 
L 242.650735 -1385.854276 
L 243.857783 -1388.200233 
L 245.675899 -1390.546191 
L 247.928165 -1392.892149 
L 250.40114 -1395.238107 
L 252.867773 -1397.584065 
L 255.115374 -1399.930023 
L 256.974367 -1402.275981 
L 258.342686 -1404.621939 
L 259.200823 -1406.967896 
L 259.613932 -1409.313854 
L 259.719748 -1411.659812 
L 259.704038 -1414.00577 
L 259.768092 -1416.351728 
L 260.094679 -1418.697686 
L 260.819307 -1421.043644 
L 262.012407 -1423.389602 
L 263.675395 -1425.73556 
L 265.750182 -1428.081517 
L 268.138593 -1430.427475 
L 270.726016 -1432.773433 
L 273.403265 -1435.119391 
L 276.081842 -1437.465349 
L 278.70032 -1439.811307 
L 281.222399 -1442.157265 
L 283.629454 -1444.503223 
L 285.911473 -1446.84918 
L 288.059845 -1449.195138 
L 290.064028 -1451.541096 
L 291.912188 -1453.887054 
L 293.594385 -1456.233012 
L 295.106202 -1458.57897 
L 296.450986 -1460.924928 
L 297.639777 -1463.270886 
L 298.689127 -1465.616843 
L 299.617764 -1467.962801 
L 300.443305 -1470.308759 
L 301.179964 -1472.654717 
L 301.837662 -1475.000675 
L 302.422413 -1477.346633 
L 302.937512 -1479.692591 
L 303.384985 -1482.038549 
L 303.766862 -1484.384506 
L 304.086028 -1486.730464 
L 304.346626 -1489.076422 
L 304.55406 -1491.42238 
L 304.714732 -1493.768338 
L 304.835625 -1496.114296 
L 304.923844 -1498.460254 
L 304.986183 -1500.806212 
L 305.213817 -1500.806212 
L 305.213817 -1500.806212 
L 305.276156 -1498.460254 
L 305.364375 -1496.114296 
L 305.485268 -1493.768338 
L 305.64594 -1491.42238 
L 305.853374 -1489.076422 
L 306.113972 -1486.730464 
L 306.433138 -1484.384506 
L 306.815015 -1482.038549 
L 307.262488 -1479.692591 
L 307.777587 -1477.346633 
L 308.362338 -1475.000675 
L 309.020036 -1472.654717 
L 309.756695 -1470.308759 
L 310.582236 -1467.962801 
L 311.510873 -1465.616843 
L 312.560223 -1463.270886 
L 313.749014 -1460.924928 
L 315.093798 -1458.57897 
L 316.605615 -1456.233012 
L 318.287812 -1453.887054 
L 320.135972 -1451.541096 
L 322.140155 -1449.195138 
L 324.288527 -1446.84918 
L 326.570546 -1444.503223 
L 328.977601 -1442.157265 
L 331.49968 -1439.811307 
L 334.118158 -1437.465349 
L 336.796735 -1435.119391 
L 339.473984 -1432.773433 
L 342.061407 -1430.427475 
L 344.449818 -1428.081517 
L 346.524605 -1425.73556 
L 348.187593 -1423.389602 
L 349.380693 -1421.043644 
L 350.105321 -1418.697686 
L 350.431908 -1416.351728 
L 350.495962 -1414.00577 
L 350.480252 -1411.659812 
L 350.586068 -1409.313854 
L 350.999177 -1406.967896 
L 351.857314 -1404.621939 
L 353.225633 -1402.275981 
L 355.084626 -1399.930023 
L 357.332227 -1397.584065 
L 359.79886 -1395.238107 
L 362.271835 -1392.892149 
L 364.524101 -1390.546191 
L 366.342217 -1388.200233 
L 367.549265 -1385.854276 
L 368.019996 -1383.508318 
L 367.687412 -1381.16236 
L 366.54162 -1378.816402 
L 364.623009 -1376.470444 
L 362.012238 -1374.124486 
L 358.81928 -1371.778528 
L 355.173065 -1369.43257 
L 351.212362 -1367.086613 
L 347.077855 -1364.740655 
L 342.905062 -1362.394697 
L 338.817858 -1360.048739 
L 334.922719 -1357.702781 
L 331.304196 -1355.356823 
L 328.022309 -1353.010865 
L 325.112412 -1350.664907 
L 322.587686 -1348.31895 
L 320.443812 -1345.972992 
L 318.664896 -1343.627034 
L 317.229366 -1341.281076 
L 316.114556 -1338.935118 
L 315.299066 -1336.58916 
L 314.762512 -1334.243202 
L 314.483056 -1331.897244 
L 314.433695 -1329.551287 
L 314.578665 -1327.205329 
L 314.871325 -1324.859371 
L 315.254481 -1322.513413 
L 315.663451 -1320.167455 
L 316.031415 -1317.821497 
L 316.29599 -1315.475539 
L 316.405679 -1313.129581 
L 316.324928 -1310.783624 
L 316.036951 -1308.437666 
L 315.544045 -1306.091708 
L 314.865668 -1303.74575 
L 314.03489 -1301.399792 
L 313.093952 -1299.053834 
L 312.089597 -1296.707876 
L 311.068663 -1294.361918 
L 310.074254 -1292.015961 
L 309.142726 -1289.670003 
L 308.301624 -1287.324045 
L 307.568673 -1284.978087 
L 306.951843 -1282.632129 
L 306.450364 -1280.286171 
L 306.056479 -1277.940213 
L 305.757607 -1275.594255 
L 305.538557 -1273.248298 
L 305.383513 -1270.90234 
L 305.277557 -1268.556382 
z
" id="mdbdda02b3c" style="stroke:#333333;stroke-width:1.5;"/>
    </defs>
    <g clip-path="url(#pabf52aceff)">
     <use style="fill:#aaaaaa;stroke:#333333;stroke-width:1.5;" x="0" xlink:href="#mdbdda02b3c" y="1728"/>
    </g>
   </g>
   <g id="matplotlib.axis_1">
    <g id="xtick_1">
     <g id="line2d_1">
      <defs>
       <path d="M 0 0 
L 0 3.5 
" id="m23f280755d" style="stroke:#000000;stroke-width:0.8;"/>
      </defs>
      <g>
       <use style="stroke:#000000;stroke-width:0.8;" x="137.7" xlink:href="#m23f280755d" y="490.977391"/>
      </g>
     </g>
    </g>
    <g id="xtick_2">
     <g id="line2d_2">
      <g>
       <use style="stroke:#000000;stroke-width:0.8;" x="305.1" xlink:href="#m23f280755d" y="490.977391"/>
      </g>
     </g>
    </g>
    <g id="text_1">
     <!-- Manual or Automated -->
     <g transform="translate(112.96875 510.174266)scale(0.2 -0.2)">
      <defs>
       <path d="M 9.8125 72.90625 
L 24.515625 72.90625 
L 43.109375 23.296875 
L 61.8125 72.90625 
L 76.515625 72.90625 
L 76.515625 0 
L 66.890625 0 
L 66.890625 64.015625 
L 48.09375 14.015625 
L 38.1875 14.015625 
L 19.390625 64.015625 
L 19.390625 0 
L 9.8125 0 
z
" id="DejaVuSans-77"/>
       <path d="M 34.28125 27.484375 
Q 23.390625 27.484375 19.1875 25 
Q 14.984375 22.515625 14.984375 16.5 
Q 14.984375 11.71875 18.140625 8.90625 
Q 21.296875 6.109375 26.703125 6.109375 
Q 34.1875 6.109375 38.703125 11.40625 
Q 43.21875 16.703125 43.21875 25.484375 
L 43.21875 27.484375 
z
M 52.203125 31.203125 
L 52.203125 0 
L 43.21875 0 
L 43.21875 8.296875 
Q 40.140625 3.328125 35.546875 0.953125 
Q 30.953125 -1.421875 24.3125 -1.421875 
Q 15.921875 -1.421875 10.953125 3.296875 
Q 6 8.015625 6 15.921875 
Q 6 25.140625 12.171875 29.828125 
Q 18.359375 34.515625 30.609375 34.515625 
L 43.21875 34.515625 
L 43.21875 35.40625 
Q 43.21875 41.609375 39.140625 45 
Q 35.0625 48.390625 27.6875 48.390625 
Q 23 48.390625 18.546875 47.265625 
Q 14.109375 46.140625 10.015625 43.890625 
L 10.015625 52.203125 
Q 14.9375 54.109375 19.578125 55.046875 
Q 24.21875 56 28.609375 56 
Q 40.484375 56 46.34375 49.84375 
Q 52.203125 43.703125 52.203125 31.203125 
z
" id="DejaVuSans-97"/>
       <path d="M 54.890625 33.015625 
L 54.890625 0 
L 45.90625 0 
L 45.90625 32.71875 
Q 45.90625 40.484375 42.875 44.328125 
Q 39.84375 48.1875 33.796875 48.1875 
Q 26.515625 48.1875 22.3125 43.546875 
Q 18.109375 38.921875 18.109375 30.90625 
L 18.109375 0 
L 9.078125 0 
L 9.078125 54.6875 
L 18.109375 54.6875 
L 18.109375 46.1875 
Q 21.34375 51.125 25.703125 53.5625 
Q 30.078125 56 35.796875 56 
Q 45.21875 56 50.046875 50.171875 
Q 54.890625 44.34375 54.890625 33.015625 
z
" id="DejaVuSans-110"/>
       <path d="M 8.5 21.578125 
L 8.5 54.6875 
L 17.484375 54.6875 
L 17.484375 21.921875 
Q 17.484375 14.15625 20.5 10.265625 
Q 23.53125 6.390625 29.59375 6.390625 
Q 36.859375 6.390625 41.078125 11.03125 
Q 45.3125 15.671875 45.3125 23.6875 
L 45.3125 54.6875 
L 54.296875 54.6875 
L 54.296875 0 
L 45.3125 0 
L 45.3125 8.40625 
Q 42.046875 3.421875 37.71875 1 
Q 33.40625 -1.421875 27.6875 -1.421875 
Q 18.265625 -1.421875 13.375 4.4375 
Q 8.5 10.296875 8.5 21.578125 
z
M 31.109375 56 
z
" id="DejaVuSans-117"/>
       <path d="M 9.421875 75.984375 
L 18.40625 75.984375 
L 18.40625 0 
L 9.421875 0 
z
" id="DejaVuSans-108"/>
       <path id="DejaVuSans-32"/>
       <path d="M 30.609375 48.390625 
Q 23.390625 48.390625 19.1875 42.75 
Q 14.984375 37.109375 14.984375 27.296875 
Q 14.984375 17.484375 19.15625 11.84375 
Q 23.34375 6.203125 30.609375 6.203125 
Q 37.796875 6.203125 41.984375 11.859375 
Q 46.1875 17.53125 46.1875 27.296875 
Q 46.1875 37.015625 41.984375 42.703125 
Q 37.796875 48.390625 30.609375 48.390625 
z
M 30.609375 56 
Q 42.328125 56 49.015625 48.375 
Q 55.71875 40.765625 55.71875 27.296875 
Q 55.71875 13.875 49.015625 6.21875 
Q 42.328125 -1.421875 30.609375 -1.421875 
Q 18.84375 -1.421875 12.171875 6.21875 
Q 5.515625 13.875 5.515625 27.296875 
Q 5.515625 40.765625 12.171875 48.375 
Q 18.84375 56 30.609375 56 
z
" id="DejaVuSans-111"/>
       <path d="M 41.109375 46.296875 
Q 39.59375 47.171875 37.8125 47.578125 
Q 36.03125 48 33.890625 48 
Q 26.265625 48 22.1875 43.046875 
Q 18.109375 38.09375 18.109375 28.8125 
L 18.109375 0 
L 9.078125 0 
L 9.078125 54.6875 
L 18.109375 54.6875 
L 18.109375 46.1875 
Q 20.953125 51.171875 25.484375 53.578125 
Q 30.03125 56 36.53125 56 
Q 37.453125 56 38.578125 55.875 
Q 39.703125 55.765625 41.0625 55.515625 
z
" id="DejaVuSans-114"/>
       <path d="M 34.1875 63.1875 
L 20.796875 26.90625 
L 47.609375 26.90625 
z
M 28.609375 72.90625 
L 39.796875 72.90625 
L 67.578125 0 
L 57.328125 0 
L 50.6875 18.703125 
L 17.828125 18.703125 
L 11.1875 0 
L 0.78125 0 
z
" id="DejaVuSans-65"/>
       <path d="M 18.3125 70.21875 
L 18.3125 54.6875 
L 36.8125 54.6875 
L 36.8125 47.703125 
L 18.3125 47.703125 
L 18.3125 18.015625 
Q 18.3125 11.328125 20.140625 9.421875 
Q 21.96875 7.515625 27.59375 7.515625 
L 36.8125 7.515625 
L 36.8125 0 
L 27.59375 0 
Q 17.1875 0 13.234375 3.875 
Q 9.28125 7.765625 9.28125 18.015625 
L 9.28125 47.703125 
L 2.6875 47.703125 
L 2.6875 54.6875 
L 9.28125 54.6875 
L 9.28125 70.21875 
z
" id="DejaVuSans-116"/>
       <path d="M 52 44.1875 
Q 55.375 50.25 60.0625 53.125 
Q 64.75 56 71.09375 56 
Q 79.640625 56 84.28125 50.015625 
Q 88.921875 44.046875 88.921875 33.015625 
L 88.921875 0 
L 79.890625 0 
L 79.890625 32.71875 
Q 79.890625 40.578125 77.09375 44.375 
Q 74.3125 48.1875 68.609375 48.1875 
Q 61.625 48.1875 57.5625 43.546875 
Q 53.515625 38.921875 53.515625 30.90625 
L 53.515625 0 
L 44.484375 0 
L 44.484375 32.71875 
Q 44.484375 40.625 41.703125 44.40625 
Q 38.921875 48.1875 33.109375 48.1875 
Q 26.21875 48.1875 22.15625 43.53125 
Q 18.109375 38.875 18.109375 30.90625 
L 18.109375 0 
L 9.078125 0 
L 9.078125 54.6875 
L 18.109375 54.6875 
L 18.109375 46.1875 
Q 21.1875 51.21875 25.484375 53.609375 
Q 29.78125 56 35.6875 56 
Q 41.65625 56 45.828125 52.96875 
Q 50 49.953125 52 44.1875 
z
" id="DejaVuSans-109"/>
       <path d="M 56.203125 29.59375 
L 56.203125 25.203125 
L 14.890625 25.203125 
Q 15.484375 15.921875 20.484375 11.0625 
Q 25.484375 6.203125 34.421875 6.203125 
Q 39.59375 6.203125 44.453125 7.46875 
Q 49.3125 8.734375 54.109375 11.28125 
L 54.109375 2.78125 
Q 49.265625 0.734375 44.1875 -0.34375 
Q 39.109375 -1.421875 33.890625 -1.421875 
Q 20.796875 -1.421875 13.15625 6.1875 
Q 5.515625 13.8125 5.515625 26.8125 
Q 5.515625 40.234375 12.765625 48.109375 
Q 20.015625 56 32.328125 56 
Q 43.359375 56 49.78125 48.890625 
Q 56.203125 41.796875 56.203125 29.59375 
z
M 47.21875 32.234375 
Q 47.125 39.59375 43.09375 43.984375 
Q 39.0625 48.390625 32.421875 48.390625 
Q 24.90625 48.390625 20.390625 44.140625 
Q 15.875 39.890625 15.1875 32.171875 
z
" id="DejaVuSans-101"/>
       <path d="M 45.40625 46.390625 
L 45.40625 75.984375 
L 54.390625 75.984375 
L 54.390625 0 
L 45.40625 0 
L 45.40625 8.203125 
Q 42.578125 3.328125 38.25 0.953125 
Q 33.9375 -1.421875 27.875 -1.421875 
Q 17.96875 -1.421875 11.734375 6.484375 
Q 5.515625 14.40625 5.515625 27.296875 
Q 5.515625 40.1875 11.734375 48.09375 
Q 17.96875 56 27.875 56 
Q 33.9375 56 38.25 53.625 
Q 42.578125 51.265625 45.40625 46.390625 
z
M 14.796875 27.296875 
Q 14.796875 17.390625 18.875 11.75 
Q 22.953125 6.109375 30.078125 6.109375 
Q 37.203125 6.109375 41.296875 11.75 
Q 45.40625 17.390625 45.40625 27.296875 
Q 45.40625 37.203125 41.296875 42.84375 
Q 37.203125 48.484375 30.078125 48.484375 
Q 22.953125 48.484375 18.875 42.84375 
Q 14.796875 37.203125 14.796875 27.296875 
z
" id="DejaVuSans-100"/>
      </defs>
      <use xlink:href="#DejaVuSans-77"/>
      <use x="86.279297" xlink:href="#DejaVuSans-97"/>
      <use x="147.558594" xlink:href="#DejaVuSans-110"/>
      <use x="210.9375" xlink:href="#DejaVuSans-117"/>
      <use x="274.316406" xlink:href="#DejaVuSans-97"/>
      <use x="335.595703" xlink:href="#DejaVuSans-108"/>
      <use x="363.378906" xlink:href="#DejaVuSans-32"/>
      <use x="395.166016" xlink:href="#DejaVuSans-111"/>
      <use x="456.347656" xlink:href="#DejaVuSans-114"/>
      <use x="497.460938" xlink:href="#DejaVuSans-32"/>
      <use x="529.248047" xlink:href="#DejaVuSans-65"/>
      <use x="597.65625" xlink:href="#DejaVuSans-117"/>
      <use x="661.035156" xlink:href="#DejaVuSans-116"/>
      <use x="700.244141" xlink:href="#DejaVuSans-111"/>
      <use x="761.425781" xlink:href="#DejaVuSans-109"/>
      <use x="858.837891" xlink:href="#DejaVuSans-97"/>
      <use x="920.117188" xlink:href="#DejaVuSans-116"/>
      <use x="959.326172" xlink:href="#DejaVuSans-101"/>
      <use x="1020.849609" xlink:href="#DejaVuSans-100"/>
     </g>
    </g>
   </g>
   <g id="matplotlib.axis_2">
    <g id="ytick_1">
     <g id="line2d_3">
      <defs>
       <path d="M 0 0 
L -3.5 0 
" id="mfff51f0219" style="stroke:#000000;stroke-width:0.8;"/>
      </defs>
      <g>
       <use style="stroke:#000000;stroke-width:0.8;" x="54" xlink:href="#mfff51f0219" y="462.624797"/>
      </g>
     </g>
     <g id="text_2">
      <!-- 0 -->
      <g transform="translate(34.275 470.223234)scale(0.2 -0.2)">
       <defs>
        <path d="M 31.78125 66.40625 
Q 24.171875 66.40625 20.328125 58.90625 
Q 16.5 51.421875 16.5 36.375 
Q 16.5 21.390625 20.328125 13.890625 
Q 24.171875 6.390625 31.78125 6.390625 
Q 39.453125 6.390625 43.28125 13.890625 
Q 47.125 21.390625 47.125 36.375 
Q 47.125 51.421875 43.28125 58.90625 
Q 39.453125 66.40625 31.78125 66.40625 
z
M 31.78125 74.21875 
Q 44.046875 74.21875 50.515625 64.515625 
Q 56.984375 54.828125 56.984375 36.375 
Q 56.984375 17.96875 50.515625 8.265625 
Q 44.046875 -1.421875 31.78125 -1.421875 
Q 19.53125 -1.421875 13.0625 8.265625 
Q 6.59375 17.96875 6.59375 36.375 
Q 6.59375 54.828125 13.0625 64.515625 
Q 19.53125 74.21875 31.78125 74.21875 
z
" id="DejaVuSans-48"/>
       </defs>
       <use xlink:href="#DejaVuSans-48"/>
      </g>
     </g>
    </g>
    <g id="ytick_2">
     <g id="line2d_4">
      <g>
       <use style="stroke:#000000;stroke-width:0.8;" x="54" xlink:href="#mfff51f0219" y="406.374871"/>
      </g>
     </g>
     <g id="text_3">
      <!-- 1 -->
      <g transform="translate(34.275 413.973308)scale(0.2 -0.2)">
       <defs>
        <path d="M 12.40625 8.296875 
L 28.515625 8.296875 
L 28.515625 63.921875 
L 10.984375 60.40625 
L 10.984375 69.390625 
L 28.421875 72.90625 
L 38.28125 72.90625 
L 38.28125 8.296875 
L 54.390625 8.296875 
L 54.390625 0 
L 12.40625 0 
z
" id="DejaVuSans-49"/>
       </defs>
       <use xlink:href="#DejaVuSans-49"/>
      </g>
     </g>
    </g>
    <g id="ytick_3">
     <g id="line2d_5">
      <g>
       <use style="stroke:#000000;stroke-width:0.8;" x="54" xlink:href="#mfff51f0219" y="350.124944"/>
      </g>
     </g>
     <g id="text_4">
      <!-- 2 -->
      <g transform="translate(34.275 357.723382)scale(0.2 -0.2)">
       <defs>
        <path d="M 19.1875 8.296875 
L 53.609375 8.296875 
L 53.609375 0 
L 7.328125 0 
L 7.328125 8.296875 
Q 12.9375 14.109375 22.625 23.890625 
Q 32.328125 33.6875 34.8125 36.53125 
Q 39.546875 41.84375 41.421875 45.53125 
Q 43.3125 49.21875 43.3125 52.78125 
Q 43.3125 58.59375 39.234375 62.25 
Q 35.15625 65.921875 28.609375 65.921875 
Q 23.96875 65.921875 18.8125 64.3125 
Q 13.671875 62.703125 7.8125 59.421875 
L 7.8125 69.390625 
Q 13.765625 71.78125 18.9375 73 
Q 24.125 74.21875 28.421875 74.21875 
Q 39.75 74.21875 46.484375 68.546875 
Q 53.21875 62.890625 53.21875 53.421875 
Q 53.21875 48.921875 51.53125 44.890625 
Q 49.859375 40.875 45.40625 35.40625 
Q 44.1875 33.984375 37.640625 27.21875 
Q 31.109375 20.453125 19.1875 8.296875 
z
" id="DejaVuSans-50"/>
       </defs>
       <use xlink:href="#DejaVuSans-50"/>
      </g>
     </g>
    </g>
    <g id="ytick_4">
     <g id="line2d_6">
      <g>
       <use style="stroke:#000000;stroke-width:0.8;" x="54" xlink:href="#mfff51f0219" y="293.875018"/>
      </g>
     </g>
     <g id="text_5">
      <!-- 3 -->
      <g transform="translate(34.275 301.473456)scale(0.2 -0.2)">
       <defs>
        <path d="M 40.578125 39.3125 
Q 47.65625 37.796875 51.625 33 
Q 55.609375 28.21875 55.609375 21.1875 
Q 55.609375 10.40625 48.1875 4.484375 
Q 40.765625 -1.421875 27.09375 -1.421875 
Q 22.515625 -1.421875 17.65625 -0.515625 
Q 12.796875 0.390625 7.625 2.203125 
L 7.625 11.71875 
Q 11.71875 9.328125 16.59375 8.109375 
Q 21.484375 6.890625 26.8125 6.890625 
Q 36.078125 6.890625 40.9375 10.546875 
Q 45.796875 14.203125 45.796875 21.1875 
Q 45.796875 27.640625 41.28125 31.265625 
Q 36.765625 34.90625 28.71875 34.90625 
L 20.21875 34.90625 
L 20.21875 43.015625 
L 29.109375 43.015625 
Q 36.375 43.015625 40.234375 45.921875 
Q 44.09375 48.828125 44.09375 54.296875 
Q 44.09375 59.90625 40.109375 62.90625 
Q 36.140625 65.921875 28.71875 65.921875 
Q 24.65625 65.921875 20.015625 65.03125 
Q 15.375 64.15625 9.8125 62.3125 
L 9.8125 71.09375 
Q 15.4375 72.65625 20.34375 73.4375 
Q 25.25 74.21875 29.59375 74.21875 
Q 40.828125 74.21875 47.359375 69.109375 
Q 53.90625 64.015625 53.90625 55.328125 
Q 53.90625 49.265625 50.4375 45.09375 
Q 46.96875 40.921875 40.578125 39.3125 
z
" id="DejaVuSans-51"/>
       </defs>
       <use xlink:href="#DejaVuSans-51"/>
      </g>
     </g>
    </g>
    <g id="ytick_5">
     <g id="line2d_7">
      <g>
       <use style="stroke:#000000;stroke-width:0.8;" x="54" xlink:href="#mfff51f0219" y="237.625092"/>
      </g>
     </g>
     <g id="text_6">
      <!-- 4 -->
      <g transform="translate(34.275 245.22353)scale(0.2 -0.2)">
       <defs>
        <path d="M 37.796875 64.3125 
L 12.890625 25.390625 
L 37.796875 25.390625 
z
M 35.203125 72.90625 
L 47.609375 72.90625 
L 47.609375 25.390625 
L 58.015625 25.390625 
L 58.015625 17.1875 
L 47.609375 17.1875 
L 47.609375 0 
L 37.796875 0 
L 37.796875 17.1875 
L 4.890625 17.1875 
L 4.890625 26.703125 
z
" id="DejaVuSans-52"/>
       </defs>
       <use xlink:href="#DejaVuSans-52"/>
      </g>
     </g>
    </g>
    <g id="text_7">
     <!-- Signal -->
     <g transform="translate(26.115625 379.887446)rotate(-90)scale(0.2 -0.2)">
      <defs>
       <path d="M 53.515625 70.515625 
L 53.515625 60.890625 
Q 47.90625 63.578125 42.921875 64.890625 
Q 37.9375 66.21875 33.296875 66.21875 
Q 25.25 66.21875 20.875 63.09375 
Q 16.5 59.96875 16.5 54.203125 
Q 16.5 49.359375 19.40625 46.890625 
Q 22.3125 44.4375 30.421875 42.921875 
L 36.375 41.703125 
Q 47.40625 39.59375 52.65625 34.296875 
Q 57.90625 29 57.90625 20.125 
Q 57.90625 9.515625 50.796875 4.046875 
Q 43.703125 -1.421875 29.984375 -1.421875 
Q 24.8125 -1.421875 18.96875 -0.25 
Q 13.140625 0.921875 6.890625 3.21875 
L 6.890625 13.375 
Q 12.890625 10.015625 18.65625 8.296875 
Q 24.421875 6.59375 29.984375 6.59375 
Q 38.421875 6.59375 43.015625 9.90625 
Q 47.609375 13.234375 47.609375 19.390625 
Q 47.609375 24.75 44.3125 27.78125 
Q 41.015625 30.8125 33.5 32.328125 
L 27.484375 33.5 
Q 16.453125 35.6875 11.515625 40.375 
Q 6.59375 45.0625 6.59375 53.421875 
Q 6.59375 63.09375 13.40625 68.65625 
Q 20.21875 74.21875 32.171875 74.21875 
Q 37.3125 74.21875 42.625 73.28125 
Q 47.953125 72.359375 53.515625 70.515625 
z
" id="DejaVuSans-83"/>
       <path d="M 9.421875 54.6875 
L 18.40625 54.6875 
L 18.40625 0 
L 9.421875 0 
z
M 9.421875 75.984375 
L 18.40625 75.984375 
L 18.40625 64.59375 
L 9.421875 64.59375 
z
" id="DejaVuSans-105"/>
       <path d="M 45.40625 27.984375 
Q 45.40625 37.75 41.375 43.109375 
Q 37.359375 48.484375 30.078125 48.484375 
Q 22.859375 48.484375 18.828125 43.109375 
Q 14.796875 37.75 14.796875 27.984375 
Q 14.796875 18.265625 18.828125 12.890625 
Q 22.859375 7.515625 30.078125 7.515625 
Q 37.359375 7.515625 41.375 12.890625 
Q 45.40625 18.265625 45.40625 27.984375 
z
M 54.390625 6.78125 
Q 54.390625 -7.171875 48.1875 -13.984375 
Q 42 -20.796875 29.203125 -20.796875 
Q 24.46875 -20.796875 20.265625 -20.09375 
Q 16.0625 -19.390625 12.109375 -17.921875 
L 12.109375 -9.1875 
Q 16.0625 -11.328125 19.921875 -12.34375 
Q 23.78125 -13.375 27.78125 -13.375 
Q 36.625 -13.375 41.015625 -8.765625 
Q 45.40625 -4.15625 45.40625 5.171875 
L 45.40625 9.625 
Q 42.625 4.78125 38.28125 2.390625 
Q 33.9375 0 27.875 0 
Q 17.828125 0 11.671875 7.65625 
Q 5.515625 15.328125 5.515625 27.984375 
Q 5.515625 40.671875 11.671875 48.328125 
Q 17.828125 56 27.875 56 
Q 33.9375 56 38.28125 53.609375 
Q 42.625 51.21875 45.40625 46.390625 
L 45.40625 54.6875 
L 54.390625 54.6875 
z
" id="DejaVuSans-103"/>
      </defs>
      <use xlink:href="#DejaVuSans-83"/>
      <use x="63.476562" xlink:href="#DejaVuSans-105"/>
      <use x="91.259766" xlink:href="#DejaVuSans-103"/>
      <use x="154.736328" xlink:href="#DejaVuSans-110"/>
      <use x="218.115234" xlink:href="#DejaVuSans-97"/>
      <use x="279.394531" xlink:href="#DejaVuSans-108"/>
     </g>
    </g>
   </g>
   <g id="line2d_8">
    <path clip-path="url(#pabf52aceff)" d="M 137.7 420.943601 
L 137.7 243.081335 
" style="fill:none;stroke:#333333;stroke-linecap:square;stroke-width:1.5;"/>
   </g>
   <g id="line2d_9">
    <path clip-path="url(#pabf52aceff)" d="M 137.7 352.374941 
L 137.7 305.631253 
" style="fill:none;stroke:#333333;stroke-linecap:square;stroke-width:4.5;"/>
   </g>
   <g id="line2d_10">
    <path clip-path="url(#pabf52aceff)" d="M 305.1 427.862342 
L 305.1 250.562575 
" style="fill:none;stroke:#333333;stroke-linecap:square;stroke-width:1.5;"/>
   </g>
   <g id="line2d_11">
    <path clip-path="url(#pabf52aceff)" d="M 305.1 357.212435 
L 305.1 310.074997 
" style="fill:none;stroke:#333333;stroke-linecap:square;stroke-width:4.5;"/>
   </g>
   <g id="patch_3">
    <path d="M 54 490.977391 
L 54 207.36 
" style="fill:none;stroke:#000000;stroke-linecap:square;stroke-linejoin:miter;stroke-width:0.8;"/>
   </g>
   <g id="patch_4">
    <path d="M 388.8 490.977391 
L 388.8 207.36 
" style="fill:none;stroke:#000000;stroke-linecap:square;stroke-linejoin:miter;stroke-width:0.8;"/>
   </g>
   <g id="patch_5">
    <path d="M 54 490.977391 
L 388.8 490.977391 
" style="fill:none;stroke:#000000;stroke-linecap:square;stroke-linejoin:miter;stroke-width:0.8;"/>
   </g>
   <g id="patch_6">
    <path d="M 54 207.36 
L 388.8 207.36 
" style="fill:none;stroke:#000000;stroke-linecap:square;stroke-linejoin:miter;stroke-width:0.8;"/>
   </g>
   <g id="PathCollection_1">
    <defs>
     <path d="M 0 1.5 
C 0.397805 1.5 0.77937 1.341951 1.06066 1.06066 
C 1.341951 0.77937 1.5 0.397805 1.5 0 
C 1.5 -0.397805 1.341951 -0.77937 1.06066 -1.06066 
C 0.77937 -1.341951 0.397805 -1.5 0 -1.5 
C -0.397805 -1.5 -0.77937 -1.341951 -1.06066 -1.06066 
C -1.341951 -0.77937 -1.5 -0.397805 -1.5 0 
C -1.5 0.397805 -1.341951 0.77937 -1.06066 1.06066 
C -0.77937 1.341951 -0.397805 1.5 0 1.5 
z
" id="m7ba87d7b9d" style="stroke:#333333;"/>
    </defs>
    <g clip-path="url(#pabf52aceff)">
     <use style="fill:#ffffff;stroke:#333333;" x="137.7" xlink:href="#m7ba87d7b9d" y="335.162464"/>
    </g>
   </g>
   <g id="PathCollection_2">
    <g clip-path="url(#pabf52aceff)">
     <use style="fill:#ffffff;stroke:#333333;" x="305.1" xlink:href="#m7ba87d7b9d" y="337.97496"/>
    </g>
   </g>
   <g id="text_8">
    <!-- Violin Plot - LacZ Max -->
    <g transform="translate(114.103125 201.36)scale(0.2 -0.2)">
     <defs>
      <path d="M 28.609375 0 
L 0.78125 72.90625 
L 11.078125 72.90625 
L 34.1875 11.53125 
L 57.328125 72.90625 
L 67.578125 72.90625 
L 39.796875 0 
z
" id="DejaVuSans-86"/>
      <path d="M 19.671875 64.796875 
L 19.671875 37.40625 
L 32.078125 37.40625 
Q 38.96875 37.40625 42.71875 40.96875 
Q 46.484375 44.53125 46.484375 51.125 
Q 46.484375 57.671875 42.71875 61.234375 
Q 38.96875 64.796875 32.078125 64.796875 
z
M 9.8125 72.90625 
L 32.078125 72.90625 
Q 44.34375 72.90625 50.609375 67.359375 
Q 56.890625 61.8125 56.890625 51.125 
Q 56.890625 40.328125 50.609375 34.8125 
Q 44.34375 29.296875 32.078125 29.296875 
L 19.671875 29.296875 
L 19.671875 0 
L 9.8125 0 
z
" id="DejaVuSans-80"/>
      <path d="M 4.890625 31.390625 
L 31.203125 31.390625 
L 31.203125 23.390625 
L 4.890625 23.390625 
z
" id="DejaVuSans-45"/>
      <path d="M 9.8125 72.90625 
L 19.671875 72.90625 
L 19.671875 8.296875 
L 55.171875 8.296875 
L 55.171875 0 
L 9.8125 0 
z
" id="DejaVuSans-76"/>
      <path d="M 48.78125 52.59375 
L 48.78125 44.1875 
Q 44.96875 46.296875 41.140625 47.34375 
Q 37.3125 48.390625 33.40625 48.390625 
Q 24.65625 48.390625 19.8125 42.84375 
Q 14.984375 37.3125 14.984375 27.296875 
Q 14.984375 17.28125 19.8125 11.734375 
Q 24.65625 6.203125 33.40625 6.203125 
Q 37.3125 6.203125 41.140625 7.25 
Q 44.96875 8.296875 48.78125 10.40625 
L 48.78125 2.09375 
Q 45.015625 0.34375 40.984375 -0.53125 
Q 36.96875 -1.421875 32.421875 -1.421875 
Q 20.0625 -1.421875 12.78125 6.34375 
Q 5.515625 14.109375 5.515625 27.296875 
Q 5.515625 40.671875 12.859375 48.328125 
Q 20.21875 56 33.015625 56 
Q 37.15625 56 41.109375 55.140625 
Q 45.0625 54.296875 48.78125 52.59375 
z
" id="DejaVuSans-99"/>
      <path d="M 5.609375 72.90625 
L 62.890625 72.90625 
L 62.890625 65.375 
L 16.796875 8.296875 
L 64.015625 8.296875 
L 64.015625 0 
L 4.5 0 
L 4.5 7.515625 
L 50.59375 64.59375 
L 5.609375 64.59375 
z
" id="DejaVuSans-90"/>
      <path d="M 54.890625 54.6875 
L 35.109375 28.078125 
L 55.90625 0 
L 45.3125 0 
L 29.390625 21.484375 
L 13.484375 0 
L 2.875 0 
L 24.125 28.609375 
L 4.6875 54.6875 
L 15.28125 54.6875 
L 29.78125 35.203125 
L 44.28125 54.6875 
z
" id="DejaVuSans-120"/>
     </defs>
     <use xlink:href="#DejaVuSans-86"/>
     <use x="66.158203" xlink:href="#DejaVuSans-105"/>
     <use x="93.941406" xlink:href="#DejaVuSans-111"/>
     <use x="155.123047" xlink:href="#DejaVuSans-108"/>
     <use x="182.90625" xlink:href="#DejaVuSans-105"/>
     <use x="210.689453" xlink:href="#DejaVuSans-110"/>
     <use x="274.068359" xlink:href="#DejaVuSans-32"/>
     <use x="305.855469" xlink:href="#DejaVuSans-80"/>
     <use x="366.158203" xlink:href="#DejaVuSans-108"/>
     <use x="393.941406" xlink:href="#DejaVuSans-111"/>
     <use x="455.123047" xlink:href="#DejaVuSans-116"/>
     <use x="494.332031" xlink:href="#DejaVuSans-32"/>
     <use x="526.119141" xlink:href="#DejaVuSans-45"/>
     <use x="562.203125" xlink:href="#DejaVuSans-32"/>
     <use x="593.990234" xlink:href="#DejaVuSans-76"/>
     <use x="649.703125" xlink:href="#DejaVuSans-97"/>
     <use x="710.982422" xlink:href="#DejaVuSans-99"/>
     <use x="765.962891" xlink:href="#DejaVuSans-90"/>
     <use x="834.46875" xlink:href="#DejaVuSans-32"/>
     <use x="866.255859" xlink:href="#DejaVuSans-77"/>
     <use x="952.535156" xlink:href="#DejaVuSans-97"/>
     <use x="1013.814453" xlink:href="#DejaVuSans-120"/>
    </g>
   </g>
  </g>
  <g id="axes_2">
   <g id="patch_7">
    <path d="M 54 831.318261 
L 388.8 831.318261 
L 388.8 547.70087 
L 54 547.70087 
z
" style="fill:#ffffff;"/>
   </g>
   <g id="PolyCollection_3">
    <defs>
     <path d="M 140.745051 -909.573439 
L 134.654949 -909.573439 
L 133.059831 -912.177822 
L 130.901772 -914.782206 
L 128.120951 -917.38659 
L 124.713419 -919.990974 
L 120.750967 -922.595358 
L 116.390564 -925.199741 
L 111.867661 -927.804125 
L 107.470977 -930.408509 
L 103.501485 -933.012893 
L 100.223524 -935.617276 
L 97.819486 -938.22166 
L 96.359604 -940.826044 
L 95.794758 -943.430428 
L 95.97386 -946.034811 
L 96.680462 -948.639195 
L 97.678156 -951.243579 
L 98.752827 -953.847963 
L 99.742056 -956.452346 
L 100.546931 -959.05673 
L 101.127268 -961.661114 
L 101.485703 -964.265498 
L 101.648174 -966.869881 
L 101.647678 -969.474265 
L 101.515533 -972.078649 
L 101.280941 -974.683033 
L 100.976591 -977.287416 
L 100.646272 -979.8918 
L 100.35026 -982.496184 
L 100.165458 -985.100568 
L 100.179266 -987.704951 
L 100.478337 -990.309335 
L 101.134905 -992.913719 
L 102.194048 -995.518103 
L 103.664878 -998.122487 
L 105.517506 -1000.72687 
L 107.686181 -1003.331254 
L 110.077581 -1005.935638 
L 112.582363 -1008.540022 
L 115.087653 -1011.144405 
L 117.488368 -1013.748789 
L 119.695859 -1016.353173 
L 121.643096 -1018.957557 
L 123.28645 -1021.56194 
L 124.60472 -1024.166324 
L 125.596455 -1026.770708 
L 126.276692 -1029.375092 
L 126.673961 -1031.979475 
L 126.828008 -1034.583859 
L 126.788106 -1037.188243 
L 126.611462 -1039.792627 
L 126.360992 -1042.39701 
L 126.101916 -1045.001394 
L 125.897021 -1047.605778 
L 125.801008 -1050.210162 
L 125.854897 -1052.814545 
L 126.081684 -1055.418929 
L 126.484406 -1058.023313 
L 127.047233 -1060.627697 
L 127.739505 -1063.23208 
L 128.521852 -1065.836464 
L 129.353024 -1068.440848 
L 130.195928 -1071.045232 
L 131.021695 -1073.649616 
L 131.811216 -1076.253999 
L 132.554327 -1078.858383 
L 133.247376 -1081.462767 
L 133.890197 -1084.067151 
L 134.483448 -1086.671534 
L 135.026914 -1089.275918 
L 135.518989 -1091.880302 
L 135.957123 -1094.484686 
L 136.338808 -1097.089069 
L 136.662631 -1099.693453 
L 136.929008 -1102.297837 
L 137.140427 -1104.902221 
L 137.301197 -1107.506604 
L 137.416855 -1110.110988 
L 137.493455 -1112.715372 
L 137.536941 -1115.319756 
L 137.552778 -1117.924139 
L 137.545877 -1120.528523 
L 137.520801 -1123.132907 
L 137.482106 -1125.737291 
L 137.434684 -1128.341674 
L 137.383912 -1130.946058 
L 137.335524 -1133.550442 
L 137.295169 -1136.154826 
L 137.267756 -1138.759209 
L 137.256744 -1141.363593 
L 137.263599 -1143.967977 
L 137.287565 -1146.572361 
L 137.325862 -1149.176745 
L 137.374237 -1151.781128 
L 137.427754 -1154.385512 
L 137.481623 -1156.989896 
L 137.531872 -1159.59428 
L 137.575762 -1162.198663 
L 137.611884 -1164.803047 
L 137.640015 -1167.407431 
L 137.759985 -1167.407431 
L 137.759985 -1167.407431 
L 137.788116 -1164.803047 
L 137.824238 -1162.198663 
L 137.868128 -1159.59428 
L 137.918377 -1156.989896 
L 137.972246 -1154.385512 
L 138.025763 -1151.781128 
L 138.074138 -1149.176745 
L 138.112435 -1146.572361 
L 138.136401 -1143.967977 
L 138.143256 -1141.363593 
L 138.132244 -1138.759209 
L 138.104831 -1136.154826 
L 138.064476 -1133.550442 
L 138.016088 -1130.946058 
L 137.965316 -1128.341674 
L 137.917894 -1125.737291 
L 137.879199 -1123.132907 
L 137.854123 -1120.528523 
L 137.847222 -1117.924139 
L 137.863059 -1115.319756 
L 137.906545 -1112.715372 
L 137.983145 -1110.110988 
L 138.098803 -1107.506604 
L 138.259573 -1104.902221 
L 138.470992 -1102.297837 
L 138.737369 -1099.693453 
L 139.061192 -1097.089069 
L 139.442877 -1094.484686 
L 139.881011 -1091.880302 
L 140.373086 -1089.275918 
L 140.916552 -1086.671534 
L 141.509803 -1084.067151 
L 142.152624 -1081.462767 
L 142.845673 -1078.858383 
L 143.588784 -1076.253999 
L 144.378305 -1073.649616 
L 145.204072 -1071.045232 
L 146.046976 -1068.440848 
L 146.878148 -1065.836464 
L 147.660495 -1063.23208 
L 148.352767 -1060.627697 
L 148.915594 -1058.023313 
L 149.318316 -1055.418929 
L 149.545103 -1052.814545 
L 149.598992 -1050.210162 
L 149.502979 -1047.605778 
L 149.298084 -1045.001394 
L 149.039008 -1042.39701 
L 148.788538 -1039.792627 
L 148.611894 -1037.188243 
L 148.571992 -1034.583859 
L 148.726039 -1031.979475 
L 149.123308 -1029.375092 
L 149.803545 -1026.770708 
L 150.79528 -1024.166324 
L 152.11355 -1021.56194 
L 153.756904 -1018.957557 
L 155.704141 -1016.353173 
L 157.911632 -1013.748789 
L 160.312347 -1011.144405 
L 162.817637 -1008.540022 
L 165.322419 -1005.935638 
L 167.713819 -1003.331254 
L 169.882494 -1000.72687 
L 171.735122 -998.122487 
L 173.205952 -995.518103 
L 174.265095 -992.913719 
L 174.921663 -990.309335 
L 175.220734 -987.704951 
L 175.234542 -985.100568 
L 175.04974 -982.496184 
L 174.753728 -979.8918 
L 174.423409 -977.287416 
L 174.119059 -974.683033 
L 173.884467 -972.078649 
L 173.752322 -969.474265 
L 173.751826 -966.869881 
L 173.914297 -964.265498 
L 174.272732 -961.661114 
L 174.853069 -959.05673 
L 175.657944 -956.452346 
L 176.647173 -953.847963 
L 177.721844 -951.243579 
L 178.719538 -948.639195 
L 179.42614 -946.034811 
L 179.605242 -943.430428 
L 179.040396 -940.826044 
L 177.580514 -938.22166 
L 175.176476 -935.617276 
L 171.898515 -933.012893 
L 167.929023 -930.408509 
L 163.532339 -927.804125 
L 159.009436 -925.199741 
L 154.649033 -922.595358 
L 150.686581 -919.990974 
L 147.279049 -917.38659 
L 144.498228 -914.782206 
L 142.340169 -912.177822 
L 140.745051 -909.573439 
z
" id="m21619dc354" style="stroke:#333333;stroke-width:1.5;"/>
    </defs>
    <g clip-path="url(#p38697fd201)">
     <use style="fill:#555555;stroke:#333333;stroke-width:1.5;" x="0" xlink:href="#m21619dc354" y="1728"/>
    </g>
   </g>
   <g id="PolyCollection_4">
    <defs>
     <path d="M 305.199162 -918.383701 
L 305.000838 -918.383701 
L 304.931494 -920.621877 
L 304.831545 -922.860052 
L 304.697576 -925.098228 
L 304.52968 -927.336404 
L 304.331202 -929.574579 
L 304.106916 -931.812755 
L 303.860106 -934.05093 
L 303.589537 -936.289106 
L 303.287082 -938.527282 
L 302.936229 -940.765457 
L 302.511388 -943.003633 
L 301.978366 -945.241808 
L 301.297047 -947.479984 
L 300.426797 -949.71816 
L 299.332819 -951.956335 
L 297.988713 -954.194511 
L 296.369831 -956.432686 
L 294.43635 -958.670862 
L 292.113742 -960.909038 
L 289.286324 -963.147213 
L 285.819795 -965.385389 
L 281.616866 -967.623564 
L 276.690178 -969.86174 
L 271.219941 -972.099916 
L 265.562262 -974.338091 
L 260.192028 -976.576267 
L 255.59309 -978.814442 
L 252.132756 -981.052618 
L 249.964334 -983.290794 
L 248.988969 -985.528969 
L 248.885056 -987.767145 
L 249.191959 -990.00532 
L 249.422084 -992.243496 
L 249.172434 -994.481672 
L 248.210858 -996.719847 
L 246.520621 -998.958023 
L 244.297485 -1001.196198 
L 241.90393 -1003.434374 
L 239.792806 -1005.67255 
L 238.416655 -1007.910725 
L 238.14 -1010.148901 
L 239.171485 -1012.387076 
L 241.530288 -1014.625252 
L 245.054798 -1016.863428 
L 249.450585 -1019.101603 
L 254.362717 -1021.339779 
L 259.450273 -1023.577954 
L 264.4423 -1025.81613 
L 269.163476 -1028.054306 
L 273.529254 -1030.292481 
L 277.519428 -1032.530657 
L 281.143442 -1034.768832 
L 284.410771 -1037.007008 
L 287.316076 -1039.245184 
L 289.842236 -1041.483359 
L 291.976487 -1043.721535 
L 293.728818 -1045.95971 
L 295.141064 -1048.197886 
L 296.280787 -1050.436062 
L 297.222901 -1052.674237 
L 298.028932 -1054.912413 
L 298.734586 -1057.150588 
L 299.350974 -1059.388764 
L 299.877008 -1061.62694 
L 300.314841 -1063.865115 
L 300.679653 -1066.103291 
L 300.999254 -1068.341466 
L 301.304993 -1070.579642 
L 301.619889 -1072.817818 
L 301.950629 -1075.055993 
L 302.287191 -1077.294169 
L 302.609549 -1079.532344 
L 302.897558 -1081.77052 
L 303.139343 -1084.008696 
L 303.335121 -1086.246871 
L 303.495939 -1088.485047 
L 303.638854 -1090.723222 
L 303.780841 -1092.961398 
L 303.933481 -1095.199574 
L 304.099746 -1097.437749 
L 304.273476 -1099.675925 
L 304.44139 -1101.9141 
L 304.586826 -1104.152276 
L 304.694051 -1106.390452 
L 304.752033 -1108.628627 
L 304.757088 -1110.866803 
L 304.714214 -1113.104978 
L 304.63701 -1115.343154 
L 304.545908 -1117.58133 
L 304.464477 -1119.819505 
L 304.414205 -1122.057681 
L 304.40913 -1124.295856 
L 304.452299 -1126.534032 
L 304.535599 -1128.772208 
L 304.643101 -1131.010383 
L 304.756452 -1133.248559 
L 304.860086 -1135.486734 
L 304.944399 -1137.72491 
L 305.006276 -1139.963086 
L 305.193724 -1139.963086 
L 305.193724 -1139.963086 
L 305.255601 -1137.72491 
L 305.339914 -1135.486734 
L 305.443548 -1133.248559 
L 305.556899 -1131.010383 
L 305.664401 -1128.772208 
L 305.747701 -1126.534032 
L 305.79087 -1124.295856 
L 305.785795 -1122.057681 
L 305.735523 -1119.819505 
L 305.654092 -1117.58133 
L 305.56299 -1115.343154 
L 305.485786 -1113.104978 
L 305.442912 -1110.866803 
L 305.447967 -1108.628627 
L 305.505949 -1106.390452 
L 305.613174 -1104.152276 
L 305.75861 -1101.9141 
L 305.926524 -1099.675925 
L 306.100254 -1097.437749 
L 306.266519 -1095.199574 
L 306.419159 -1092.961398 
L 306.561146 -1090.723222 
L 306.704061 -1088.485047 
L 306.864879 -1086.246871 
L 307.060657 -1084.008696 
L 307.302442 -1081.77052 
L 307.590451 -1079.532344 
L 307.912809 -1077.294169 
L 308.249371 -1075.055993 
L 308.580111 -1072.817818 
L 308.895007 -1070.579642 
L 309.200746 -1068.341466 
L 309.520347 -1066.103291 
L 309.885159 -1063.865115 
L 310.322992 -1061.62694 
L 310.849026 -1059.388764 
L 311.465414 -1057.150588 
L 312.171068 -1054.912413 
L 312.977099 -1052.674237 
L 313.919213 -1050.436062 
L 315.058936 -1048.197886 
L 316.471182 -1045.95971 
L 318.223513 -1043.721535 
L 320.357764 -1041.483359 
L 322.883924 -1039.245184 
L 325.789229 -1037.007008 
L 329.056558 -1034.768832 
L 332.680572 -1032.530657 
L 336.670746 -1030.292481 
L 341.036524 -1028.054306 
L 345.7577 -1025.81613 
L 350.749727 -1023.577954 
L 355.837283 -1021.339779 
L 360.749415 -1019.101603 
L 365.145202 -1016.863428 
L 368.669712 -1014.625252 
L 371.028515 -1012.387076 
L 372.06 -1010.148901 
L 371.783345 -1007.910725 
L 370.407194 -1005.67255 
L 368.29607 -1003.434374 
L 365.902515 -1001.196198 
L 363.679379 -998.958023 
L 361.989142 -996.719847 
L 361.027566 -994.481672 
L 360.777916 -992.243496 
L 361.008041 -990.00532 
L 361.314944 -987.767145 
L 361.211031 -985.528969 
L 360.235666 -983.290794 
L 358.067244 -981.052618 
L 354.60691 -978.814442 
L 350.007972 -976.576267 
L 344.637738 -974.338091 
L 338.980059 -972.099916 
L 333.509822 -969.86174 
L 328.583134 -967.623564 
L 324.380205 -965.385389 
L 320.913676 -963.147213 
L 318.086258 -960.909038 
L 315.76365 -958.670862 
L 313.830169 -956.432686 
L 312.211287 -954.194511 
L 310.867181 -951.956335 
L 309.773203 -949.71816 
L 308.902953 -947.479984 
L 308.221634 -945.241808 
L 307.688612 -943.003633 
L 307.263771 -940.765457 
L 306.912918 -938.527282 
L 306.610463 -936.289106 
L 306.339894 -934.05093 
L 306.093084 -931.812755 
L 305.868798 -929.574579 
L 305.67032 -927.336404 
L 305.502424 -925.098228 
L 305.368455 -922.860052 
L 305.268506 -920.621877 
L 305.199162 -918.383701 
z
" id="mf79554ba5a" style="stroke:#333333;stroke-width:1.5;"/>
    </defs>
    <g clip-path="url(#p38697fd201)">
     <use style="fill:#aaaaaa;stroke:#333333;stroke-width:1.5;" x="0" xlink:href="#mf79554ba5a" y="1728"/>
    </g>
   </g>
   <g id="matplotlib.axis_3">
    <g id="xtick_3">
     <g id="line2d_12">
      <g>
       <use style="stroke:#000000;stroke-width:0.8;" x="137.7" xlink:href="#m23f280755d" y="831.318261"/>
      </g>
     </g>
    </g>
    <g id="xtick_4">
     <g id="line2d_13">
      <g>
       <use style="stroke:#000000;stroke-width:0.8;" x="305.1" xlink:href="#m23f280755d" y="831.318261"/>
      </g>
     </g>
    </g>
    <g id="text_9">
     <!-- Manual or Automated -->
     <g transform="translate(112.96875 850.515136)scale(0.2 -0.2)">
      <use xlink:href="#DejaVuSans-77"/>
      <use x="86.279297" xlink:href="#DejaVuSans-97"/>
      <use x="147.558594" xlink:href="#DejaVuSans-110"/>
      <use x="210.9375" xlink:href="#DejaVuSans-117"/>
      <use x="274.316406" xlink:href="#DejaVuSans-97"/>
      <use x="335.595703" xlink:href="#DejaVuSans-108"/>
      <use x="363.378906" xlink:href="#DejaVuSans-32"/>
      <use x="395.166016" xlink:href="#DejaVuSans-111"/>
      <use x="456.347656" xlink:href="#DejaVuSans-114"/>
      <use x="497.460938" xlink:href="#DejaVuSans-32"/>
      <use x="529.248047" xlink:href="#DejaVuSans-65"/>
      <use x="597.65625" xlink:href="#DejaVuSans-117"/>
      <use x="661.035156" xlink:href="#DejaVuSans-116"/>
      <use x="700.244141" xlink:href="#DejaVuSans-111"/>
      <use x="761.425781" xlink:href="#DejaVuSans-109"/>
      <use x="858.837891" xlink:href="#DejaVuSans-97"/>
      <use x="920.117188" xlink:href="#DejaVuSans-116"/>
      <use x="959.326172" xlink:href="#DejaVuSans-101"/>
      <use x="1020.849609" xlink:href="#DejaVuSans-100"/>
     </g>
    </g>
   </g>
   <g id="matplotlib.axis_4">
    <g id="ytick_6">
     <g id="line2d_14">
      <g>
       <use style="stroke:#000000;stroke-width:0.8;" x="54" xlink:href="#mfff51f0219" y="793.766851"/>
      </g>
     </g>
     <g id="text_10">
      <!-- 0 -->
      <g transform="translate(34.275 801.365289)scale(0.2 -0.2)">
       <use xlink:href="#DejaVuSans-48"/>
      </g>
     </g>
    </g>
    <g id="ytick_7">
     <g id="line2d_15">
      <g>
       <use style="stroke:#000000;stroke-width:0.8;" x="54" xlink:href="#mfff51f0219" y="753.081081"/>
      </g>
     </g>
     <g id="text_11">
      <!-- 1000 -->
      <g transform="translate(-3.9 760.679518)scale(0.2 -0.2)">
       <use xlink:href="#DejaVuSans-49"/>
       <use x="63.623047" xlink:href="#DejaVuSans-48"/>
       <use x="127.246094" xlink:href="#DejaVuSans-48"/>
       <use x="190.869141" xlink:href="#DejaVuSans-48"/>
      </g>
     </g>
    </g>
    <g id="ytick_8">
     <g id="line2d_16">
      <g>
       <use style="stroke:#000000;stroke-width:0.8;" x="54" xlink:href="#mfff51f0219" y="712.395311"/>
      </g>
     </g>
     <g id="text_12">
      <!-- 2000 -->
      <g transform="translate(-3.9 719.993748)scale(0.2 -0.2)">
       <use xlink:href="#DejaVuSans-50"/>
       <use x="63.623047" xlink:href="#DejaVuSans-48"/>
       <use x="127.246094" xlink:href="#DejaVuSans-48"/>
       <use x="190.869141" xlink:href="#DejaVuSans-48"/>
      </g>
     </g>
    </g>
    <g id="ytick_9">
     <g id="line2d_17">
      <g>
       <use style="stroke:#000000;stroke-width:0.8;" x="54" xlink:href="#mfff51f0219" y="671.709541"/>
      </g>
     </g>
     <g id="text_13">
      <!-- 3000 -->
      <g transform="translate(-3.9 679.307978)scale(0.2 -0.2)">
       <use xlink:href="#DejaVuSans-51"/>
       <use x="63.623047" xlink:href="#DejaVuSans-48"/>
       <use x="127.246094" xlink:href="#DejaVuSans-48"/>
       <use x="190.869141" xlink:href="#DejaVuSans-48"/>
      </g>
     </g>
    </g>
    <g id="ytick_10">
     <g id="line2d_18">
      <g>
       <use style="stroke:#000000;stroke-width:0.8;" x="54" xlink:href="#mfff51f0219" y="631.023771"/>
      </g>
     </g>
     <g id="text_14">
      <!-- 4000 -->
      <g transform="translate(-3.9 638.622208)scale(0.2 -0.2)">
       <use xlink:href="#DejaVuSans-52"/>
       <use x="63.623047" xlink:href="#DejaVuSans-48"/>
       <use x="127.246094" xlink:href="#DejaVuSans-48"/>
       <use x="190.869141" xlink:href="#DejaVuSans-48"/>
      </g>
     </g>
    </g>
    <g id="ytick_11">
     <g id="line2d_19">
      <g>
       <use style="stroke:#000000;stroke-width:0.8;" x="54" xlink:href="#mfff51f0219" y="590.338001"/>
      </g>
     </g>
     <g id="text_15">
      <!-- 5000 -->
      <g transform="translate(-3.9 597.936438)scale(0.2 -0.2)">
       <defs>
        <path d="M 10.796875 72.90625 
L 49.515625 72.90625 
L 49.515625 64.59375 
L 19.828125 64.59375 
L 19.828125 46.734375 
Q 21.96875 47.46875 24.109375 47.828125 
Q 26.265625 48.1875 28.421875 48.1875 
Q 40.625 48.1875 47.75 41.5 
Q 54.890625 34.8125 54.890625 23.390625 
Q 54.890625 11.625 47.5625 5.09375 
Q 40.234375 -1.421875 26.90625 -1.421875 
Q 22.3125 -1.421875 17.546875 -0.640625 
Q 12.796875 0.140625 7.71875 1.703125 
L 7.71875 11.625 
Q 12.109375 9.234375 16.796875 8.0625 
Q 21.484375 6.890625 26.703125 6.890625 
Q 35.15625 6.890625 40.078125 11.328125 
Q 45.015625 15.765625 45.015625 23.390625 
Q 45.015625 31 40.078125 35.4375 
Q 35.15625 39.890625 26.703125 39.890625 
Q 22.75 39.890625 18.8125 39.015625 
Q 14.890625 38.140625 10.796875 36.28125 
z
" id="DejaVuSans-53"/>
       </defs>
       <use xlink:href="#DejaVuSans-53"/>
       <use x="63.623047" xlink:href="#DejaVuSans-48"/>
       <use x="127.246094" xlink:href="#DejaVuSans-48"/>
       <use x="190.869141" xlink:href="#DejaVuSans-48"/>
      </g>
     </g>
    </g>
    <g id="ytick_12">
     <g id="line2d_20">
      <g>
       <use style="stroke:#000000;stroke-width:0.8;" x="54" xlink:href="#mfff51f0219" y="549.652231"/>
      </g>
     </g>
     <g id="text_16">
      <!-- 6000 -->
      <g transform="translate(-3.9 557.250668)scale(0.2 -0.2)">
       <defs>
        <path d="M 33.015625 40.375 
Q 26.375 40.375 22.484375 35.828125 
Q 18.609375 31.296875 18.609375 23.390625 
Q 18.609375 15.53125 22.484375 10.953125 
Q 26.375 6.390625 33.015625 6.390625 
Q 39.65625 6.390625 43.53125 10.953125 
Q 47.40625 15.53125 47.40625 23.390625 
Q 47.40625 31.296875 43.53125 35.828125 
Q 39.65625 40.375 33.015625 40.375 
z
M 52.59375 71.296875 
L 52.59375 62.3125 
Q 48.875 64.0625 45.09375 64.984375 
Q 41.3125 65.921875 37.59375 65.921875 
Q 27.828125 65.921875 22.671875 59.328125 
Q 17.53125 52.734375 16.796875 39.40625 
Q 19.671875 43.65625 24.015625 45.921875 
Q 28.375 48.1875 33.59375 48.1875 
Q 44.578125 48.1875 50.953125 41.515625 
Q 57.328125 34.859375 57.328125 23.390625 
Q 57.328125 12.15625 50.6875 5.359375 
Q 44.046875 -1.421875 33.015625 -1.421875 
Q 20.359375 -1.421875 13.671875 8.265625 
Q 6.984375 17.96875 6.984375 36.375 
Q 6.984375 53.65625 15.1875 63.9375 
Q 23.390625 74.21875 37.203125 74.21875 
Q 40.921875 74.21875 44.703125 73.484375 
Q 48.484375 72.75 52.59375 71.296875 
z
" id="DejaVuSans-54"/>
       </defs>
       <use xlink:href="#DejaVuSans-54"/>
       <use x="63.623047" xlink:href="#DejaVuSans-48"/>
       <use x="127.246094" xlink:href="#DejaVuSans-48"/>
       <use x="190.869141" xlink:href="#DejaVuSans-48"/>
      </g>
     </g>
    </g>
    <g id="text_17">
     <!-- Signal -->
     <g transform="translate(-12.059375 720.228315)rotate(-90)scale(0.2 -0.2)">
      <use xlink:href="#DejaVuSans-83"/>
      <use x="63.476562" xlink:href="#DejaVuSans-105"/>
      <use x="91.259766" xlink:href="#DejaVuSans-103"/>
      <use x="154.736328" xlink:href="#DejaVuSans-110"/>
      <use x="218.115234" xlink:href="#DejaVuSans-97"/>
      <use x="279.394531" xlink:href="#DejaVuSans-108"/>
     </g>
    </g>
   </g>
   <g id="line2d_21">
    <path clip-path="url(#p38697fd201)" d="M 137.7 792.709021 
L 137.7 645.792705 
" style="fill:none;stroke:#333333;stroke-linecap:square;stroke-width:1.5;"/>
   </g>
   <g id="line2d_22">
    <path clip-path="url(#p38697fd201)" d="M 137.7 783.005465 
L 137.7 726.269158 
" style="fill:none;stroke:#333333;stroke-linecap:square;stroke-width:4.5;"/>
   </g>
   <g id="line2d_23">
    <path clip-path="url(#p38697fd201)" d="M 305.1 783.188551 
L 305.1 664.467474 
" style="fill:none;stroke:#333333;stroke-linecap:square;stroke-width:1.5;"/>
   </g>
   <g id="line2d_24">
    <path clip-path="url(#p38697fd201)" d="M 305.1 743.13341 
L 305.1 710.849252 
" style="fill:none;stroke:#333333;stroke-linecap:square;stroke-width:4.5;"/>
   </g>
   <g id="patch_8">
    <path d="M 54 831.318261 
L 54 547.70087 
" style="fill:none;stroke:#000000;stroke-linecap:square;stroke-linejoin:miter;stroke-width:0.8;"/>
   </g>
   <g id="patch_9">
    <path d="M 388.8 831.318261 
L 388.8 547.70087 
" style="fill:none;stroke:#000000;stroke-linecap:square;stroke-linejoin:miter;stroke-width:0.8;"/>
   </g>
   <g id="patch_10">
    <path d="M 54 831.318261 
L 388.8 831.318261 
" style="fill:none;stroke:#000000;stroke-linecap:square;stroke-linejoin:miter;stroke-width:0.8;"/>
   </g>
   <g id="patch_11">
    <path d="M 54 547.70087 
L 388.8 547.70087 
" style="fill:none;stroke:#000000;stroke-linecap:square;stroke-linejoin:miter;stroke-width:0.8;"/>
   </g>
   <g id="PathCollection_3">
    <g clip-path="url(#p38697fd201)">
     <use style="fill:#ffffff;stroke:#333333;" x="137.7" xlink:href="#m7ba87d7b9d" y="752.836966"/>
    </g>
   </g>
   <g id="PathCollection_4">
    <g clip-path="url(#p38697fd201)">
     <use style="fill:#ffffff;stroke:#333333;" x="305.1" xlink:href="#m7ba87d7b9d" y="724.23487"/>
    </g>
   </g>
   <g id="text_18">
    <!-- Violin Plot - GFP Max -->
    <g transform="translate(118.621875 541.70087)scale(0.2 -0.2)">
     <defs>
      <path d="M 59.515625 10.40625 
L 59.515625 29.984375 
L 43.40625 29.984375 
L 43.40625 38.09375 
L 69.28125 38.09375 
L 69.28125 6.78125 
Q 63.578125 2.734375 56.6875 0.65625 
Q 49.8125 -1.421875 42 -1.421875 
Q 24.90625 -1.421875 15.25 8.5625 
Q 5.609375 18.5625 5.609375 36.375 
Q 5.609375 54.25 15.25 64.234375 
Q 24.90625 74.21875 42 74.21875 
Q 49.125 74.21875 55.546875 72.453125 
Q 61.96875 70.703125 67.390625 67.28125 
L 67.390625 56.78125 
Q 61.921875 61.421875 55.765625 63.765625 
Q 49.609375 66.109375 42.828125 66.109375 
Q 29.4375 66.109375 22.71875 58.640625 
Q 16.015625 51.171875 16.015625 36.375 
Q 16.015625 21.625 22.71875 14.15625 
Q 29.4375 6.6875 42.828125 6.6875 
Q 48.046875 6.6875 52.140625 7.59375 
Q 56.25 8.5 59.515625 10.40625 
z
" id="DejaVuSans-71"/>
      <path d="M 9.8125 72.90625 
L 51.703125 72.90625 
L 51.703125 64.59375 
L 19.671875 64.59375 
L 19.671875 43.109375 
L 48.578125 43.109375 
L 48.578125 34.8125 
L 19.671875 34.8125 
L 19.671875 0 
L 9.8125 0 
z
" id="DejaVuSans-70"/>
     </defs>
     <use xlink:href="#DejaVuSans-86"/>
     <use x="66.158203" xlink:href="#DejaVuSans-105"/>
     <use x="93.941406" xlink:href="#DejaVuSans-111"/>
     <use x="155.123047" xlink:href="#DejaVuSans-108"/>
     <use x="182.90625" xlink:href="#DejaVuSans-105"/>
     <use x="210.689453" xlink:href="#DejaVuSans-110"/>
     <use x="274.068359" xlink:href="#DejaVuSans-32"/>
     <use x="305.855469" xlink:href="#DejaVuSans-80"/>
     <use x="366.158203" xlink:href="#DejaVuSans-108"/>
     <use x="393.941406" xlink:href="#DejaVuSans-111"/>
     <use x="455.123047" xlink:href="#DejaVuSans-116"/>
     <use x="494.332031" xlink:href="#DejaVuSans-32"/>
     <use x="526.119141" xlink:href="#DejaVuSans-45"/>
     <use x="562.203125" xlink:href="#DejaVuSans-32"/>
     <use x="593.990234" xlink:href="#DejaVuSans-71"/>
     <use x="671.480469" xlink:href="#DejaVuSans-70"/>
     <use x="729" xlink:href="#DejaVuSans-80"/>
     <use x="789.302734" xlink:href="#DejaVuSans-32"/>
     <use x="821.089844" xlink:href="#DejaVuSans-77"/>
     <use x="907.369141" xlink:href="#DejaVuSans-97"/>
     <use x="968.648438" xlink:href="#DejaVuSans-120"/>
    </g>
   </g>
  </g>
  <g id="axes_3">
   <g id="patch_12">
    <path d="M 54 1171.65913 
L 388.8 1171.65913 
L 388.8 888.041739 
L 54 888.041739 
z
" style="fill:#ffffff;"/>
   </g>
   <g id="PolyCollection_5">
    <defs>
     <path d="M 137.801068 -643.947053 
L 137.598932 -643.947053 
L 137.54294 -645.796745 
L 137.465362 -647.646437 
L 137.362666 -649.496129 
L 137.232747 -651.345821 
L 137.075651 -653.195513 
L 136.894069 -655.045205 
L 136.69343 -656.894897 
L 136.481473 -658.744589 
L 136.267253 -660.594281 
L 136.059622 -662.443973 
L 135.865309 -664.293665 
L 135.686758 -666.143357 
L 135.519947 -667.993049 
L 135.352436 -669.842741 
L 135.161968 -671.692433 
L 134.915999 -673.542125 
L 134.572557 -675.391817 
L 134.082833 -677.241509 
L 133.395699 -679.091201 
L 132.464003 -680.940893 
L 131.251933 -682.790585 
L 129.742136 -684.640277 
L 127.940769 -686.489969 
L 125.87862 -688.339661 
L 123.607012 -690.189353 
L 121.188361 -692.039045 
L 118.682851 -693.888737 
L 116.13408 -695.738429 
L 113.557349 -697.588121 
L 110.934101 -699.437813 
L 108.214846 -701.287505 
L 105.331032 -703.137197 
L 102.214151 -704.986889 
L 98.818397 -706.836581 
L 95.141897 -708.686273 
L 91.241251 -710.535965 
L 87.235052 -712.385657 
L 83.294239 -714.235349 
L 79.620164 -716.085041 
L 76.414438 -717.934733 
L 73.8471 -719.784425 
L 72.030458 -721.634117 
L 71.004908 -723.483809 
L 70.74 -725.333501 
L 71.150103 -727.183193 
L 72.120093 -729.032885 
L 73.533883 -730.882577 
L 75.298099 -732.732269 
L 77.354953 -734.581961 
L 79.681925 -736.431653 
L 82.279949 -738.281345 
L 85.155195 -740.131037 
L 88.300987 -741.980729 
L 91.685518 -743.830421 
L 95.248321 -745.680113 
L 98.905052 -747.529805 
L 102.557467 -749.379497 
L 106.104516 -751.229189 
L 109.451309 -753.078881 
L 112.514722 -754.928573 
L 115.226361 -756.778265 
L 117.534635 -758.627957 
L 119.407335 -760.477649 
L 120.834909 -762.327341 
L 121.833272 -764.177033 
L 122.444345 -766.026725 
L 122.732959 -767.876417 
L 122.779883 -769.726109 
L 122.672196 -771.575801 
L 122.493115 -773.425493 
L 122.313588 -775.275185 
L 122.187343 -777.124877 
L 122.150016 -778.974569 
L 122.221833 -780.824261 
L 122.41248 -782.673953 
L 122.726354 -784.523645 
L 123.166524 -786.373337 
L 123.736245 -788.223029 
L 124.437777 -790.072721 
L 125.269193 -791.922413 
L 126.2206 -793.772105 
L 127.27148 -795.621797 
L 128.390483 -797.471489 
L 129.538159 -799.321181 
L 130.672032 -801.170873 
L 131.752602 -803.020565 
L 132.748545 -804.870257 
L 133.639759 -806.719949 
L 134.417716 -808.569641 
L 135.083504 -810.419333 
L 135.644591 -812.269025 
L 136.111499 -814.118717 
L 136.495293 -815.968409 
L 136.806254 -817.818101 
L 137.053584 -819.667793 
L 137.245717 -821.517485 
L 137.390735 -823.367177 
L 137.49659 -825.216869 
L 137.571032 -827.066561 
L 137.828968 -827.066561 
L 137.828968 -827.066561 
L 137.90341 -825.216869 
L 138.009265 -823.367177 
L 138.154283 -821.517485 
L 138.346416 -819.667793 
L 138.593746 -817.818101 
L 138.904707 -815.968409 
L 139.288501 -814.118717 
L 139.755409 -812.269025 
L 140.316496 -810.419333 
L 140.982284 -808.569641 
L 141.760241 -806.719949 
L 142.651455 -804.870257 
L 143.647398 -803.020565 
L 144.727968 -801.170873 
L 145.861841 -799.321181 
L 147.009517 -797.471489 
L 148.12852 -795.621797 
L 149.1794 -793.772105 
L 150.130807 -791.922413 
L 150.962223 -790.072721 
L 151.663755 -788.223029 
L 152.233476 -786.373337 
L 152.673646 -784.523645 
L 152.98752 -782.673953 
L 153.178167 -780.824261 
L 153.249984 -778.974569 
L 153.212657 -777.124877 
L 153.086412 -775.275185 
L 152.906885 -773.425493 
L 152.727804 -771.575801 
L 152.620117 -769.726109 
L 152.667041 -767.876417 
L 152.955655 -766.026725 
L 153.566728 -764.177033 
L 154.565091 -762.327341 
L 155.992665 -760.477649 
L 157.865365 -758.627957 
L 160.173639 -756.778265 
L 162.885278 -754.928573 
L 165.948691 -753.078881 
L 169.295484 -751.229189 
L 172.842533 -749.379497 
L 176.494948 -747.529805 
L 180.151679 -745.680113 
L 183.714482 -743.830421 
L 187.099013 -741.980729 
L 190.244805 -740.131037 
L 193.120051 -738.281345 
L 195.718075 -736.431653 
L 198.045047 -734.581961 
L 200.101901 -732.732269 
L 201.866117 -730.882577 
L 203.279907 -729.032885 
L 204.249897 -727.183193 
L 204.66 -725.333501 
L 204.395092 -723.483809 
L 203.369542 -721.634117 
L 201.5529 -719.784425 
L 198.985562 -717.934733 
L 195.779836 -716.085041 
L 192.105761 -714.235349 
L 188.164948 -712.385657 
L 184.158749 -710.535965 
L 180.258103 -708.686273 
L 176.581603 -706.836581 
L 173.185849 -704.986889 
L 170.068968 -703.137197 
L 167.185154 -701.287505 
L 164.465899 -699.437813 
L 161.842651 -697.588121 
L 159.26592 -695.738429 
L 156.717149 -693.888737 
L 154.211639 -692.039045 
L 151.792988 -690.189353 
L 149.52138 -688.339661 
L 147.459231 -686.489969 
L 145.657864 -684.640277 
L 144.148067 -682.790585 
L 142.935997 -680.940893 
L 142.004301 -679.091201 
L 141.317167 -677.241509 
L 140.827443 -675.391817 
L 140.484001 -673.542125 
L 140.238032 -671.692433 
L 140.047564 -669.842741 
L 139.880053 -667.993049 
L 139.713242 -666.143357 
L 139.534691 -664.293665 
L 139.340378 -662.443973 
L 139.132747 -660.594281 
L 138.918527 -658.744589 
L 138.70657 -656.894897 
L 138.505931 -655.045205 
L 138.324349 -653.195513 
L 138.167253 -651.345821 
L 138.037334 -649.496129 
L 137.934638 -647.646437 
L 137.85706 -645.796745 
L 137.801068 -643.947053 
z
" id="m37e50411dd" style="stroke:#333333;stroke-width:1.5;"/>
    </defs>
    <g clip-path="url(#p11ebce8f97)">
     <use style="fill:#555555;stroke:#333333;stroke-width:1.5;" x="0" xlink:href="#m37e50411dd" y="1728"/>
    </g>
   </g>
   <g id="PolyCollection_6">
    <defs>
     <path d="M 305.42725 -569.232569 
L 304.77275 -569.232569 
L 304.560642 -571.602532 
L 304.272552 -573.972496 
L 303.918404 -576.342459 
L 303.52941 -578.712422 
L 303.156782 -581.082385 
L 302.862075 -583.452348 
L 302.700975 -585.822312 
L 302.706192 -588.192275 
L 302.876644 -590.562238 
L 303.177821 -592.932201 
L 303.553165 -595.302165 
L 303.941332 -597.672128 
L 304.292133 -600.042091 
L 304.575693 -602.412054 
L 304.783265 -604.782017 
L 304.921897 -607.151981 
L 305.006779 -609.521944 
L 305.054583 -611.891907 
L 305.079404 -614.26187 
L 305.091306 -616.631834 
L 305.096583 -619.001797 
L 305.098745 -621.37176 
L 305.099555 -623.741723 
L 305.099799 -626.111686 
L 305.099749 -628.48165 
L 305.099358 -630.851613 
L 305.098236 -633.221576 
L 305.095398 -635.591539 
L 305.088749 -637.961502 
L 305.074221 -640.331466 
L 305.044585 -642.701429 
L 304.988074 -645.071392 
L 304.887176 -647.441355 
L 304.71812 -649.811319 
L 304.451509 -652.181282 
L 304.054244 -654.551245 
L 303.492335 -656.921208 
L 302.733837 -659.291171 
L 301.751219 -661.661135 
L 300.523068 -664.031098 
L 299.035659 -666.401061 
L 297.28512 -668.771024 
L 295.28041 -671.140988 
L 293.046634 -673.510951 
L 290.627983 -675.880914 
L 288.089761 -678.250877 
L 285.518914 -680.62084 
L 283.021544 -682.990804 
L 280.714522 -685.360767 
L 278.708465 -687.73073 
L 277.082241 -690.100693 
L 275.854526 -692.470656 
L 274.962481 -694.84062 
L 274.257937 -697.210583 
L 273.526121 -699.580546 
L 272.523369 -701.950509 
L 271.023417 -704.320473 
L 268.860585 -706.690436 
L 265.962264 -709.060399 
L 262.36846 -711.430362 
L 258.237939 -713.800325 
L 253.838269 -716.170289 
L 249.514578 -718.540252 
L 245.634924 -720.910215 
L 242.520153 -723.280178 
L 240.378259 -725.650142 
L 239.268776 -728.020105 
L 239.115294 -730.390068 
L 239.764841 -732.760031 
L 241.070571 -735.129994 
L 242.961208 -737.499958 
L 245.465184 -739.869921 
L 248.678417 -742.239884 
L 252.691725 -744.609847 
L 257.512698 -746.97981 
L 263.017785 -749.349774 
L 268.953996 -751.719737 
L 274.985973 -754.0897 
L 280.766056 -756.459663 
L 286.000326 -758.829627 
L 290.491393 -761.19959 
L 294.151932 -763.569553 
L 296.993846 -765.939516 
L 299.102786 -768.309479 
L 300.607508 -770.679443 
L 301.651006 -773.049406 
L 302.367826 -775.419369 
L 302.869807 -777.789332 
L 303.240413 -780.159296 
L 303.535869 -782.529259 
L 303.790117 -784.899222 
L 304.020721 -787.269185 
L 304.234053 -789.639148 
L 304.429444 -792.009112 
L 304.60267 -794.379075 
L 304.748987 -796.749038 
L 304.865481 -799.119001 
L 304.952301 -801.488964 
L 305.012602 -803.858928 
L 305.187398 -803.858928 
L 305.187398 -803.858928 
L 305.247699 -801.488964 
L 305.334519 -799.119001 
L 305.451013 -796.749038 
L 305.59733 -794.379075 
L 305.770556 -792.009112 
L 305.965947 -789.639148 
L 306.179279 -787.269185 
L 306.409883 -784.899222 
L 306.664131 -782.529259 
L 306.959587 -780.159296 
L 307.330193 -777.789332 
L 307.832174 -775.419369 
L 308.548994 -773.049406 
L 309.592492 -770.679443 
L 311.097214 -768.309479 
L 313.206154 -765.939516 
L 316.048068 -763.569553 
L 319.708607 -761.19959 
L 324.199674 -758.829627 
L 329.433944 -756.459663 
L 335.214027 -754.0897 
L 341.246004 -751.719737 
L 347.182215 -749.349774 
L 352.687302 -746.97981 
L 357.508275 -744.609847 
L 361.521583 -742.239884 
L 364.734816 -739.869921 
L 367.238792 -737.499958 
L 369.129429 -735.129994 
L 370.435159 -732.760031 
L 371.084706 -730.390068 
L 370.931224 -728.020105 
L 369.821741 -725.650142 
L 367.679847 -723.280178 
L 364.565076 -720.910215 
L 360.685422 -718.540252 
L 356.361731 -716.170289 
L 351.962061 -713.800325 
L 347.83154 -711.430362 
L 344.237736 -709.060399 
L 341.339415 -706.690436 
L 339.176583 -704.320473 
L 337.676631 -701.950509 
L 336.673879 -699.580546 
L 335.942063 -697.210583 
L 335.237519 -694.84062 
L 334.345474 -692.470656 
L 333.117759 -690.100693 
L 331.491535 -687.73073 
L 329.485478 -685.360767 
L 327.178456 -682.990804 
L 324.681086 -680.62084 
L 322.110239 -678.250877 
L 319.572017 -675.880914 
L 317.153366 -673.510951 
L 314.91959 -671.140988 
L 312.91488 -668.771024 
L 311.164341 -666.401061 
L 309.676932 -664.031098 
L 308.448781 -661.661135 
L 307.466163 -659.291171 
L 306.707665 -656.921208 
L 306.145756 -654.551245 
L 305.748491 -652.181282 
L 305.48188 -649.811319 
L 305.312824 -647.441355 
L 305.211926 -645.071392 
L 305.155415 -642.701429 
L 305.125779 -640.331466 
L 305.111251 -637.961502 
L 305.104602 -635.591539 
L 305.101764 -633.221576 
L 305.100642 -630.851613 
L 305.100251 -628.48165 
L 305.100201 -626.111686 
L 305.100445 -623.741723 
L 305.101255 -621.37176 
L 305.103417 -619.001797 
L 305.108694 -616.631834 
L 305.120596 -614.26187 
L 305.145417 -611.891907 
L 305.193221 -609.521944 
L 305.278103 -607.151981 
L 305.416735 -604.782017 
L 305.624307 -602.412054 
L 305.907867 -600.042091 
L 306.258668 -597.672128 
L 306.646835 -595.302165 
L 307.022179 -592.932201 
L 307.323356 -590.562238 
L 307.493808 -588.192275 
L 307.499025 -585.822312 
L 307.337925 -583.452348 
L 307.043218 -581.082385 
L 306.67059 -578.712422 
L 306.281596 -576.342459 
L 305.927448 -573.972496 
L 305.639358 -571.602532 
L 305.42725 -569.232569 
z
" id="m1b1d83cadc" style="stroke:#333333;stroke-width:1.5;"/>
    </defs>
    <g clip-path="url(#p11ebce8f97)">
     <use style="fill:#aaaaaa;stroke:#333333;stroke-width:1.5;" x="0" xlink:href="#m1b1d83cadc" y="1728"/>
    </g>
   </g>
   <g id="matplotlib.axis_5">
    <g id="xtick_5">
     <g id="line2d_25">
      <g>
       <use style="stroke:#000000;stroke-width:0.8;" x="137.7" xlink:href="#m23f280755d" y="1171.65913"/>
      </g>
     </g>
    </g>
    <g id="xtick_6">
     <g id="line2d_26">
      <g>
       <use style="stroke:#000000;stroke-width:0.8;" x="305.1" xlink:href="#m23f280755d" y="1171.65913"/>
      </g>
     </g>
    </g>
    <g id="text_19">
     <!-- Manual or Automated -->
     <g transform="translate(112.96875 1190.856005)scale(0.2 -0.2)">
      <use xlink:href="#DejaVuSans-77"/>
      <use x="86.279297" xlink:href="#DejaVuSans-97"/>
      <use x="147.558594" xlink:href="#DejaVuSans-110"/>
      <use x="210.9375" xlink:href="#DejaVuSans-117"/>
      <use x="274.316406" xlink:href="#DejaVuSans-97"/>
      <use x="335.595703" xlink:href="#DejaVuSans-108"/>
      <use x="363.378906" xlink:href="#DejaVuSans-32"/>
      <use x="395.166016" xlink:href="#DejaVuSans-111"/>
      <use x="456.347656" xlink:href="#DejaVuSans-114"/>
      <use x="497.460938" xlink:href="#DejaVuSans-32"/>
      <use x="529.248047" xlink:href="#DejaVuSans-65"/>
      <use x="597.65625" xlink:href="#DejaVuSans-117"/>
      <use x="661.035156" xlink:href="#DejaVuSans-116"/>
      <use x="700.244141" xlink:href="#DejaVuSans-111"/>
      <use x="761.425781" xlink:href="#DejaVuSans-109"/>
      <use x="858.837891" xlink:href="#DejaVuSans-97"/>
      <use x="920.117188" xlink:href="#DejaVuSans-116"/>
      <use x="959.326172" xlink:href="#DejaVuSans-101"/>
      <use x="1020.849609" xlink:href="#DejaVuSans-100"/>
     </g>
    </g>
   </g>
   <g id="matplotlib.axis_6">
    <g id="ytick_13">
     <g id="line2d_27">
      <g>
       <use style="stroke:#000000;stroke-width:0.8;" x="54" xlink:href="#mfff51f0219" y="1141.064681"/>
      </g>
     </g>
     <g id="text_20">
      <!-- 0 -->
      <g transform="translate(34.275 1148.663118)scale(0.2 -0.2)">
       <use xlink:href="#DejaVuSans-48"/>
      </g>
     </g>
    </g>
    <g id="ytick_14">
     <g id="line2d_28">
      <g>
       <use style="stroke:#000000;stroke-width:0.8;" x="54" xlink:href="#mfff51f0219" y="1073.532186"/>
      </g>
     </g>
     <g id="text_21">
      <!-- 100 -->
      <g transform="translate(8.825 1081.130624)scale(0.2 -0.2)">
       <use xlink:href="#DejaVuSans-49"/>
       <use x="63.623047" xlink:href="#DejaVuSans-48"/>
       <use x="127.246094" xlink:href="#DejaVuSans-48"/>
      </g>
     </g>
    </g>
    <g id="ytick_15">
     <g id="line2d_29">
      <g>
       <use style="stroke:#000000;stroke-width:0.8;" x="54" xlink:href="#mfff51f0219" y="1005.999692"/>
      </g>
     </g>
     <g id="text_22">
      <!-- 200 -->
      <g transform="translate(8.825 1013.598129)scale(0.2 -0.2)">
       <use xlink:href="#DejaVuSans-50"/>
       <use x="63.623047" xlink:href="#DejaVuSans-48"/>
       <use x="127.246094" xlink:href="#DejaVuSans-48"/>
      </g>
     </g>
    </g>
    <g id="ytick_16">
     <g id="line2d_30">
      <g>
       <use style="stroke:#000000;stroke-width:0.8;" x="54" xlink:href="#mfff51f0219" y="938.467198"/>
      </g>
     </g>
     <g id="text_23">
      <!-- 300 -->
      <g transform="translate(8.825 946.065635)scale(0.2 -0.2)">
       <use xlink:href="#DejaVuSans-51"/>
       <use x="63.623047" xlink:href="#DejaVuSans-48"/>
       <use x="127.246094" xlink:href="#DejaVuSans-48"/>
      </g>
     </g>
    </g>
    <g id="text_24">
     <!-- Signal -->
     <g transform="translate(0.665625 1060.569185)rotate(-90)scale(0.2 -0.2)">
      <use xlink:href="#DejaVuSans-83"/>
      <use x="63.476562" xlink:href="#DejaVuSans-105"/>
      <use x="91.259766" xlink:href="#DejaVuSans-103"/>
      <use x="154.736328" xlink:href="#DejaVuSans-110"/>
      <use x="218.115234" xlink:href="#DejaVuSans-97"/>
      <use x="279.394531" xlink:href="#DejaVuSans-108"/>
     </g>
    </g>
   </g>
   <g id="line2d_31">
    <path clip-path="url(#p11ebce8f97)" d="M 137.7 1056.649063 
L 137.7 938.467198 
" style="fill:none;stroke:#333333;stroke-linecap:square;stroke-width:1.5;"/>
   </g>
   <g id="line2d_32">
    <path clip-path="url(#p11ebce8f97)" d="M 137.7 1012.752941 
L 137.7 982.363319 
" style="fill:none;stroke:#333333;stroke-linecap:square;stroke-width:4.5;"/>
   </g>
   <g id="line2d_33">
    <path clip-path="url(#p11ebce8f97)" d="M 305.1 1063.402312 
L 305.1 941.843822 
" style="fill:none;stroke:#333333;stroke-linecap:square;stroke-width:1.5;"/>
   </g>
   <g id="line2d_34">
    <path clip-path="url(#p11ebce8f97)" d="M 305.1 1022.882816 
L 305.1 989.116568 
" style="fill:none;stroke:#333333;stroke-linecap:square;stroke-width:4.5;"/>
   </g>
   <g id="patch_13">
    <path d="M 54 1171.65913 
L 54 888.041739 
" style="fill:none;stroke:#000000;stroke-linecap:square;stroke-linejoin:miter;stroke-width:0.8;"/>
   </g>
   <g id="patch_14">
    <path d="M 388.8 1171.65913 
L 388.8 888.041739 
" style="fill:none;stroke:#000000;stroke-linecap:square;stroke-linejoin:miter;stroke-width:0.8;"/>
   </g>
   <g id="patch_15">
    <path d="M 54 1171.65913 
L 388.8 1171.65913 
" style="fill:none;stroke:#000000;stroke-linecap:square;stroke-linejoin:miter;stroke-width:0.8;"/>
   </g>
   <g id="patch_16">
    <path d="M 54 888.041739 
L 388.8 888.041739 
" style="fill:none;stroke:#000000;stroke-linecap:square;stroke-linejoin:miter;stroke-width:0.8;"/>
   </g>
   <g id="PathCollection_5">
    <g clip-path="url(#p11ebce8f97)">
     <use style="fill:#ffffff;stroke:#333333;" x="137.7" xlink:href="#m7ba87d7b9d" y="999.246443"/>
    </g>
   </g>
   <g id="PathCollection_6">
    <g clip-path="url(#p11ebce8f97)">
     <use style="fill:#ffffff;stroke:#333333;" x="305.1" xlink:href="#m7ba87d7b9d" y="1002.623067"/>
    </g>
   </g>
   <g id="text_25">
    <!-- Violin Plot - LacZ TimetoHalf -->
    <g transform="translate(80.325 882.041739)scale(0.2 -0.2)">
     <defs>
      <path d="M -0.296875 72.90625 
L 61.375 72.90625 
L 61.375 64.59375 
L 35.5 64.59375 
L 35.5 0 
L 25.59375 0 
L 25.59375 64.59375 
L -0.296875 64.59375 
z
" id="DejaVuSans-84"/>
      <path d="M 9.8125 72.90625 
L 19.671875 72.90625 
L 19.671875 43.015625 
L 55.515625 43.015625 
L 55.515625 72.90625 
L 65.375 72.90625 
L 65.375 0 
L 55.515625 0 
L 55.515625 34.71875 
L 19.671875 34.71875 
L 19.671875 0 
L 9.8125 0 
z
" id="DejaVuSans-72"/>
      <path d="M 37.109375 75.984375 
L 37.109375 68.5 
L 28.515625 68.5 
Q 23.6875 68.5 21.796875 66.546875 
Q 19.921875 64.59375 19.921875 59.515625 
L 19.921875 54.6875 
L 34.71875 54.6875 
L 34.71875 47.703125 
L 19.921875 47.703125 
L 19.921875 0 
L 10.890625 0 
L 10.890625 47.703125 
L 2.296875 47.703125 
L 2.296875 54.6875 
L 10.890625 54.6875 
L 10.890625 58.5 
Q 10.890625 67.625 15.140625 71.796875 
Q 19.390625 75.984375 28.609375 75.984375 
z
" id="DejaVuSans-102"/>
     </defs>
     <use xlink:href="#DejaVuSans-86"/>
     <use x="66.158203" xlink:href="#DejaVuSans-105"/>
     <use x="93.941406" xlink:href="#DejaVuSans-111"/>
     <use x="155.123047" xlink:href="#DejaVuSans-108"/>
     <use x="182.90625" xlink:href="#DejaVuSans-105"/>
     <use x="210.689453" xlink:href="#DejaVuSans-110"/>
     <use x="274.068359" xlink:href="#DejaVuSans-32"/>
     <use x="305.855469" xlink:href="#DejaVuSans-80"/>
     <use x="366.158203" xlink:href="#DejaVuSans-108"/>
     <use x="393.941406" xlink:href="#DejaVuSans-111"/>
     <use x="455.123047" xlink:href="#DejaVuSans-116"/>
     <use x="494.332031" xlink:href="#DejaVuSans-32"/>
     <use x="526.119141" xlink:href="#DejaVuSans-45"/>
     <use x="562.203125" xlink:href="#DejaVuSans-32"/>
     <use x="593.990234" xlink:href="#DejaVuSans-76"/>
     <use x="649.703125" xlink:href="#DejaVuSans-97"/>
     <use x="710.982422" xlink:href="#DejaVuSans-99"/>
     <use x="765.962891" xlink:href="#DejaVuSans-90"/>
     <use x="834.46875" xlink:href="#DejaVuSans-32"/>
     <use x="866.255859" xlink:href="#DejaVuSans-84"/>
     <use x="924.214844" xlink:href="#DejaVuSans-105"/>
     <use x="951.998047" xlink:href="#DejaVuSans-109"/>
     <use x="1049.410156" xlink:href="#DejaVuSans-101"/>
     <use x="1110.933594" xlink:href="#DejaVuSans-116"/>
     <use x="1150.142578" xlink:href="#DejaVuSans-111"/>
     <use x="1211.324219" xlink:href="#DejaVuSans-72"/>
     <use x="1286.519531" xlink:href="#DejaVuSans-97"/>
     <use x="1347.798828" xlink:href="#DejaVuSans-108"/>
     <use x="1375.582031" xlink:href="#DejaVuSans-102"/>
    </g>
   </g>
  </g>
  <g id="axes_4">
   <g id="patch_17">
    <path d="M 54 1512 
L 388.8 1512 
L 388.8 1228.382609 
L 54 1228.382609 
z
" style="fill:#ffffff;"/>
   </g>
   <g id="matplotlib.axis_7">
    <g id="xtick_7">
     <g id="line2d_35">
      <g>
       <use style="stroke:#000000;stroke-width:0.8;" x="137.7" xlink:href="#m23f280755d" y="1512"/>
      </g>
     </g>
     <g id="text_26">
      <!-- 230 -->
      <g transform="translate(128.15625 1526.598438)scale(0.1 -0.1)">
       <use xlink:href="#DejaVuSans-50"/>
       <use x="63.623047" xlink:href="#DejaVuSans-51"/>
       <use x="127.246094" xlink:href="#DejaVuSans-48"/>
      </g>
     </g>
    </g>
    <g id="xtick_8">
     <g id="line2d_36">
      <g>
       <use style="stroke:#000000;stroke-width:0.8;" x="305.1" xlink:href="#m23f280755d" y="1512"/>
      </g>
     </g>
     <g id="text_27">
      <!-- 235 -->
      <g transform="translate(295.55625 1526.598438)scale(0.1 -0.1)">
       <use xlink:href="#DejaVuSans-50"/>
       <use x="63.623047" xlink:href="#DejaVuSans-51"/>
       <use x="127.246094" xlink:href="#DejaVuSans-53"/>
      </g>
     </g>
    </g>
   </g>
   <g id="matplotlib.axis_8">
    <g id="ytick_17">
     <g id="line2d_37">
      <g>
       <use style="stroke:#000000;stroke-width:0.8;" x="54" xlink:href="#mfff51f0219" y="1512"/>
      </g>
     </g>
     <g id="text_28">
      <!-- 0.0 -->
      <g transform="translate(31.096875 1515.799219)scale(0.1 -0.1)">
       <defs>
        <path d="M 10.6875 12.40625 
L 21 12.40625 
L 21 0 
L 10.6875 0 
z
" id="DejaVuSans-46"/>
       </defs>
       <use xlink:href="#DejaVuSans-48"/>
       <use x="63.623047" xlink:href="#DejaVuSans-46"/>
       <use x="95.410156" xlink:href="#DejaVuSans-48"/>
      </g>
     </g>
    </g>
    <g id="ytick_18">
     <g id="line2d_38">
      <g>
       <use style="stroke:#000000;stroke-width:0.8;" x="54" xlink:href="#mfff51f0219" y="1455.276522"/>
      </g>
     </g>
     <g id="text_29">
      <!-- 0.2 -->
      <g transform="translate(31.096875 1459.07574)scale(0.1 -0.1)">
       <use xlink:href="#DejaVuSans-48"/>
       <use x="63.623047" xlink:href="#DejaVuSans-46"/>
       <use x="95.410156" xlink:href="#DejaVuSans-50"/>
      </g>
     </g>
    </g>
    <g id="ytick_19">
     <g id="line2d_39">
      <g>
       <use style="stroke:#000000;stroke-width:0.8;" x="54" xlink:href="#mfff51f0219" y="1398.553043"/>
      </g>
     </g>
     <g id="text_30">
      <!-- 0.4 -->
      <g transform="translate(31.096875 1402.352262)scale(0.1 -0.1)">
       <use xlink:href="#DejaVuSans-48"/>
       <use x="63.623047" xlink:href="#DejaVuSans-46"/>
       <use x="95.410156" xlink:href="#DejaVuSans-52"/>
      </g>
     </g>
    </g>
    <g id="ytick_20">
     <g id="line2d_40">
      <g>
       <use style="stroke:#000000;stroke-width:0.8;" x="54" xlink:href="#mfff51f0219" y="1341.829565"/>
      </g>
     </g>
     <g id="text_31">
      <!-- 0.6 -->
      <g transform="translate(31.096875 1345.628784)scale(0.1 -0.1)">
       <use xlink:href="#DejaVuSans-48"/>
       <use x="63.623047" xlink:href="#DejaVuSans-46"/>
       <use x="95.410156" xlink:href="#DejaVuSans-54"/>
      </g>
     </g>
    </g>
    <g id="ytick_21">
     <g id="line2d_41">
      <g>
       <use style="stroke:#000000;stroke-width:0.8;" x="54" xlink:href="#mfff51f0219" y="1285.106087"/>
      </g>
     </g>
     <g id="text_32">
      <!-- 0.8 -->
      <g transform="translate(31.096875 1288.905306)scale(0.1 -0.1)">
       <defs>
        <path d="M 31.78125 34.625 
Q 24.75 34.625 20.71875 30.859375 
Q 16.703125 27.09375 16.703125 20.515625 
Q 16.703125 13.921875 20.71875 10.15625 
Q 24.75 6.390625 31.78125 6.390625 
Q 38.8125 6.390625 42.859375 10.171875 
Q 46.921875 13.96875 46.921875 20.515625 
Q 46.921875 27.09375 42.890625 30.859375 
Q 38.875 34.625 31.78125 34.625 
z
M 21.921875 38.8125 
Q 15.578125 40.375 12.03125 44.71875 
Q 8.5 49.078125 8.5 55.328125 
Q 8.5 64.0625 14.71875 69.140625 
Q 20.953125 74.21875 31.78125 74.21875 
Q 42.671875 74.21875 48.875 69.140625 
Q 55.078125 64.0625 55.078125 55.328125 
Q 55.078125 49.078125 51.53125 44.71875 
Q 48 40.375 41.703125 38.8125 
Q 48.828125 37.15625 52.796875 32.3125 
Q 56.78125 27.484375 56.78125 20.515625 
Q 56.78125 9.90625 50.3125 4.234375 
Q 43.84375 -1.421875 31.78125 -1.421875 
Q 19.734375 -1.421875 13.25 4.234375 
Q 6.78125 9.90625 6.78125 20.515625 
Q 6.78125 27.484375 10.78125 32.3125 
Q 14.796875 37.15625 21.921875 38.8125 
z
M 18.3125 54.390625 
Q 18.3125 48.734375 21.84375 45.5625 
Q 25.390625 42.390625 31.78125 42.390625 
Q 38.140625 42.390625 41.71875 45.5625 
Q 45.3125 48.734375 45.3125 54.390625 
Q 45.3125 60.0625 41.71875 63.234375 
Q 38.140625 66.40625 31.78125 66.40625 
Q 25.390625 66.40625 21.84375 63.234375 
Q 18.3125 60.0625 18.3125 54.390625 
z
" id="DejaVuSans-56"/>
       </defs>
       <use xlink:href="#DejaVuSans-48"/>
       <use x="63.623047" xlink:href="#DejaVuSans-46"/>
       <use x="95.410156" xlink:href="#DejaVuSans-56"/>
      </g>
     </g>
    </g>
    <g id="ytick_22">
     <g id="line2d_42">
      <g>
       <use style="stroke:#000000;stroke-width:0.8;" x="54" xlink:href="#mfff51f0219" y="1228.382609"/>
      </g>
     </g>
     <g id="text_33">
      <!-- 1.0 -->
      <g transform="translate(31.096875 1232.181827)scale(0.1 -0.1)">
       <use xlink:href="#DejaVuSans-49"/>
       <use x="63.623047" xlink:href="#DejaVuSans-46"/>
       <use x="95.410156" xlink:href="#DejaVuSans-48"/>
      </g>
     </g>
    </g>
   </g>
   <g id="patch_18">
    <path d="M 54 1512 
L 54 1228.382609 
" style="fill:none;stroke:#000000;stroke-linecap:square;stroke-linejoin:miter;stroke-width:0.8;"/>
   </g>
   <g id="patch_19">
    <path d="M 388.8 1512 
L 388.8 1228.382609 
" style="fill:none;stroke:#000000;stroke-linecap:square;stroke-linejoin:miter;stroke-width:0.8;"/>
   </g>
   <g id="patch_20">
    <path d="M 54 1512 
L 388.8 1512 
" style="fill:none;stroke:#000000;stroke-linecap:square;stroke-linejoin:miter;stroke-width:0.8;"/>
   </g>
   <g id="patch_21">
    <path d="M 54 1228.382609 
L 388.8 1228.382609 
" style="fill:none;stroke:#000000;stroke-linecap:square;stroke-linejoin:miter;stroke-width:0.8;"/>
   </g>
  </g>
 </g>
 <defs>
  <clipPath id="pabf52aceff">
   <rect height="283.617391" width="334.8" x="54" y="207.36"/>
  </clipPath>
  <clipPath id="p38697fd201">
   <rect height="283.617391" width="334.8" x="54" y="547.70087"/>
  </clipPath>
  <clipPath id="p11ebce8f97">
   <rect height="283.617391" width="334.8" x="54" y="888.041739"/>
  </clipPath>
 </defs>
</svg>
